<svg id="Logo_BIG_CITY_Violet" data-name="Logo BIG CITY Violet" xmlns="http://www.w3.org/2000/svg" xmlns:xlink="http://www.w3.org/1999/xlink" width="235.4" height="235.4" viewBox="0 0 235.4 235.4">
  <defs>
    <linearGradient id="linear-gradient" y1="0.5" x2="1" y2="0.5" gradientUnits="objectBoundingBox">
      <stop offset="0" stop-color="#82368c"/>
      <stop offset="1" stop-color="#27348b"/>
    </linearGradient>
  </defs>
  <circle id="Ellipse_51" data-name="Ellipse 51" cx="117.7" cy="117.7" r="117.7" fill="url(#linear-gradient)"/>
  <g id="Groupe_202" data-name="Groupe 202" transform="translate(41.6 66.2)">
    <path id="Tracé_257" data-name="Tracé 257" d="M171.7,518.9V569h15.2V470.9H171.7Z" transform="translate(-116.8 -470.4)" fill="#fff"/>
    <path id="Tracé_258" data-name="Tracé 258" d="M143.8,531.5a10.8,10.8,0,0,1,10.1,7.3l13.1-6.1a23.65,23.65,0,0,0-11.5-12.2,12.94,12.94,0,0,0,10.2-13.1c0-6.5-4.1-11.4-9.5-12.2,4.9-1.1,8.6-5.3,8.6-11.5,0-5.9-4.5-12.8-14.9-12.8H119.5V521h11.3c-8.4,4.1-14,12.4-14,23,0,15.4,11.9,25.9,27.2,25.9,13.5,0,20.2-8,23.1-14.6l-13.1-6a10.8,10.8,0,0,1-10.1,7.3c-6.9,0-11.8-5.6-11.8-12.5C132,537,136.9,531.5,143.8,531.5Zm-9.3-48.2h11.7a3.154,3.154,0,0,1,0,6.3H134.5Zm0,18.6h12.2a3.414,3.414,0,0,1,3.5,3.5,3.337,3.337,0,0,1-3.5,3.4H134.5Z" transform="translate(-116.8 -470.4)" fill="#fff"/>
    <path id="Tracé_259" data-name="Tracé 259" d="M269.8,518.9l-9.2,16.9-9.3-16.9h-18a32.836,32.836,0,0,0,9.4-7.1V491.7H218.3v12.5H228v2.2a14.708,14.708,0,0,1-8.2,2.3c-7.3,0-12.2-5.6-12.2-12.5,0-7,4.9-12.5,12.2-12.5a10.2,10.2,0,0,1,9.2,5.5l12.8-6.5c-3.5-6.5-10.4-12.3-22-12.3-15.2,0-27.6,9.8-27.6,25.9,0,10.8,5.7,18.8,14,22.9h-14v13.2h13.4V569h15.2V532.1h13.4V518.9L253,549.1V569h15.2V549.1l18.6-30.2h-17Z" transform="translate(-116.8 -470.4)" fill="#fff"/>
  </g>
</svg>
