<svg xmlns="http://www.w3.org/2000/svg" xmlns:xlink="http://www.w3.org/1999/xlink" width="103.38" height="103.38" viewBox="0 0 103.38 103.38">
  <defs>
    <linearGradient id="linear-gradient" y1="0.5" x2="1" y2="0.5" gradientUnits="objectBoundingBox">
      <stop offset="0" stop-color="#82368c"/>
      <stop offset="1" stop-color="#27348b"/>
    </linearGradient>
  </defs>
  <g id="Groupe_425" data-name="Groupe 425" transform="translate(-355.469 -2918.768)">
    <ellipse id="Ellipse_51" data-name="Ellipse 51" cx="51.69" cy="51.69" rx="51.69" ry="51.69" transform="translate(355.469 2918.768)" fill="url(#linear-gradient)"/>
    <g id="Groupe_202" data-name="Groupe 202" transform="translate(373.738 2947.841)">
      <path id="Tracé_257" data-name="Tracé 257" d="M171.7,491.98v22h6.675V470.9H171.7Z" transform="translate(-147.59 -470.68)" fill="#fff"/>
      <path id="Tracé_258" data-name="Tracé 258" d="M128.658,497.514a4.743,4.743,0,0,1,4.436,3.206l5.753-2.679a10.386,10.386,0,0,0-5.05-5.358,5.683,5.683,0,0,0,4.479-5.753,5.137,5.137,0,0,0-4.172-5.358,4.888,4.888,0,0,0,3.777-5.05c0-2.591-1.976-5.621-6.544-5.621H117.986v22h4.963A10.915,10.915,0,0,0,116.8,503c0,6.763,5.226,11.374,11.945,11.374a10.472,10.472,0,0,0,10.145-6.412l-5.753-2.635a4.743,4.743,0,0,1-4.436,3.206,5.237,5.237,0,0,1-5.182-5.49A5.164,5.164,0,0,1,128.658,497.514Zm-4.084-21.168h5.138a1.385,1.385,0,0,1,0,2.767h-5.138Zm0,8.169h5.358a1.5,1.5,0,0,1,1.537,1.537,1.465,1.465,0,0,1-1.537,1.493h-5.358Z" transform="translate(-116.8 -470.68)" fill="#fff"/>
      <path id="Tracé_259" data-name="Tracé 259" d="M226.279,491.7l-4.04,7.422-4.084-7.422h-7.9a14.42,14.42,0,0,0,4.128-3.118v-8.827H203.662v5.49h4.26v.966a6.459,6.459,0,0,1-3.6,1.01,5.491,5.491,0,0,1,0-10.979,4.481,4.481,0,0,1,4.04,2.415l5.621-2.855c-1.537-2.855-4.567-5.4-9.662-5.4-6.675,0-12.121,4.3-12.121,11.374a10.83,10.83,0,0,0,6.148,10.057H192.2v5.8h5.885V513.7h6.675V497.5h5.885v-5.8l8.256,13.263V513.7h6.675v-8.739l8.169-13.263h-7.466Z" transform="translate(-159.087 -470.4)" fill="#fff"/>
    </g>
  </g>
</svg>
