<svg id="Logo_BIG_CITY_Blc" data-name="Logo BIG CITY Blc" xmlns="http://www.w3.org/2000/svg" xmlns:xlink="http://www.w3.org/1999/xlink" width="235.4" height="235.4" viewBox="0 0 235.4 235.4">
  <defs>
    <linearGradient id="linear-gradient" x1="-7.474" y1="1.723" x2="2.179" y2="0.242" gradientUnits="objectBoundingBox">
      <stop offset="0" stop-color="#82368c"/>
      <stop offset="1" stop-color="#27348b"/>
    </linearGradient>
    <linearGradient id="linear-gradient-2" x1="-2.172" y1="1.796" x2="1.033" y2="0.184" xlink:href="#linear-gradient"/>
    <linearGradient id="linear-gradient-3" x1="-1.093" y1="1.988" x2="0.712" y2="0.278" xlink:href="#linear-gradient"/>
  </defs>
  <circle id="Ellipse_43" data-name="Ellipse 43" cx="117.7" cy="117.7" r="117.7" fill="#fff"/>
  <g id="Groupe_185" data-name="Groupe 185" transform="translate(-75.2 -90.4)">
    <path id="Tracé_241" data-name="Tracé 241" d="M171.7,205.1v50.1h15.2V157.1H171.7Z" fill="url(#linear-gradient)"/>
    <path id="Tracé_242" data-name="Tracé 242" d="M143.8,217.6a10.8,10.8,0,0,1,10.1,7.3l13.1-6.1a23.65,23.65,0,0,0-11.5-12.2,12.939,12.939,0,0,0,10.2-13.1c0-6.5-4.1-11.4-9.5-12.2,4.9-1.1,8.6-5.3,8.6-11.5,0-5.9-4.5-12.8-14.9-12.8H119.5v50.1h11.3c-8.4,4.1-14,12.4-14,23,0,15.4,11.9,25.9,27.2,25.9,13.5,0,20.2-8,23.1-14.6l-13.1-6a10.8,10.8,0,0,1-10.1,7.3c-6.9,0-11.8-5.6-11.8-12.5C132,223.2,136.9,217.6,143.8,217.6Zm-9.3-48.2h11.7a3.154,3.154,0,0,1,0,6.3H134.5Zm0,18.6h12.2a3.414,3.414,0,0,1,3.5,3.5,3.337,3.337,0,0,1-3.5,3.4H134.5Z" fill="url(#linear-gradient-2)"/>
    <path id="Tracé_243" data-name="Tracé 243" d="M269.8,205.1,260.6,222l-9.3-16.9h-18a32.836,32.836,0,0,0,9.4-7.1V177.9H218.3v12.5H228v2.2a14.708,14.708,0,0,1-8.2,2.3c-7.3,0-12.2-5.6-12.2-12.5,0-7,4.9-12.5,12.2-12.5a10.2,10.2,0,0,1,9.2,5.5l12.8-6.5c-3.5-6.5-10.4-12.3-22-12.3-15.2,0-27.6,9.8-27.6,25.9,0,10.8,5.7,18.8,14,22.9h-14v13.2h13.4v36.9h15.2V218.6h13.4V205.4L253,235.6v19.9h15.2V235.6l18.6-30.2h-17Z" fill="url(#linear-gradient-3)"/>
  </g>
</svg>
