<svg id="Logo_BIG_CRM_blc" data-name="Logo BIG CRM blc" xmlns="http://www.w3.org/2000/svg" xmlns:xlink="http://www.w3.org/1999/xlink" width="235.4" height="235.4" viewBox="0 0 235.4 235.4">
  <defs>
    <linearGradient id="linear-gradient" x1="-0.829" y1="1.448" x2="1.204" y2="-0.081" gradientUnits="objectBoundingBox">
      <stop offset="0" stop-color="#82368c"/>
      <stop offset="1" stop-color="#27348b"/>
    </linearGradient>
    <linearGradient id="linear-gradient-2" x1="-0.999" y1="1.516" x2="1.185" y2="0.036" xlink:href="#linear-gradient"/>
    <linearGradient id="linear-gradient-3" x1="-0.157" y1="1.47" x2="0.877" y2="0.077" xlink:href="#linear-gradient"/>
  </defs>
  <circle id="Ellipse_44" data-name="Ellipse 44" cx="117.7" cy="117.7" r="117.7" fill="#fff"/>
  <g id="Groupe_187" data-name="Groupe 187" transform="translate(-361.3 -90.4)">
    <path id="Tracé_244" data-name="Tracé 244" d="M429.9,217.6a10.8,10.8,0,0,1,10.1,7.3l13.1-6.1a23.65,23.65,0,0,0-11.5-12.2,12.939,12.939,0,0,0,10.2-13.1c0-6.5-4.1-11.4-9.5-12.2,4.9-1.1,8.6-5.3,8.6-11.5,0-5.9-4.5-12.8-14.9-12.8H405.6v50.1h11.3c-8.4,4.1-14,12.4-14,23,0,15.4,11.9,25.9,27.2,25.9,13.5,0,20.2-8,23.1-14.6l-13.1-6a10.8,10.8,0,0,1-10.1,7.3c-6.9,0-11.8-5.6-11.8-12.5C418.1,223.2,423,217.6,429.9,217.6Zm-9.3-48.2h11.7a3.154,3.154,0,0,1,0,6.3H420.6Zm0,18.6h12.2a3.414,3.414,0,0,1,3.5,3.5,3.337,3.337,0,0,1-3.5,3.4H420.6Z" fill="url(#linear-gradient)"/>
    <path id="Tracé_245" data-name="Tracé 245" d="M502.5,222.3c0-9.4-6.3-17.2-18-17.2H472.9v-48H457.7v98.1h15.2V239.1h5.5l6.9,16.1h17.3l-9.1-17.7C497.5,235.5,502.5,230.9,502.5,222.3Zm-20.3,4.2H473v-8.8h9.2c2.6,0,5,1.7,5,4.4A4.771,4.771,0,0,1,482.2,226.5Z" fill="url(#linear-gradient-2)"/>
    <path id="Tracé_246" data-name="Tracé 246" d="M547.2,205.1l-8.8,25.5-8.8-25.5H519.4a32.837,32.837,0,0,0,9.4-7.1V177.9H504.4v12.5h9.7v2.2a14.708,14.708,0,0,1-8.2,2.3c-7.3,0-12.2-5.6-12.2-12.5,0-7,4.9-12.5,12.2-12.5a10.2,10.2,0,0,1,9.2,5.5l12.8-6.5c-3.5-6.5-10.4-12.3-22-12.3-15.2,0-27.6,9.8-27.6,25.9,0,16,12.4,25.9,27.6,25.9a25.281,25.281,0,0,0,2.8-.1v47.2h15.2V223.9l11.2,31.6h6.8l11.2-31.6v31.6h15.2V205.4H547.2Z" fill="url(#linear-gradient-3)"/>
  </g>
</svg>
