<svg xmlns="http://www.w3.org/2000/svg" width="36.066" height="26.068" viewBox="0 0 36.066 26.068"><path d="M6.2,26.068A6.2,6.2,0,0,1,0,19.87V6.2A6.2,6.2,0,0,1,6.2,0h23.67a6.2,6.2,0,0,1,6.2,6.2V19.87a6.2,6.2,0,0,1-6.2,6.2ZM2.479,6.2V19.87A3.724,3.724,0,0,0,6.2,23.589h23.67a3.725,3.725,0,0,0,3.72-3.72V6.2a3.7,3.7,0,0,0-.554-1.95L18.7,13.672a1.245,1.245,0,0,1-1.363,0L3.027,4.258A3.7,3.7,0,0,0,2.479,6.2Zm15.544,4.953,12.971-8.5a3.709,3.709,0,0,0-1.127-.174H6.2a3.709,3.709,0,0,0-1.086.162Z" fill="#6f368c"/></svg>