<svg xmlns="http://www.w3.org/2000/svg" width="27.792" height="27.792" viewBox="0 0 27.792 27.792"><path d="M1017.236,790.175H996.051a3.3,3.3,0,0,0-3.3,3.3v21.2a3.3,3.3,0,0,0,3.3,3.3h21.185a3.3,3.3,0,0,0,3.3-3.3v-21.2A3.3,3.3,0,0,0,1017.236,790.175Zm-4.513,4.343a.869.869,0,0,1,.869-.869h2.605a.869.869,0,0,1,.869.869v2.605a.869.869,0,0,1-.869.869h-2.605a.87.87,0,0,1-.869-.869Zm-6.047,4.253a5.333,5.333,0,1,1-5.344,5.332A5.339,5.339,0,0,1,1006.675,798.771Zm11.259,15.722a.869.869,0,0,1-.869.869H996.221a.869.869,0,0,1-.869-.869V801.466h3.474a5.3,5.3,0,0,0-.606,2.637,8.455,8.455,0,0,0,16.91,0,4.447,4.447,0,0,0-.671-2.637h3.474Z" transform="translate(-992.747 -790.175)" fill="#6f368c"/></svg>