<svg xmlns="http://www.w3.org/2000/svg" width="28.964" height="26.423" viewBox="0 0 28.964 26.423"><path d="M21.784,25.423V16.485c0-2.338-.966-3.935-3.093-3.935a3.118,3.118,0,0,0-2.951,2.116,3.91,3.91,0,0,0-.134,1.41v9.346H9.484s.079-15.832,0-17.27h6.123v2.71c.361-1.185,2.318-2.876,5.44-2.876,3.874,0,6.917,2.485,6.917,7.833v9.6Zm-21.079,0V8.153h5.45v17.27ZM3.252,5.992A3.013,3.013,0,0,1,0,3,3.044,3.044,0,0,1,3.329,0,3.026,3.026,0,0,1,6.616,2.993a3.037,3.037,0,0,1-3.325,3Z" transform="translate(0.5 0.5)" fill="#6f368c" stroke="rgba(0,0,0,0)" stroke-miterlimit="10" stroke-width="1"/></svg>