<svg xmlns="http://www.w3.org/2000/svg" width="81.398" height="29.195" viewBox="0 0 81.398 29.195"><g transform="translate(0.662 0.5)"><path d="M80.236,28.2h-80V13.418h80V28.195ZM45.945,17.905l1.989,5.53h1.029l2.024-5.53h-1.1l-1.43,3.929-1.415-3.929Zm21.533,0h0v5.53h3.06V22.4h-2V20.948h2V19.935h-2v-1h2V17.905h-3.06Zm-39,0h0v5.53H29.54v-5.53H28.477ZM9.49,17.9h0v5.53h2.625v-1H10.557V17.905H9.49ZM3.2,11.609a3.12,3.12,0,0,1-1.752-.524A4.794,4.794,0,0,1,0,9.313l.9-.549c.626,1.19,1.364,1.793,2.191,1.793a2.036,2.036,0,0,0,1-.257,1.773,1.773,0,0,0,.958-1.587A1.886,1.886,0,0,0,4.695,7.64,8.8,8.8,0,0,0,2.881,5.9,9.586,9.586,0,0,1,1.23,4.417,2.791,2.791,0,0,1,.669,2.755,2.561,2.561,0,0,1,1,1.465,2.34,2.34,0,0,1,1.935.544a2.649,2.649,0,0,1,1.3-.337,2.762,2.762,0,0,1,1.4.383,4.783,4.783,0,0,1,1.38,1.4l-.866.67A4.122,4.122,0,0,0,4.135,1.592a1.689,1.689,0,0,0-.916-.262,1.434,1.434,0,0,0-1.047.4,1.329,1.329,0,0,0-.409.982,1.661,1.661,0,0,0,.148.69,2.516,2.516,0,0,0,.522.72c.157.15.655.545,1.367,1.083A7.848,7.848,0,0,1,5.687,7.056,3.018,3.018,0,0,1,6.2,8.688a2.8,2.8,0,0,1-.876,2.05A2.9,2.9,0,0,1,3.2,11.609Zm72.827-.065a3.709,3.709,0,0,1-3-1.29,4.487,4.487,0,0,1-.166-5.631A3.727,3.727,0,0,1,75.969,3.1a3.845,3.845,0,0,1,3.2,1.557A4.426,4.426,0,0,1,80.035,7.4H72.983A3.323,3.323,0,0,0,73.854,9.7a2.756,2.756,0,0,0,2.085.9,3.322,3.322,0,0,0,1.163-.211,3.02,3.02,0,0,0,.961-.569,4.828,4.828,0,0,0,.857-1.138l.851.458a4.787,4.787,0,0,1-.967,1.36,3.874,3.874,0,0,1-1.229.786A4.313,4.313,0,0,1,76.025,11.544ZM75.984,4.09A2.862,2.862,0,0,0,74,4.85a3.46,3.46,0,0,0-.916,1.662h5.838a3.482,3.482,0,0,0-.585-1.324,2.806,2.806,0,0,0-1.023-.8A3.067,3.067,0,0,0,75.984,4.09ZM42.469,11.544a4.225,4.225,0,0,1-3.082-1.209,4.006,4.006,0,0,1-1.224-2.947,4.306,4.306,0,0,1,.569-2.166A4.113,4.113,0,0,1,40.31,3.661,4.514,4.514,0,0,1,42.546,3.1a4.729,4.729,0,0,1,1.5.242,4.219,4.219,0,0,1,1.23.635,3.416,3.416,0,0,1,.857,1l-.8.509A3.34,3.34,0,0,0,42.5,4.075a3.251,3.251,0,0,0-2.376.947,3.136,3.136,0,0,0-.942,2.292,3.334,3.334,0,0,0,.432,1.652,3.16,3.16,0,0,0,1.194,1.2,3.546,3.546,0,0,0,4.519-.982l.8.539a3.8,3.8,0,0,1-1.507,1.345A4.657,4.657,0,0,1,42.469,11.544Zm-11.862,0a3.714,3.714,0,0,1-3-1.29,4.425,4.425,0,0,1-1.082-2.911,4.37,4.37,0,0,1,.918-2.72A3.714,3.714,0,0,1,30.552,3.1a3.844,3.844,0,0,1,3.2,1.557A4.435,4.435,0,0,1,34.617,7.4H27.567a3.333,3.333,0,0,0,.87,2.292,2.76,2.76,0,0,0,2.086.9,3.322,3.322,0,0,0,1.163-.211,3.065,3.065,0,0,0,.962-.569A4.771,4.771,0,0,0,33.5,8.673l.852.458a4.738,4.738,0,0,1-.967,1.36,3.9,3.9,0,0,1-1.229.786A4.31,4.31,0,0,1,30.608,11.544ZM30.562,4.09a2.849,2.849,0,0,0-1.978.761,3.465,3.465,0,0,0-.918,1.662H33.5a3.44,3.44,0,0,0-.584-1.324,2.81,2.81,0,0,0-1.023-.8A3.074,3.074,0,0,0,30.562,4.09ZM14,11.544a3.709,3.709,0,0,1-3-1.29A4.423,4.423,0,0,1,9.928,7.344a4.375,4.375,0,0,1,.912-2.72A3.727,3.727,0,0,1,13.947,3.1a3.845,3.845,0,0,1,3.2,1.557A4.43,4.43,0,0,1,18.013,7.4H10.96A3.3,3.3,0,0,0,11.837,9.7a2.733,2.733,0,0,0,2.079.9,3.329,3.329,0,0,0,1.165-.211,3.02,3.02,0,0,0,.961-.569A4.837,4.837,0,0,0,16.9,8.673l.846.458a4.841,4.841,0,0,1-.962,1.36,3.947,3.947,0,0,1-1.234.786A4.313,4.313,0,0,1,14,11.544ZM13.962,4.09a2.862,2.862,0,0,0-1.984.761,3.443,3.443,0,0,0-.916,1.662H16.9a3.541,3.541,0,0,0-.59-1.324,2.806,2.806,0,0,0-1.023-.8A3.036,3.036,0,0,0,13.962,4.09Zm51.214,7.248h-.188l-3.61-8.029h1.077l2.629,5.853,2.594-5.853h1.082l-3.586,8.028Zm-7.183,0H56.981V3.309h1.012v8.028Zm-6,0H50.982V4.2H49.606V3.309h1.376V.327H51.99V3.309h1.6V4.2h-1.6v7.136Zm-29.207,0h-1.01V.207h1.01v11.13Zm34.7-9.63a.777.777,0,0,1-.58-.252.839.839,0,0,1-.247-.6.861.861,0,0,1,.247-.6A.777.777,0,0,1,57.485,0a.794.794,0,0,1,.588.252.849.849,0,0,1,.242.6.827.827,0,0,1-.242.6A.794.794,0,0,1,57.485,1.707Z" transform="translate(0 0)" fill="#6f368c" stroke="rgba(0,0,0,0)" stroke-miterlimit="10" stroke-width="1"/></g></svg>