<svg id="Logo_BIG_CRM_Violet" data-name="Logo BIG CRM Violet" xmlns="http://www.w3.org/2000/svg" xmlns:xlink="http://www.w3.org/1999/xlink" width="235.4" height="235.4" viewBox="0 0 235.4 235.4">
  <defs>
    <linearGradient id="linear-gradient" y1="0.5" x2="1" y2="0.5" gradientUnits="objectBoundingBox">
      <stop offset="0" stop-color="#82368c"/>
      <stop offset="1" stop-color="#27348b"/>
    </linearGradient>
  </defs>
  <g id="Groupe_203" data-name="Groupe 203">
    <circle id="Ellipse_48" data-name="Ellipse 48" cx="117.7" cy="117.7" r="117.7" fill="url(#linear-gradient)"/>
    <g id="Groupe_195" data-name="Groupe 195" transform="translate(41.6 66.2)">
      <path id="Tracé_260" data-name="Tracé 260" d="M429.9,531.5a10.8,10.8,0,0,1,10.1,7.3l13.1-6.1a23.65,23.65,0,0,0-11.5-12.2,12.94,12.94,0,0,0,10.2-13.1c0-6.5-4.1-11.4-9.5-12.2,4.9-1.1,8.6-5.3,8.6-11.5,0-5.9-4.5-12.8-14.9-12.8H405.6V521h11.3c-8.4,4.1-14,12.4-14,23,0,15.4,11.9,25.9,27.2,25.9,13.5,0,20.2-8,23.1-14.6l-13.1-6a10.8,10.8,0,0,1-10.1,7.3c-6.9,0-11.8-5.6-11.8-12.5C418.1,537,423,531.5,429.9,531.5Zm-9.3-48.2h11.7a3.154,3.154,0,0,1,0,6.3H420.6Zm0,18.6h12.2a3.414,3.414,0,0,1,3.5,3.5,3.337,3.337,0,0,1-3.5,3.4H420.6Z" transform="translate(-402.9 -470.4)" fill="#fff"/>
      <path id="Tracé_261" data-name="Tracé 261" d="M502.5,536.1c0-9.4-6.3-17.2-18-17.2H472.9v-48H457.7V569h15.2V553h5.5l6.9,16.1h17.3l-9.1-17.7C497.5,549.4,502.5,544.8,502.5,536.1Zm-20.3,4.2H473v-8.8h9.2c2.6,0,5,1.7,5,4.4C487.1,538.7,484.7,540.3,482.2,540.3Z" transform="translate(-402.9 -470.4)" fill="#fff"/>
      <path id="Tracé_262" data-name="Tracé 262" d="M547.2,518.9l-8.8,25.5-8.8-25.5H519.4a32.837,32.837,0,0,0,9.4-7.1V491.7H504.4v12.5h9.7v2.2a14.708,14.708,0,0,1-8.2,2.3c-7.3,0-12.2-5.6-12.2-12.5,0-7,4.9-12.5,12.2-12.5a10.2,10.2,0,0,1,9.2,5.5l12.8-6.5c-3.5-6.5-10.4-12.3-22-12.3-15.2,0-27.6,9.8-27.6,25.9,0,16,12.4,25.9,27.6,25.9a25.289,25.289,0,0,0,2.8-.1V569h15.2V537.4L535.1,569h6.8l11.2-31.6V569h15.2V518.9Z" transform="translate(-402.9 -470.4)" fill="#fff"/>
    </g>
  </g>
</svg>
