<svg xmlns="http://www.w3.org/2000/svg" width="27.829" height="27.829" viewBox="0 0 27.829 27.829"><path d="M377.859,816.951a1.536,1.536,0,0,1-1.536,1.536h-7.092V807.71h3.617l.542-4.2h-4.159v-2.681c0-1.216.338-2.045,2.082-2.045h2.224v-3.756a29.6,29.6,0,0,0-3.241-.166c-3.207,0-5.4,1.957-5.4,5.552v3.1h-3.626v4.2h3.626v10.777H351.566a1.536,1.536,0,0,1-1.536-1.536V792.194a1.536,1.536,0,0,1,1.536-1.536h24.757a1.536,1.536,0,0,1,1.536,1.536Z" transform="translate(-350.03 -790.658)" fill="#6f368c"/></svg>