<?xml version="1.0" standalone="no"?>
<!DOCTYPE svg PUBLIC "-//W3C//DTD SVG 1.1//EN" "http://www.w3.org/Graphics/SVG/1.1/DTD/svg11.dtd" >
<svg xmlns="http://www.w3.org/2000/svg" xmlns:xlink="http://www.w3.org/1999/xlink" version="1.1">
<metadata>
Created by FontForge 20170731 at Mon Jul 24 13:10:38 2023
 By Aleksey,,,
Copyright (c) 2020 Miles Newlyn. All rights reserved.
</metadata>
<defs>
<font id="NewOrder-SemiBold" horiz-adv-x="1314" >
  <font-face 
    font-family="New Order SemiBold"
    font-weight="600"
    font-stretch="normal"
    units-per-em="2048"
    panose-1="0 0 0 0 0 0 0 0 0 0"
    ascent="1638"
    descent="-410"
    x-height="1083"
    cap-height="1503"
    bbox="-354 -408 2367 2079"
    underline-thickness="102"
    underline-position="-358"
    unicode-range="U+0020-FB02"
  />
<missing-glyph horiz-adv-x="1654" 
d="M166 -406v1987h1321v-1987h-1321zM432 68l672 1259h-672v-1259zM551 -152h670v1256z" />
    <glyph glyph-name="fi" unicode="fi" horiz-adv-x="1159" 
d="M195 1235q0 162 92 254t260 92h78v-235h-39q-72 0 -104.5 -33t-32.5 -105v-125h141v-229h-141v-854h-254v854h-129v229h129v152zM778 1264v317h254v-317h-254zM780 0v1083h254v-1083h-254z" />
    <glyph glyph-name="fl" unicode="fl" horiz-adv-x="1159" 
d="M195 1235q0 162 92 254t260 92h78v-235h-39q-72 0 -104.5 -33t-32.5 -105v-125h141v-229h-141v-854h-254v854h-129v229h129v152zM780 0v1581h254v-1581h-254z" />
    <glyph glyph-name=".notdef" horiz-adv-x="1654" 
d="M166 -406v1987h1321v-1987h-1321zM432 68l672 1259h-672v-1259zM551 -152h670v1256z" />
    <glyph glyph-name=".null" horiz-adv-x="0" 
 />
    <glyph glyph-name="nonmarkingreturn" horiz-adv-x="682" 
 />
    <glyph glyph-name="space" unicode=" " horiz-adv-x="495" 
 />
    <glyph glyph-name="exclam" unicode="!" horiz-adv-x="550" 
d="M150 0v274h251v-274h-251zM150 1503h253l-16 -1040h-223z" />
    <glyph glyph-name="quotedbl" unicode="&#x22;" horiz-adv-x="825" 
d="M145 909l-36 594h243l-30 -594h-177zM473 1503h244l-37 -594h-176z" />
    <glyph glyph-name="numbersign" unicode="#" horiz-adv-x="1382" 
d="M178 0l82 393h-170v215h215l62 303h-195v215h240l77 377h224l-78 -377h268l78 377h223l-78 -377h168v-215h-213l-61 -303h192v-215h-237l-82 -393h-223l82 393h-269l-82 -393h-223zM528 608h269l61 303h-268z" />
    <glyph glyph-name="dollar" unicode="$" horiz-adv-x="1196" 
d="M535 -104v137q-161 19 -278.5 111.5t-162.5 240.5l213 100q60 -190 228 -231v428l-121 51q-279 120 -279 363q0 156 109.5 261t290.5 122v125h139v-127q139 -17 240.5 -90t158.5 -197l-209 -113q-63 145 -190 174v-377l92 -36q159 -63 241.5 -165.5t82.5 -236.5
q0 -163 -114 -274.5t-302 -130.5v-135h-139zM381 1108q0 -113 147 -174l7 -2v325q-73 -10 -113.5 -50t-40.5 -99zM674 250q77 14 121.5 60.5t44.5 113.5q0 126 -166 197v-371z" />
    <glyph glyph-name="percent" unicode="%" horiz-adv-x="1710" 
d="M207 0l1020 1495h272l-1020 -1495h-272zM70 1165q0 161 101 259t263 98t263.5 -98.5t101.5 -258.5t-101.5 -258t-263.5 -98t-263 98t-101 258zM283 1165q0 -67 41.5 -108t109.5 -41q66 0 108 41t42 108t-42 108.5t-108 41.5q-68 0 -109.5 -41.5t-41.5 -108.5zM913 338
q0 161 101.5 259.5t263.5 98.5t263 -98.5t101 -259.5q0 -159 -101 -257.5t-263 -98.5t-263.5 98.5t-101.5 257.5zM1128 338q0 -67 42 -108.5t108 -41.5t107.5 41.5t41.5 108.5t-41.5 108t-107.5 41t-108 -41t-42 -108z" />
    <glyph glyph-name="ampersand" unicode="&#x26;" horiz-adv-x="1445" 
d="M549 -18q-213 0 -342 122.5t-129 321.5q0 156 84.5 270t230.5 168q-96 149 -96 285q0 177 123.5 275t343.5 98q95 0 225 -19v-229q-120 18 -207 18q-117 0 -171 -38.5t-54 -116.5q0 -51 25 -102.5t84 -123.5l325 -403q115 169 193 383l217 -109q-107 -259 -262 -456
l264 -326h-330l-110 139q-181 -157 -414 -157zM332 442q0 -103 66.5 -165t174.5 -62q140 0 250 98l-295 371q-91 -27 -143.5 -89.5t-52.5 -152.5z" />
    <glyph glyph-name="quotesingle" unicode="'" horiz-adv-x="483" 
d="M145 909l-36 594h266l-39 -594h-191z" />
    <glyph glyph-name="parenleft" unicode="(" horiz-adv-x="671" 
d="M360 -313q-270 414 -270 948q0 532 270 946h277q-283 -446 -283 -946q0 -505 283 -948h-277z" />
    <glyph glyph-name="parenright" unicode=")" horiz-adv-x="671" 
d="M35 -313q282 441 282 948q0 502 -282 946h276q271 -416 271 -946q0 -532 -271 -948h-276z" />
    <glyph glyph-name="asterisk" unicode="*" horiz-adv-x="1077" 
d="M205 811l192 236l-295 77l66 199l285 -113l-19 306h209l-18 -306l284 113l64 -199l-295 -77l194 -236l-170 -123l-163 256l-166 -256z" />
    <glyph glyph-name="plus" unicode="+" horiz-adv-x="1105" 
d="M426 258v326h-303v237h303v326h254v-326h303v-237h-303v-326h-254z" />
    <glyph glyph-name="comma" unicode="," horiz-adv-x="520" 
d="M57 -313l88 594h269l-170 -594h-187z" />
    <glyph glyph-name="hyphen" unicode="-" horiz-adv-x="802" 
d="M123 549v239h559v-239h-559z" />
    <glyph glyph-name="period" unicode="." horiz-adv-x="495" 
d="M121 0v274h254v-274h-254z" />
    <glyph glyph-name="slash" unicode="/" horiz-adv-x="952" 
d="M51 -313l588 1894h262l-588 -1894h-262z" />
    <glyph glyph-name="zero" unicode="0" horiz-adv-x="1327" 
d="M664 -29q-266 0 -412 203t-146 578t146.5 577.5t411.5 202.5t411 -202.5t146 -577.5t-146 -578t-411 -203zM379 752q0 -256 74 -390.5t211 -134.5t210.5 134t73.5 391q0 256 -74 391t-210 135q-137 0 -211 -134.5t-74 -391.5z" />
    <glyph glyph-name="one" unicode="1" horiz-adv-x="647" 
d="M215 0v1249h-123v254h389v-1503h-266z" />
    <glyph glyph-name="two" unicode="2" horiz-adv-x="1150" 
d="M737 565l-274 -319h584v-246h-957v193l471 542q4 5 35.5 42t41 49t35.5 45.5t36 53.5t25 49.5t20.5 56t5.5 52.5q0 78 -53.5 134.5t-141.5 56.5q-90 0 -152.5 -58.5t-86.5 -171.5l-242 66q38 197 168 305.5t323 108.5q204 0 329.5 -118.5t125.5 -301.5q0 -37 -5 -73
t-18 -71.5t-23.5 -63t-34 -64t-36.5 -56.5t-44 -57.5t-42.5 -51.5t-46.5 -53.5t-43 -48.5z" />
    <glyph glyph-name="three" unicode="3" horiz-adv-x="1222" 
d="M606 -12q-205 0 -349.5 107.5t-184.5 318.5l250 73q21 -126 97.5 -193t186.5 -67q112 0 180 62t68 162q0 99 -66 157t-180 58h-106v227h78q103 0 165 55t62 142q0 85 -59 138.5t-154 53.5t-160.5 -61t-91.5 -174l-240 57q42 198 172.5 307t319.5 109q214 0 342.5 -110.5
t128.5 -285.5q0 -108 -50.5 -193.5t-140.5 -131.5q118 -40 184 -136t66 -227q0 -198 -144 -323t-374 -125z" />
    <glyph glyph-name="four" unicode="4" horiz-adv-x="1224" 
d="M743 0v223h-692v193l678 1087h262v-1050h148v-230h-148v-223h-248zM344 453h399v647z" />
    <glyph glyph-name="five" unicode="5" horiz-adv-x="1202" 
d="M584 -12q-208 0 -349 113t-172 307l250 59q17 -113 88 -176.5t177 -63.5q114 0 182.5 68.5t68.5 185.5q0 116 -66.5 184t-180.5 68q-130 0 -213 -102l-219 57l114 815h797v-239h-572l-55 -346q98 43 211 43q206 0 332.5 -131t126.5 -343q0 -225 -143.5 -362t-376.5 -137z
" />
    <glyph glyph-name="six" unicode="6" horiz-adv-x="1206" 
d="M614 -14q-234 0 -380 141.5t-146 368.5q0 116 40 228.5t122 248.5l317 530h305q-178 -254 -337 -522q57 16 133 16q214 0 347.5 -136t133.5 -353q0 -230 -149.5 -376t-385.5 -146zM356 498q0 -120 73.5 -196.5t188.5 -76.5q117 0 190 76.5t73 198.5q0 123 -72 198.5
t-188 75.5q-117 0 -191 -77t-74 -199z" />
    <glyph glyph-name="seven" unicode="7" horiz-adv-x="1036" 
d="M145 0l537 1249h-633v254h940v-194l-555 -1309h-289z" />
    <glyph glyph-name="eight" unicode="8" horiz-adv-x="1263" 
d="M633 -14q-244 0 -390.5 125.5t-146.5 324.5q0 132 65.5 229t182.5 142q-88 43 -137 125.5t-49 189.5q0 179 129.5 289.5t345.5 110.5t345.5 -110.5t129.5 -289.5q0 -107 -49.5 -190t-138.5 -127q117 -45 182 -141t65 -228q0 -199 -145 -324.5t-389 -125.5zM373 451
q0 -100 69 -162t191 -62t190 61.5t68 162.5q0 103 -69 163t-189 60q-121 0 -190.5 -60t-69.5 -163zM416 1092q0 -86 60 -141.5t157 -55.5q96 0 156.5 56t60.5 141t-59.5 138.5t-157.5 53.5q-99 0 -158 -53t-59 -139z" />
    <glyph glyph-name="nine" unicode="9" horiz-adv-x="1206" 
d="M592 1518q234 0 380 -141.5t146 -368.5q0 -116 -40.5 -229t-121.5 -249l-317 -530h-305q185 262 338 522q-57 -16 -133 -16q-214 0 -348 136t-134 353q0 230 149.5 376.5t385.5 146.5zM326 1004q0 -123 72 -199t188 -76q117 0 190.5 77.5t73.5 199.5q0 120 -73 196
t-189 76q-117 0 -189.5 -76t-72.5 -198z" />
    <glyph glyph-name="colon" unicode=":" horiz-adv-x="505" 
d="M125 809v274h254v-274h-254zM125 0v274h254v-274h-254z" />
    <glyph glyph-name="semicolon" unicode=";" horiz-adv-x="575" 
d="M84 -313l88 594h268l-170 -594h-186zM174 809v274h254v-274h-254z" />
    <glyph glyph-name="less" unicode="&#x3c;" horiz-adv-x="1105" 
d="M971 166l-854 346v309l854 346v-241l-643 -258l643 -258v-244z" />
    <glyph glyph-name="equal" unicode="=" horiz-adv-x="1105" 
d="M123 795v215h860v-215h-860zM123 393v215h860v-215h-860z" />
    <glyph glyph-name="greater" unicode="&#x3e;" horiz-adv-x="1105" 
d="M135 166v242l643 258l-643 258v243l854 -346v-309z" />
    <glyph glyph-name="question" unicode="?" horiz-adv-x="1110" 
d="M420 522q0 84 31 148t94 129l110 110q78 84 78 172q0 82 -52.5 137.5t-141.5 55.5q-90 0 -153 -58.5t-87 -171.5l-242 66q38 197 168 305.5t324 108.5q204 0 328 -117.5t124 -298.5q0 -201 -172 -358l-104 -97q-43 -38 -59.5 -72.5t-16.5 -76.5v-41h-229v59zM408 0v274
h254v-274h-254z" />
    <glyph glyph-name="at" unicode="@" horiz-adv-x="1718" 
d="M874 -236q-173 0 -321.5 58.5t-252 161t-162 247t-58.5 310.5q0 223 100.5 401t279 278.5t402.5 100.5q225 0 399 -96t269.5 -269t95.5 -395q0 -207 -81.5 -311.5t-221.5 -104.5q-84 0 -139 36.5t-76 101.5q-42 -64 -114.5 -98.5t-157.5 -34.5q-162 0 -272.5 112
t-110.5 283t109.5 283t268.5 112q76 0 142 -28.5t104 -80.5l2 80h162v-467q0 -57 22.5 -87.5t65.5 -30.5q109 0 109 215q0 266 -159.5 426.5t-416.5 160.5q-252 0 -416.5 -166t-164.5 -421q0 -258 167.5 -423t438.5 -165q93 0 219 24v-190q-135 -23 -232 -23zM655 545
q0 -91 56 -148t143 -57t141 56t54 149q0 94 -54 150.5t-141 56.5t-143 -57.5t-56 -149.5z" />
    <glyph glyph-name="A" unicode="A" horiz-adv-x="1339" 
d="M29 0l510 1503h260l514 -1503h-279l-88 272h-557l-86 -272h-274zM463 504h409l-206 637z" />
    <glyph glyph-name="B" unicode="B" horiz-adv-x="1263" 
d="M166 0v1503h450q232 0 366 -104t134 -287q0 -113 -51 -196t-145 -128q119 -40 183 -132t64 -224q0 -197 -138.5 -314.5t-369.5 -117.5h-493zM432 236h227q113 0 175.5 54t62.5 156q0 101 -63.5 155t-180.5 54h-221v-419zM432 889h203q104 0 162.5 51t58.5 139
q0 89 -58.5 139t-162.5 50h-203v-379z" />
    <glyph glyph-name="C" unicode="C" horiz-adv-x="1185" 
d="M883 -18q-230 0 -410.5 96t-282.5 272t-102 402t102 402t282.5 272t410.5 96q101 0 215 -19v-246q-115 21 -199 21q-241 0 -387.5 -144t-146.5 -382q0 -237 146.5 -382t387.5 -145q84 0 199 21v-246q-108 -18 -215 -18z" />
    <glyph glyph-name="D" unicode="D" horiz-adv-x="1474" 
d="M166 0v1503h432q137 0 258.5 -33.5t217.5 -98.5t165.5 -156t107 -209t37.5 -254q0 -226 -100 -397.5t-278.5 -263t-407.5 -91.5h-432zM432 254h166q231 0 370.5 133.5t139.5 364.5t-139.5 364t-370.5 133h-166v-995z" />
    <glyph glyph-name="E" unicode="E" horiz-adv-x="1112" 
d="M166 0v1503h813v-248h-547v-362h541v-248h-541v-397h557v-248h-823z" />
    <glyph glyph-name="F" unicode="F" horiz-adv-x="1075" 
d="M166 0v1503h815v-248h-549v-370h535v-250h-535v-635h-266z" />
    <glyph glyph-name="G" unicode="G" horiz-adv-x="1679" 
d="M864 -29q-217 0 -394 98.5t-279.5 278t-102.5 404.5t102 404t279.5 277.5t396.5 98.5q366 0 592 -258l-192 -184q-71 88 -176 138t-224 50q-221 0 -362.5 -148t-141.5 -380q0 -233 142.5 -380t359.5 -147q189 0 313.5 110t143.5 290h-508v235h789v-104
q0 -234 -93.5 -412.5t-260.5 -274.5t-384 -96z" />
    <glyph glyph-name="H" unicode="H" horiz-adv-x="1433" 
d="M1001 0v641h-569v-641h-266v1503h266v-608h569v608h267v-1503h-267z" />
    <glyph glyph-name="I" unicode="I" horiz-adv-x="598" 
d="M166 0v1503h266v-1503h-266z" />
    <glyph glyph-name="J" unicode="J" horiz-adv-x="765" 
d="M45 -14v254h102q106 0 151.5 46t45.5 156v1061h266v-1061q0 -224 -110.5 -340t-321.5 -116h-133z" />
    <glyph glyph-name="K" unicode="K" horiz-adv-x="1257" 
d="M936 0l-504 672v-672h-266v1503h266v-614l481 606h318l-561 -704l594 -791h-328z" />
    <glyph glyph-name="L" unicode="L" horiz-adv-x="1013" 
d="M166 0v1503h266v-1255h549v-248h-815z" />
    <glyph glyph-name="M" unicode="M" horiz-adv-x="1816" 
d="M166 0v1503h268l477 -827l475 827h265v-1503h-254v1049l-406 -711h-164l-409 713v-1051h-252z" />
    <glyph glyph-name="N" unicode="N" horiz-adv-x="1470" 
d="M166 0v1503h248l637 -1026v1026h252v-1503h-246l-639 1024v-1024h-252z" />
    <glyph glyph-name="O" unicode="O" horiz-adv-x="1732" 
d="M866 -29q-216 0 -393.5 98.5t-281 278t-103.5 404.5q0 169 60.5 315t164.5 247.5t247.5 159.5t305.5 58t305.5 -58t248 -159.5t165 -247.5t60.5 -315t-60.5 -315t-165 -248t-248 -160t-305.5 -58zM365 752q0 -114 38.5 -212.5t105.5 -167t159.5 -107t197.5 -38.5
q214 0 358 147.5t144 377.5t-144 378t-358 148q-141 0 -255 -66t-180 -186.5t-66 -273.5z" />
    <glyph glyph-name="P" unicode="P" horiz-adv-x="1185" 
d="M166 0v1503h452q239 0 378 -125t139 -342q0 -210 -140 -334t-377 -124h-186v-578h-266zM432 821h186q117 0 181.5 57t64.5 158q0 102 -65 159.5t-181 57.5h-186v-432z" />
    <glyph glyph-name="Q" unicode="Q" horiz-adv-x="1732" 
d="M860 0q-223 0 -398 94.5t-273.5 268t-98.5 397.5q0 169 60.5 314.5t164 245t245 156t300.5 56.5t300 -56t243.5 -154t162.5 -238t60 -300q0 -179 -69 -321.5t-189 -237.5h256v-225h-764zM367 760q0 -227 140.5 -369.5t352.5 -142.5q213 0 353.5 141.5t140.5 370.5
q0 152 -67 271t-179 183t-248 64t-248 -64t-178.5 -183t-66.5 -271z" />
    <glyph glyph-name="R" unicode="R" horiz-adv-x="1245" 
d="M887 0l-455 633v-633h-266v1503h459q230 0 360.5 -115.5t130.5 -328.5q0 -165 -105 -277.5t-288 -138.5l487 -643h-323zM432 844h178q109 0 171.5 58t62.5 157t-62 156t-172 57h-178v-428z" />
    <glyph glyph-name="S" unicode="S" horiz-adv-x="993" 
d="M385 -18q-110 0 -266 18v252q164 -16 260 -16q137 0 202.5 44t65.5 136q0 61 -35.5 111.5t-122.5 107.5l-159 102q-232 152 -232 385q0 188 130.5 294t361.5 106q88 0 221 -19v-237q-148 18 -213 18q-233 0 -233 -154q0 -53 32.5 -97t106.5 -91l139 -90
q141 -91 206.5 -195.5t65.5 -236.5q0 -209 -138.5 -323.5t-391.5 -114.5z" />
    <glyph glyph-name="T" unicode="T" horiz-adv-x="1048" 
d="M391 0v1255h-360v248h987v-248h-361v-1255h-266z" />
    <glyph glyph-name="U" unicode="U" horiz-adv-x="1400" 
d="M698 -29q-259 0 -402.5 157t-143.5 443v932h266v-913q0 -181 71 -273t209 -92q140 0 212.5 92.5t72.5 272.5v913h266v-932q0 -286 -145 -443t-406 -157z" />
    <glyph glyph-name="V" unicode="V" horiz-adv-x="1308" 
d="M524 0l-493 1503h286l345 -1118l339 1118h277l-492 -1503h-262z" />
    <glyph glyph-name="W" unicode="W" horiz-adv-x="2082" 
d="M449 0l-402 1503h275l276 -1083l320 1083h249l330 -1087l268 1087h269l-398 -1503h-262l-332 1077l-331 -1077h-262z" />
    <glyph glyph-name="X" unicode="X" horiz-adv-x="1239" 
d="M928 0l-312 528l-311 -528h-282l450 768l-432 735h297l285 -483l282 483h283l-424 -723l459 -780h-295z" />
    <glyph glyph-name="Y" unicode="Y" horiz-adv-x="1255" 
d="M498 0v590l-473 913h301l307 -626l305 626h281l-455 -913v-590h-266z" />
    <glyph glyph-name="Z" unicode="Z" horiz-adv-x="1138" 
d="M37 0v35l643 1214h-586l45 254h944v-35l-641 -1214h631l-43 -254h-993z" />
    <glyph glyph-name="bracketleft" unicode="[" horiz-adv-x="700" 
d="M154 -313v1894h485v-229h-231v-1436h231v-229h-485z" />
    <glyph glyph-name="backslash" unicode="\" horiz-adv-x="956" 
d="M639 -313l-588 1894h266l588 -1894h-266z" />
    <glyph glyph-name="bracketright" unicode="]" horiz-adv-x="700" 
d="M547 -313h-486v229h232v1436h-232v229h486v-1894z" />
    <glyph glyph-name="asciicircum" unicode="^" horiz-adv-x="995" 
d="M66 961l294 542h275l295 -542h-246l-188 346l-189 -346h-241z" />
    <glyph glyph-name="underscore" unicode="_" horiz-adv-x="1015" 
d="M76 -307v223h864v-223h-864z" />
    <glyph glyph-name="grave" unicode="`" horiz-adv-x="1038" 
d="M549 1243l-287 338h297l217 -338h-227z" />
    <glyph glyph-name="a" unicode="a" 
d="M610 -20q-110 0 -208.5 41.5t-171.5 114.5t-115.5 178.5t-42.5 226.5q0 122 42.5 228t115.5 179t171.5 114.5t208.5 41.5q107 0 200 -39.5t151 -112.5l2 131h225v-1083h-225l-2 131q-58 -72 -151 -111.5t-200 -39.5zM326 541q0 -145 89.5 -236.5t227.5 -91.5
q133 0 221 88.5t88 239.5q0 152 -88 240.5t-221 88.5q-138 0 -227.5 -91.5t-89.5 -237.5z" />
    <glyph glyph-name="b" unicode="b" 
d="M705 -20q-107 0 -201 40t-150 111l-2 -131h-225v1581h254v-348q0 -133 -6 -256q58 61 145 94t185 33q109 0 207.5 -41.5t171.5 -114.5t116 -179t43 -228q0 -121 -43 -226.5t-116 -178.5t-171.5 -114.5t-207.5 -41.5zM362 541q0 -151 88 -239.5t222 -88.5q137 0 226 91.5
t89 236.5q0 147 -88.5 238t-226.5 91q-135 0 -222.5 -88t-87.5 -241z" />
    <glyph glyph-name="c" unicode="c" horiz-adv-x="886" 
d="M637 -16q-249 0 -407 154.5t-158 402.5q0 247 158.5 402t406.5 155q54 0 172 -15v-231q-85 12 -143 12q-157 0 -248.5 -89.5t-91.5 -233.5q0 -145 91 -233.5t249 -88.5q48 0 143 10v-231q-88 -14 -172 -14z" />
    <glyph glyph-name="d" unicode="d" 
d="M610 -20q-110 0 -208.5 41.5t-171.5 114.5t-115.5 178.5t-42.5 226.5q0 122 42.5 228t115.5 179t171.5 114.5t208.5 41.5q98 0 184 -33t146 -94q-6 117 -6 242v362h254v-1581h-225l-2 131q-58 -72 -151 -111.5t-200 -39.5zM326 541q0 -145 89.5 -236.5t227.5 -91.5
q133 0 221 88.5t88 239.5q0 152 -88 240.5t-221 88.5q-138 0 -227.5 -91.5t-89.5 -237.5z" />
    <glyph glyph-name="e" unicode="e" horiz-adv-x="1220" 
d="M637 -25q-251 0 -408 158.5t-157 405.5t157.5 407t393.5 160q110 0 206 -38t170.5 -112t113.5 -195.5t30 -275.5h-834q15 -130 106 -210t228 -80q207 0 330 180l168 -133q-84 -123 -212 -195t-292 -72zM317 668h586q-23 112 -97.5 170.5t-184.5 58.5q-112 0 -194 -63
t-110 -166z" />
    <glyph glyph-name="f" unicode="f" horiz-adv-x="653" 
d="M195 1235q0 162 92 254t260 92h78v-235h-39q-72 0 -104.5 -33t-32.5 -105v-125h141v-229h-141v-854h-254v854h-129v229h129v152z" />
    <glyph glyph-name="g" unicode="g" 
d="M348 -408v230h242q173 0 263 68t91 214v48q-54 -65 -139 -99.5t-191 -34.5q-150 0 -272.5 66t-195 190t-72.5 283q0 158 72.5 284t194.5 194.5t269 68.5q108 0 201.5 -39.5t151.5 -112.5l2 131h225v-956q0 -265 -159.5 -400t-446.5 -135h-236zM328 557
q0 -138 88.5 -225.5t226.5 -87.5q135 0 223 83.5t88 227.5q0 145 -88.5 230t-224.5 85q-137 0 -225 -87t-88 -226z" />
    <glyph glyph-name="h" unicode="h" horiz-adv-x="1142" 
d="M127 0v1581h254v-350q0 -88 -4 -236q96 113 272 113q180 0 279.5 -120.5t99.5 -338.5v-649h-254v633q0 117 -49.5 177t-144.5 60q-97 0 -148 -60t-51 -177v-633h-254z" />
    <glyph glyph-name="i" unicode="i" horiz-adv-x="505" 
d="M127 0v1083h254v-1083h-254zM127 1264v317h254v-317h-254z" />
    <glyph glyph-name="j" unicode="j" horiz-adv-x="505" 
d="M-59 -408v236h41q77 0 111 33t34 108v1114h254v-1124q0 -178 -95.5 -272.5t-279.5 -94.5h-65zM127 1264v317h254v-317h-254z" />
    <glyph glyph-name="k" unicode="k" horiz-adv-x="1032" 
d="M729 0l-348 479v-479h-254v1581h254v-928l344 430h289l-400 -510l420 -573h-305z" />
    <glyph glyph-name="l" unicode="l" horiz-adv-x="505" 
d="M127 0v1581h254v-1581h-254z" />
    <glyph glyph-name="m" unicode="m" horiz-adv-x="1714" 
d="M115 645q0 218 109.5 340.5t303.5 122.5q113 0 197 -42t131 -116q47 74 131.5 116t198.5 42q194 0 305 -122.5t111 -340.5v-645h-254v651q0 103 -47 161t-132 58q-88 0 -136 -59t-48 -168v-643h-254v643q0 108 -48.5 167.5t-135.5 59.5q-86 0 -132 -57.5t-46 -161.5v-651
h-254v645z" />
    <glyph glyph-name="n" unicode="n" horiz-adv-x="1128" 
d="M115 645q0 217 119 340t331 123q211 0 331 -123t120 -340v-645h-254v637q0 113 -51.5 173t-145.5 60q-95 0 -145.5 -59.5t-50.5 -173.5v-637h-254v645z" />
    <glyph glyph-name="o" unicode="o" horiz-adv-x="1277" 
d="M639 -29q-157 0 -286.5 73t-205 204t-75.5 293t75.5 292.5t205 202.5t286.5 72t286.5 -72t205 -202.5t75.5 -292.5t-75.5 -293t-205 -204t-286.5 -73zM326 541q0 -145 89 -237.5t224 -92.5t224 92.5t89 237.5t-89 237t-224 92t-224 -92t-89 -237z" />
    <glyph glyph-name="p" unicode="p" 
d="M127 -408v1491h225l2 -131q57 71 150.5 111.5t200.5 40.5q109 0 207.5 -41.5t171.5 -114.5t116 -179t43 -228q0 -121 -43 -226.5t-116 -178.5t-171.5 -114.5t-207.5 -41.5q-98 0 -185 32.5t-145 93.5q6 -123 6 -253v-261h-254zM362 541q0 -151 88 -239.5t222 -88.5
q137 0 226 91.5t89 236.5q0 147 -88.5 238t-226.5 91q-135 0 -222.5 -88t-87.5 -241z" />
    <glyph glyph-name="q" unicode="q" 
d="M1188 -408h-254v261q0 130 6 253q-58 -61 -145 -93.5t-185 -32.5q-109 0 -207.5 41.5t-171.5 114.5t-116 178.5t-43 226.5q0 122 43 228t116 179t171.5 114.5t207.5 41.5q107 0 200.5 -40.5t150.5 -111.5l2 131h225v-1491zM328 541q0 -145 89 -236.5t226 -91.5
q134 0 221.5 88.5t87.5 239.5q0 153 -87 241t-222 88q-138 0 -226.5 -91t-88.5 -238z" />
    <glyph glyph-name="r" unicode="r" horiz-adv-x="645" 
d="M119 717q0 366 358 366h131v-229h-106q-69 0 -99 -30.5t-30 -100.5v-723h-254v717z" />
    <glyph glyph-name="s" unicode="s" horiz-adv-x="786" 
d="M311 -14q-75 0 -215 14v219q115 -16 203 -16q84 0 124 24.5t40 75.5q0 39 -27 73t-92 79l-68 47q-100 69 -145 138.5t-45 158.5q0 140 99.5 219.5t277.5 79.5q79 0 170 -15v-200q-76 10 -137 10q-164 0 -164 -90q0 -30 26.5 -59.5t90.5 -71.5l65 -45q110 -75 159.5 -151
t49.5 -171q0 -151 -108.5 -235t-303.5 -84z" />
    <glyph glyph-name="t" unicode="t" horiz-adv-x="649" 
d="M195 0l2 854h-131v229h131v289l254 86v-375h133v-229h-133l-2 -854h-254z" />
    <glyph glyph-name="u" unicode="u" horiz-adv-x="1128" 
d="M1014 438q0 -217 -119.5 -340t-331.5 -123q-211 0 -330.5 123t-119.5 340v645h254v-637q0 -113 51 -173t145 -60q96 0 146.5 59.5t50.5 173.5v637h254v-645z" />
    <glyph glyph-name="v" unicode="v" horiz-adv-x="1095" 
d="M424 0l-410 1083h277l264 -747l262 747h262l-403 -1083h-252z" />
    <glyph glyph-name="w" unicode="w" horiz-adv-x="1722" 
d="M371 0l-344 1083h266l221 -745l238 745h235l232 -727l225 727h260l-361 -1083h-233l-246 727l-246 -727h-247z" />
    <glyph glyph-name="x" unicode="x" horiz-adv-x="1085" 
d="M14 0l381 549l-377 534h291l234 -348l241 348h279l-371 -536l383 -547h-289l-243 365l-242 -365h-287z" />
    <glyph glyph-name="y" unicode="y" horiz-adv-x="1118" 
d="M264 -408l178 453l-434 1038h283l284 -729l265 729h266l-576 -1491h-266z" />
    <glyph glyph-name="z" unicode="z" horiz-adv-x="966" 
d="M43 0v35l489 819h-456l35 229h798v-34l-489 -820h493l-36 -229h-834z" />
    <glyph glyph-name="braceleft" unicode="{" horiz-adv-x="804" 
d="M614 -313q-168 0 -260 92t-92 254v360q0 71 -29 104t-90 33h-108v236h108q61 0 90 32t29 103v334q0 162 92 254t260 92h134v-235h-95q-72 0 -104.5 -33t-32.5 -105v-317q0 -185 -131 -244q131 -56 131 -241v-349q0 -72 32.5 -103.5t104.5 -31.5h95v-235h-134z" />
    <glyph glyph-name="bar" unicode="|" horiz-adv-x="561" 
d="M154 -313v1894h254v-1894h-254z" />
    <glyph glyph-name="braceright" unicode="}" horiz-adv-x="804" 
d="M190 -313h-133v235h95q72 0 104.5 31.5t32.5 103.5v349q0 185 131 241q-131 59 -131 244v317q0 72 -32.5 105t-104.5 33h-95v235h133q168 0 260.5 -92t92.5 -254v-334q0 -71 29 -103t90 -32h108v-236h-108q-61 0 -90 -33t-29 -104v-360q0 -162 -92.5 -254t-260.5 -92z
" />
    <glyph glyph-name="asciitilde" unicode="~" horiz-adv-x="1107" 
d="M735 528q-53 0 -103 18.5t-81 40t-68.5 40t-68.5 18.5q-87 0 -90 -110h-203v61q0 135 73 209t187 74q53 0 103 -18.5t81 -40t68.5 -40t68.5 -18.5q40 0 64 28.5t25 81.5h204v-63q0 -126 -70.5 -203.5t-189.5 -77.5z" />
    <glyph glyph-name="uni00A0" unicode="&#xa0;" horiz-adv-x="495" 
 />
    <glyph glyph-name="exclamdown" unicode="&#xa1;" horiz-adv-x="526" 
d="M135 -408l17 1029h223l14 -1029h-254zM135 809v274h254v-274h-254z" />
    <glyph glyph-name="cent" unicode="&#xa2;" horiz-adv-x="1150" 
d="M578 0v205q-204 33 -333.5 185t-129.5 370q0 219 129.5 371.5t333.5 183.5v188h165v-184q181 -21 312 -139l-123 -183q-93 75 -189 90v-657q107 19 197 92l125 -180q-133 -123 -322 -141v-201h-165zM362 760q0 -115 58 -201.5t158 -118.5v639q-100 -31 -158 -117
t-58 -202z" />
    <glyph glyph-name="sterling" unicode="&#xa3;" horiz-adv-x="1196" 
d="M135 0v172l92 107q50 58 74.5 115t24 107.5t-14.5 104.5h-217v211h137q-61 155 -61 281q0 194 123 310t332 116q195 0 322.5 -107.5t162.5 -308.5l-242 -59q-20 112 -80 168.5t-151 56.5q-92 0 -143.5 -54.5t-51.5 -146.5q0 -39 11.5 -86.5t24 -80t36.5 -89.5h434v-211
h-362q35 -194 -92 -360h608v-246h-967z" />
    <glyph glyph-name="currency" unicode="&#xa4;" horiz-adv-x="1275" 
d="M639 264q-125 0 -221 47l-148 -145l-168 168l140 141q-56 101 -56 227q0 123 52 222l-136 137l179 178l143 -143q98 45 215 45q127 0 223 -47l146 145l168 -168l-140 -139q58 -103 58 -230q0 -126 -54 -223l136 -135l-179 -178l-143 143q-95 -45 -215 -45zM430 702
q0 -92 58 -149t151 -57q94 0 151.5 57t57.5 149t-57.5 149.5t-151.5 57.5t-151.5 -57.5t-57.5 -149.5z" />
    <glyph glyph-name="yen" unicode="&#xa5;" horiz-adv-x="1304" 
d="M528 0v315h-290v181h290v104h-290v180h208l-393 723h301l308 -602l305 602h280l-381 -723h205v-180h-283v-104h283v-181h-283v-315h-260z" />
    <glyph glyph-name="brokenbar" unicode="&#xa6;" horiz-adv-x="569" 
d="M158 -313v862h254v-862h-254zM158 760v821h254v-821h-254z" />
    <glyph glyph-name="section" unicode="&#xa7;" horiz-adv-x="1056" 
d="M401 -332q-100 0 -249 19v250q194 -15 251 -15q248 0 248 158q0 55 -32 91t-109 65l-145 55q-267 99 -267 336q0 175 138 274q-97 91 -97 240q0 179 129 280t355 101q106 0 217 -19v-237q-123 18 -205 18q-227 0 -227 -131q0 -46 30 -78t97 -57l141 -53
q152 -56 220.5 -143.5t68.5 -219.5q0 -171 -121 -280q76 -88 76 -230q0 -202 -135.5 -313t-383.5 -111zM346 655q0 -56 35.5 -96t120.5 -70l143 -47l8 -2q62 56 62 138q0 66 -40 109.5t-136 76.5l-105 35q-88 -57 -88 -144z" />
    <glyph glyph-name="dieresis" unicode="&#xa8;" horiz-adv-x="1257" 
d="M768 1278v262h227v-262h-227zM262 1278v262h230v-262h-230z" />
    <glyph glyph-name="copyright" unicode="&#xa9;" horiz-adv-x="1800" 
d="M899 -29q-220 0 -398 99.5t-280 278.5t-102 403t102 402.5t280 278t398 99.5q164 0 309 -58.5t249 -160.5t164 -247.5t60 -313.5q0 -224 -102.5 -403t-281 -278.5t-398.5 -99.5zM319 752q0 -168 75.5 -303.5t208 -211t296.5 -75.5t297 76t209 211.5t76 302.5t-76 301.5
t-209 210t-297 75.5q-250 0 -415 -166t-165 -421zM487 752q0 183 122 305.5t304 122.5q192 0 314 -150l-146 -121q-68 74 -166 74q-97 0 -158 -63.5t-61 -167.5q0 -102 60.5 -166t156.5 -64q114 0 181 82l147 -121q-124 -157 -328 -157q-182 0 -304 121.5t-122 304.5z" />
    <glyph glyph-name="ordfeminine" unicode="&#xaa;" horiz-adv-x="1015" 
d="M449 729q-157 0 -264 108.5t-107 286.5q0 177 107 285.5t264 108.5q69 0 129 -24t96 -69l2 78h207v-760h-207l-2 76q-37 -43 -96.5 -66.5t-128.5 -23.5zM315 1124q0 -82 48.5 -130t123.5 -48t122.5 48.5t47.5 129.5q0 79 -48 127.5t-122 48.5q-75 0 -123.5 -48
t-48.5 -128z" />
    <glyph glyph-name="guillemotleft" unicode="&#xab;" horiz-adv-x="1087" 
d="M748 160l-265 407l265 408h229l-248 -406l252 -409h-233zM92 567l266 408h228l-248 -406l252 -409h-232z" />
    <glyph glyph-name="logicalnot" unicode="&#xac;" horiz-adv-x="1101" 
d="M702 375v325h-587v238h841v-563h-254z" />
    <glyph glyph-name="uni00AD" unicode="&#xad;" horiz-adv-x="802" 
 />
    <glyph glyph-name="registered" unicode="&#xae;" horiz-adv-x="1398" 
d="M698 442q-250 0 -412.5 163.5t-162.5 412.5q0 251 162.5 414t412.5 163q166 0 298 -74t206 -206t74 -297q0 -164 -74 -295.5t-206 -206t-298 -74.5zM276 1018q0 -187 118 -308.5t304 -121.5q187 0 305.5 121.5t118.5 308.5q0 188 -118.5 309t-305.5 121t-304.5 -121
t-117.5 -309zM487 743v588h228q103 0 161 -47t58 -131q0 -66 -34.5 -109.5t-98.5 -58.5l160 -242h-179l-139 234v-234h-156zM643 1079h57q74 0 74 60q0 29 -19.5 45t-54.5 16h-57v-121z" />
    <glyph glyph-name="macron" unicode="&#xaf;" horiz-adv-x="1241" 
d="M262 1305v192h717v-192h-717z" />
    <glyph glyph-name="degree" unicode="&#xb0;" horiz-adv-x="772" 
d="M385 934q-138 0 -223.5 82.5t-85.5 216.5t85.5 216.5t223.5 82.5q139 0 225 -82.5t86 -216.5t-86 -216.5t-225 -82.5zM264 1233q0 -54 33.5 -87.5t87.5 -33.5q55 0 89 33.5t34 87.5t-34 87.5t-89 33.5q-54 0 -87.5 -33.5t-33.5 -87.5z" />
    <glyph glyph-name="plusminus" unicode="&#xb1;" horiz-adv-x="1105" 
d="M123 809v238h303v258h254v-258h303v-238h-303v-272h-254v272h-303zM123 184v240h860v-240h-860z" />
    <glyph glyph-name="uni00B2" unicode="&#xb2;" horiz-adv-x="739" 
d="M49 655v156l322 330q86 86 86 155q0 43 -27 70t-72 27q-47 0 -80 -30t-45 -87l-196 51q25 129 111 198.5t219 69.5q140 0 224.5 -76t84.5 -200q0 -51 -14.5 -97.5t-42.5 -87t-52.5 -68.5t-60.5 -62l-152 -148h332v-201h-637z" />
    <glyph glyph-name="uni00B3" unicode="&#xb3;" horiz-adv-x="780" 
d="M383 647q-86 0 -156.5 25.5t-125 86.5t-74.5 152l202 64q12 -67 53.5 -100t102.5 -33q57 0 92 27.5t35 74.5q0 45 -31.5 71.5t-89.5 26.5h-67v175h59q46 0 73 26t27 66q0 39 -28.5 64.5t-75.5 25.5q-53 0 -88 -32.5t-47 -92.5l-197 45q28 131 117 202.5t225 71.5
q138 0 222.5 -68.5t84.5 -183.5q0 -65 -29 -115.5t-81 -78.5q72 -26 109.5 -81.5t37.5 -131.5q0 -130 -97 -208.5t-253 -78.5z" />
    <glyph glyph-name="acute" unicode="&#xb4;" horiz-adv-x="1034" 
d="M262 1243l217 338h293l-287 -338h-223z" />
    <glyph glyph-name="uni00B5" unicode="&#xb5;" horiz-adv-x="1280" 
d="M154 -408v1491h254v-637q0 -114 51 -173.5t147 -59.5q94 0 144.5 59t50.5 172v639h254v-741q0 -60 25 -86.5t81 -26.5h37v-229h-47q-169 0 -240 100q-96 -123 -286 -123q-136 0 -222 62q5 -157 5 -186v-261h-254z" />
    <glyph glyph-name="paragraph" unicode="&#xb6;" horiz-adv-x="1275" 
d="M549 0v625q-214 3 -340.5 123.5t-126.5 316.5q0 200 132.5 319t360.5 119h512v-1503h-206v1268h-123v-1268h-209z" />
    <glyph glyph-name="periodcentered" unicode="&#xb7;" horiz-adv-x="507" 
d="M125 537v264h258v-264h-258z" />
    <glyph glyph-name="cedilla" unicode="&#xb8;" horiz-adv-x="909" 
d="M481 -408h-219l113 289h272z" />
    <glyph glyph-name="uni00B9" unicode="&#xb9;" horiz-adv-x="446" 
d="M139 655v719h-94v209h311v-928h-217z" />
    <glyph glyph-name="ordmasculine" unicode="&#xba;" horiz-adv-x="962" 
d="M481 717q-180 0 -293.5 112t-113.5 289t113.5 288.5t293.5 111.5q179 0 293.5 -111.5t114.5 -288.5t-114.5 -289t-293.5 -112zM313 1118q0 -79 47 -128.5t121 -49.5q73 0 121.5 49.5t48.5 128.5q0 78 -48 128t-122 50q-75 0 -121.5 -50t-46.5 -128z" />
    <glyph glyph-name="guillemotright" unicode="&#xbb;" horiz-adv-x="1085" 
d="M109 160l247 403l-252 412h234l264 -410l-264 -405h-229zM496 975h231l266 -410l-266 -405h-227l248 403z" />
    <glyph glyph-name="onequarter" unicode="&#xbc;" horiz-adv-x="1650" 
d="M139 578v718h-94v209h311v-927h-217zM78 0l1020 1495h248l-1022 -1495h-246zM866 123v153l437 652h217v-627h84v-178h-84v-123h-197v123h-457zM1094 301h229v348z" />
    <glyph glyph-name="onehalf" unicode="&#xbd;" horiz-adv-x="1679" 
d="M139 578v718h-94v209h311v-927h-217zM78 0l1020 1495h248l-1022 -1495h-246zM975 672q25 129 111 198.5t219 69.5q140 0 224.5 -76t84.5 -200q0 -51 -14.5 -98t-42.5 -87.5t-52.5 -68.5t-60.5 -62l-152 -147h332v-201h-637v156l322 329q86 86 86 156q0 43 -27 69.5
t-72 26.5q-47 0 -80 -29.5t-45 -86.5z" />
    <glyph glyph-name="threequarters" unicode="&#xbe;" horiz-adv-x="1957" 
d="M383 569q-86 0 -156.5 25.5t-125 87t-74.5 152.5l202 63q12 -67 53.5 -100t102.5 -33q57 0 92 27.5t35 74.5q0 45 -32 72t-89 27h-67v174h59q46 0 73 26t27 66q0 39 -28.5 64.5t-75.5 25.5q-53 0 -88 -32.5t-47 -92.5l-197 45q28 131 117 203t225 72q138 0 222.5 -68.5
t84.5 -183.5q0 -65 -29 -116t-81 -79q72 -26 109.5 -81.5t37.5 -131.5q0 -130 -97 -208.5t-253 -78.5zM385 0l1020 1495h248l-1022 -1495h-246zM1174 123v153l436 652h217v-627h84v-178h-84v-123h-197v123h-456zM1401 301h229v348z" />
    <glyph glyph-name="questiondown" unicode="&#xbf;" horiz-adv-x="1087" 
d="M543 -408q-205 0 -328 112.5t-123 291.5q0 197 172 354l105 96q42 38 57.5 72t15.5 76v27h232v-43q0 -85 -31 -149.5t-94 -127.5l-111 -108q-78 -72 -78 -168q0 -83 51.5 -133t139.5 -50q91 0 155.5 58.5t88.5 171.5l241 -66q-38 -197 -168.5 -305.5t-324.5 -108.5z
M430 809v274h254v-274h-254z" />
    <glyph glyph-name="Agrave" unicode="&#xc0;" horiz-adv-x="1339" 
d="M29 0l510 1503h260l514 -1503h-279l-88 272h-557l-86 -272h-274zM283 2001h297l217 -338h-228zM463 504h409l-206 637z" />
    <glyph glyph-name="Aacute" unicode="&#xc1;" horiz-adv-x="1339" 
d="M29 0l510 1503h260l514 -1503h-279l-88 272h-557l-86 -272h-274zM463 504h409l-206 637zM545 1663l217 338h293l-287 -338h-223z" />
    <glyph glyph-name="Acircumflex" unicode="&#xc2;" horiz-adv-x="1339" 
d="M29 0l510 1503h260l514 -1503h-279l-88 272h-557l-86 -272h-274zM309 1663l238 338h246l237 -338h-201l-161 192l-162 -192h-197zM463 504h409l-206 637z" />
    <glyph glyph-name="Atilde" unicode="&#xc3;" horiz-adv-x="1339" 
d="M29 0l510 1503h260l514 -1503h-279l-88 272h-557l-86 -272h-274zM281 1677q0 141 62 213t163 72q58 0 110.5 -27t94.5 -53.5t75 -26.5q73 0 76 103h168q0 -137 -61 -212t-164 -75q-46 0 -89.5 17t-71 37.5t-60 37.5t-58.5 17q-74 0 -77 -103h-168zM463 504h409l-206 637z
" />
    <glyph glyph-name="Adieresis" unicode="&#xc4;" horiz-adv-x="1339" 
d="M29 0l510 1503h260l514 -1503h-279l-88 272h-557l-86 -272h-274zM303 1698v262h229v-262h-229zM463 504h409l-206 637zM809 1698v262h227v-262h-227z" />
    <glyph glyph-name="Aring" unicode="&#xc5;" horiz-adv-x="1339" 
d="M29 0l510 1503h260l514 -1503h-279l-88 272h-557l-86 -272h-274zM457 1819q0 87 58 140.5t155 53.5t154 -53.5t57 -140.5q0 -88 -57 -142.5t-154 -54.5t-155 55t-58 142zM463 504h409l-206 637zM580 1819q0 -42 25 -67.5t65 -25.5q39 0 64.5 25.5t25.5 67.5t-25 65
t-65 23q-41 0 -65.5 -23t-24.5 -65z" />
    <glyph glyph-name="AE" unicode="&#xc6;" horiz-adv-x="1755" 
d="M12 0l559 1503h1051v-248h-518v-362h510v-248h-510v-397h526v-248h-786v272h-459l-100 -272h-273zM471 504h373v751h-94z" />
    <glyph glyph-name="Ccedilla" unicode="&#xc7;" horiz-adv-x="1185" 
d="M883 -18q-230 0 -410.5 96t-282.5 272t-102 402t102 402t282.5 272t410.5 96q101 0 215 -19v-246q-115 21 -199 21q-241 0 -387.5 -144t-146.5 -382q0 -237 146.5 -382t387.5 -145q84 0 199 21v-246q-108 -18 -215 -18zM561 -408l113 289h272l-166 -289h-219z" />
    <glyph glyph-name="Egrave" unicode="&#xc8;" horiz-adv-x="1112" 
d="M166 0v1503h813v-248h-547v-362h541v-248h-541v-397h557v-248h-823zM186 2001h297l217 -338h-227z" />
    <glyph glyph-name="Eacute" unicode="&#xc9;" horiz-adv-x="1112" 
d="M166 0v1503h813v-248h-547v-362h541v-248h-541v-397h557v-248h-823zM449 1663l217 338h292l-286 -338h-223z" />
    <glyph glyph-name="Ecircumflex" unicode="&#xca;" horiz-adv-x="1112" 
d="M166 0v1503h813v-248h-547v-362h541v-248h-541v-397h557v-248h-823zM213 1663l238 338h245l238 -338h-201l-162 192l-161 -192h-197z" />
    <glyph glyph-name="Edieresis" unicode="&#xcb;" horiz-adv-x="1112" 
d="M166 0v1503h813v-248h-547v-362h541v-248h-541v-397h557v-248h-823zM207 1698v262h229v-262h-229zM713 1698v262h227v-262h-227z" />
    <glyph glyph-name="Igrave" unicode="&#xcc;" horiz-adv-x="598" 
d="M166 0v1503h266v-1503h-266zM-88 2001h297l217 -338h-227z" />
    <glyph glyph-name="Iacute" unicode="&#xcd;" horiz-adv-x="598" 
d="M166 0v1503h266v-1503h-266zM174 1663l217 338h293l-287 -338h-223z" />
    <glyph glyph-name="Icircumflex" unicode="&#xce;" horiz-adv-x="598" 
d="M166 0v1503h266v-1503h-266zM-61 1663l237 338h246l237 -338h-200l-162 192l-162 -192h-196z" />
    <glyph glyph-name="Idieresis" unicode="&#xcf;" horiz-adv-x="598" 
d="M166 0v1503h266v-1503h-266zM-68 1698v262h230v-262h-230zM438 1698v262h228v-262h-228z" />
    <glyph glyph-name="Eth" unicode="&#xd0;" horiz-adv-x="1538" 
d="M240 0v645h-195v248h195v610h422q137 0 258.5 -33.5t217.5 -98.5t165.5 -156t107 -209t37.5 -254q0 -226 -100 -397.5t-278.5 -263t-407.5 -91.5h-422zM506 254h156q231 0 370 133.5t139 364.5t-139 364t-370 133h-156v-356h274v-248h-274v-391z" />
    <glyph glyph-name="Ntilde" unicode="&#xd1;" horiz-adv-x="1470" 
d="M166 0v1503h248l637 -1026v1026h252v-1503h-246l-639 1024v-1024h-252zM358 1677q0 141 62.5 213t163.5 72q58 0 110.5 -27t94.5 -53.5t75 -26.5q73 0 76 103h168q0 -137 -61 -212t-164 -75q-46 0 -89.5 17t-71 37.5t-60 37.5t-58.5 17q-75 0 -78 -103h-168z" />
    <glyph glyph-name="Ograve" unicode="&#xd2;" horiz-adv-x="1732" 
d="M866 -29q-216 0 -393.5 98.5t-281 278t-103.5 404.5q0 169 60.5 315t164.5 247.5t247.5 159.5t305.5 58t305.5 -58t248 -159.5t165 -247.5t60.5 -315t-60.5 -315t-165 -248t-248 -160t-305.5 -58zM365 752q0 -114 38.5 -212.5t105.5 -167t159.5 -107t197.5 -38.5
q214 0 358 147.5t144 377.5t-144 378t-358 148q-141 0 -255 -66t-180 -186.5t-66 -273.5zM479 2001h297l217 -338h-227z" />
    <glyph glyph-name="Oacute" unicode="&#xd3;" horiz-adv-x="1732" 
d="M866 -29q-216 0 -393.5 98.5t-281 278t-103.5 404.5q0 169 60.5 315t164.5 247.5t247.5 159.5t305.5 58t305.5 -58t248 -159.5t165 -247.5t60.5 -315t-60.5 -315t-165 -248t-248 -160t-305.5 -58zM365 752q0 -114 38.5 -212.5t105.5 -167t159.5 -107t197.5 -38.5
q214 0 358 147.5t144 377.5t-144 378t-358 148q-141 0 -255 -66t-180 -186.5t-66 -273.5zM741 1663l217 338h293l-286 -338h-224z" />
    <glyph glyph-name="Ocircumflex" unicode="&#xd4;" horiz-adv-x="1732" 
d="M866 -29q-216 0 -393.5 98.5t-281 278t-103.5 404.5q0 169 60.5 315t164.5 247.5t247.5 159.5t305.5 58t305.5 -58t248 -159.5t165 -247.5t60.5 -315t-60.5 -315t-165 -248t-248 -160t-305.5 -58zM365 752q0 -114 38.5 -212.5t105.5 -167t159.5 -107t197.5 -38.5
q214 0 358 147.5t144 377.5t-144 378t-358 148q-141 0 -255 -66t-180 -186.5t-66 -273.5zM506 1663l237 338h246l238 -338h-201l-162 192l-162 -192h-196z" />
    <glyph glyph-name="Otilde" unicode="&#xd5;" horiz-adv-x="1732" 
d="M866 -29q-216 0 -393.5 98.5t-281 278t-103.5 404.5q0 169 60.5 315t164.5 247.5t247.5 159.5t305.5 58t305.5 -58t248 -159.5t165 -247.5t60.5 -315t-60.5 -315t-165 -248t-248 -160t-305.5 -58zM365 752q0 -114 38.5 -212.5t105.5 -167t159.5 -107t197.5 -38.5
q214 0 358 147.5t144 377.5t-144 378t-358 148q-141 0 -255 -66t-180 -186.5t-66 -273.5zM477 1677q0 141 62 213t163 72q46 0 89.5 -16.5t71 -37t60.5 -37t60 -16.5q73 0 76 103h168q0 -137 -61.5 -212t-164.5 -75q-58 0 -110.5 27.5t-94 54.5t-73.5 27q-75 0 -78 -103
h-168z" />
    <glyph glyph-name="Odieresis" unicode="&#xd6;" horiz-adv-x="1732" 
d="M866 -29q-216 0 -393.5 98.5t-281 278t-103.5 404.5q0 169 60.5 315t164.5 247.5t247.5 159.5t305.5 58t305.5 -58t248 -159.5t165 -247.5t60.5 -315t-60.5 -315t-165 -248t-248 -160t-305.5 -58zM365 752q0 -114 38.5 -212.5t105.5 -167t159.5 -107t197.5 -38.5
q214 0 358 147.5t144 377.5t-144 378t-358 148q-141 0 -255 -66t-180 -186.5t-66 -273.5zM500 1698v262h229v-262h-229zM1006 1698v262h227v-262h-227z" />
    <glyph glyph-name="multiply" unicode="&#xd7;" horiz-adv-x="1105" 
d="M786 289l-237 239l-240 -239l-170 170l240 239l-240 238l180 180l240 -237l238 237l170 -170l-238 -237l238 -240z" />
    <glyph glyph-name="Oslash" unicode="&#xd8;" horiz-adv-x="1738" 
d="M868 -29q-238 0 -424 117l-73 -88h-273l187 221q-92 103 -142.5 239t-50.5 292q0 225 103 404t280 277.5t393 98.5q236 0 422 -117l78 92h272l-188 -225q195 -218 195 -530q0 -169 -60.5 -315t-165 -248t-248 -160t-305.5 -58zM362 752q0 -187 97 -324l663 789
q-112 65 -254 65q-216 0 -361 -148t-145 -382zM612 287q117 -66 256 -66q141 0 256.5 66t183.5 188t68 277q0 184 -98 325z" />
    <glyph glyph-name="Ugrave" unicode="&#xd9;" horiz-adv-x="1400" 
d="M698 -29q-259 0 -402.5 157t-143.5 443v932h266v-913q0 -181 71 -273t209 -92q140 0 212.5 92.5t72.5 272.5v913h266v-932q0 -286 -145 -443t-406 -157zM313 2001h297l217 -338h-227z" />
    <glyph glyph-name="Uacute" unicode="&#xda;" horiz-adv-x="1400" 
d="M698 -29q-259 0 -402.5 157t-143.5 443v932h266v-913q0 -181 71 -273t209 -92q140 0 212.5 92.5t72.5 272.5v913h266v-932q0 -286 -145 -443t-406 -157zM575 1663l218 338h292l-286 -338h-224z" />
    <glyph glyph-name="Ucircumflex" unicode="&#xdb;" horiz-adv-x="1400" 
d="M698 -29q-259 0 -402.5 157t-143.5 443v932h266v-913q0 -181 71 -273t209 -92q140 0 212.5 92.5t72.5 272.5v913h266v-932q0 -286 -145 -443t-406 -157zM340 1663l238 338h245l238 -338h-201l-162 192l-161 -192h-197z" />
    <glyph glyph-name="Udieresis" unicode="&#xdc;" horiz-adv-x="1400" 
d="M698 -29q-259 0 -402.5 157t-143.5 443v932h266v-913q0 -181 71 -273t209 -92q140 0 212.5 92.5t72.5 272.5v913h266v-932q0 -286 -145 -443t-406 -157zM334 1698v262h229v-262h-229zM840 1698v262h227v-262h-227z" />
    <glyph glyph-name="Yacute" unicode="&#xdd;" horiz-adv-x="1255" 
d="M498 0v590l-473 913h301l307 -626l305 626h281l-455 -913v-590h-266zM508 1663l217 338h293l-287 -338h-223z" />
    <glyph glyph-name="Thorn" unicode="&#xde;" horiz-adv-x="1212" 
d="M166 0v1503h266v-270h186q238 0 377.5 -125.5t139.5 -341.5q0 -210 -140 -334.5t-377 -124.5h-186v-307h-266zM432 549h186q117 0 181.5 57t64.5 160q0 101 -64.5 158t-181.5 57h-186v-432z" />
    <glyph glyph-name="germandbls" unicode="&#xdf;" horiz-adv-x="1298" 
d="M713 -16q-85 0 -170 14v231q76 -10 137 -10q138 0 215.5 66t77.5 186q0 117 -80.5 183.5t-222.5 66.5h-101v229h64q103 0 163 55t60 150q0 94 -63 147.5t-175 53.5q-237 0 -237 -266v-1090h-254v1110q0 233 123 357t356 124q231 0 367.5 -110t136.5 -297
q0 -106 -44.5 -191t-121.5 -131q136 -42 209.5 -145t73.5 -256q0 -217 -140 -347t-374 -130z" />
    <glyph glyph-name="agrave" unicode="&#xe0;" 
d="M610 -20q-110 0 -208.5 41.5t-171.5 114.5t-115.5 178.5t-42.5 226.5q0 122 42.5 228t115.5 179t171.5 114.5t208.5 41.5q107 0 200 -39.5t151 -112.5l2 131h225v-1083h-225l-2 131q-58 -72 -151 -111.5t-200 -39.5zM291 1581h297l217 -338h-227zM326 541
q0 -145 89.5 -236.5t227.5 -91.5q133 0 221 88.5t88 239.5q0 152 -88 240.5t-221 88.5q-138 0 -227.5 -91.5t-89.5 -237.5z" />
    <glyph glyph-name="aacute" unicode="&#xe1;" 
d="M610 -20q-110 0 -208.5 41.5t-171.5 114.5t-115.5 178.5t-42.5 226.5q0 122 42.5 228t115.5 179t171.5 114.5t208.5 41.5q107 0 200 -39.5t151 -112.5l2 131h225v-1083h-225l-2 131q-58 -72 -151 -111.5t-200 -39.5zM326 541q0 -145 89.5 -236.5t227.5 -91.5
q133 0 221 88.5t88 239.5q0 152 -88 240.5t-221 88.5q-138 0 -227.5 -91.5t-89.5 -237.5zM553 1243l217 338h293l-287 -338h-223z" />
    <glyph glyph-name="acircumflex" unicode="&#xe2;" 
d="M610 -20q-110 0 -208.5 41.5t-171.5 114.5t-115.5 178.5t-42.5 226.5q0 122 42.5 228t115.5 179t171.5 114.5t208.5 41.5q107 0 200 -39.5t151 -112.5l2 131h225v-1083h-225l-2 131q-58 -72 -151 -111.5t-200 -39.5zM317 1243l238 338h246l237 -338h-200l-162 193
l-162 -193h-197zM326 541q0 -145 89.5 -236.5t227.5 -91.5q133 0 221 88.5t88 239.5q0 152 -88 240.5t-221 88.5q-138 0 -227.5 -91.5t-89.5 -237.5z" />
    <glyph glyph-name="atilde" unicode="&#xe3;" 
d="M610 -20q-110 0 -208.5 41.5t-171.5 114.5t-115.5 178.5t-42.5 226.5q0 122 42.5 228t115.5 179t171.5 114.5t208.5 41.5q107 0 200 -39.5t151 -112.5l2 131h225v-1083h-225l-2 131q-58 -72 -151 -111.5t-200 -39.5zM289 1257q0 141 62 213t163 72q58 0 110.5 -26.5
t95 -53t75.5 -26.5q72 0 75 102h168q0 -137 -61 -212t-164 -75q-58 0 -110.5 27.5t-94 54.5t-73.5 27q-75 0 -78 -103h-168zM326 541q0 -145 89.5 -236.5t227.5 -91.5q133 0 221 88.5t88 239.5q0 152 -88 240.5t-221 88.5q-138 0 -227.5 -91.5t-89.5 -237.5z" />
    <glyph glyph-name="adieresis" unicode="&#xe4;" 
d="M610 -20q-110 0 -208.5 41.5t-171.5 114.5t-115.5 178.5t-42.5 226.5q0 122 42.5 228t115.5 179t171.5 114.5t208.5 41.5q107 0 200 -39.5t151 -112.5l2 131h225v-1083h-225l-2 131q-58 -72 -151 -111.5t-200 -39.5zM311 1278v262h230v-262h-230zM326 541
q0 -145 89.5 -236.5t227.5 -91.5q133 0 221 88.5t88 239.5q0 152 -88 240.5t-221 88.5q-138 0 -227.5 -91.5t-89.5 -237.5zM817 1278v262h227v-262h-227z" />
    <glyph glyph-name="aring" unicode="&#xe5;" 
d="M610 -20q-110 0 -208.5 41.5t-171.5 114.5t-115.5 178.5t-42.5 226.5q0 122 42.5 228t115.5 179t171.5 114.5t208.5 41.5q107 0 200 -39.5t151 -112.5l2 131h225v-1083h-225l-2 131q-58 -72 -151 -111.5t-200 -39.5zM326 541q0 -145 89.5 -236.5t227.5 -91.5
q133 0 221 88.5t88 239.5q0 152 -88 240.5t-221 88.5q-138 0 -227.5 -91.5t-89.5 -237.5zM465 1399q0 87 58 140.5t155 53.5t154 -53.5t57 -140.5q0 -88 -57 -142.5t-154 -54.5t-155 55t-58 142zM588 1399q0 -42 25 -67t65 -25q39 0 64.5 25t25.5 67t-25 65t-65 23
q-41 0 -65.5 -23t-24.5 -65z" />
    <glyph glyph-name="ae" unicode="&#xe6;" horiz-adv-x="1884" 
d="M444 -25q-178 0 -283.5 92t-105.5 250q0 156 111 253.5t309 97.5h266q-3 114 -73.5 165.5t-225.5 51.5q-107 0 -274 -29v215q172 27 297 27q328 0 418 -197q72 101 176 153t231 52q109 0 204 -38t169 -112t113 -195.5t30 -275.5h-841q15 -130 106.5 -210t233.5 -80
q208 0 331 180l168 -133q-84 -123 -211 -195t-288 -72q-152 0 -269.5 61t-185.5 171q-56 -111 -161.5 -171.5t-244.5 -60.5zM295 332q0 -72 49.5 -114t134.5 -42q114 0 188 69t74 195v45l-239 2q-101 0 -154 -42t-53 -113zM973 668h594q-23 112 -98.5 170.5t-186.5 58.5
q-118 0 -200 -63t-109 -166z" />
    <glyph glyph-name="ccedilla" unicode="&#xe7;" horiz-adv-x="886" 
d="M637 -16q-249 0 -407 154.5t-158 402.5q0 247 158.5 402t406.5 155q54 0 172 -15v-231q-85 12 -143 12q-157 0 -248.5 -89.5t-91.5 -233.5q0 -145 91 -233.5t249 -88.5q48 0 143 10v-231q-88 -14 -172 -14zM317 -408l113 289h272l-165 -289h-220z" />
    <glyph glyph-name="egrave" unicode="&#xe8;" horiz-adv-x="1220" 
d="M637 -25q-251 0 -408 158.5t-157 405.5t157.5 407t393.5 160q110 0 206 -38t170.5 -112t113.5 -195.5t30 -275.5h-834q15 -130 106 -210t228 -80q207 0 330 180l168 -133q-84 -123 -212 -195t-292 -72zM236 1581h296l218 -338h-228zM317 668h586q-23 112 -97.5 170.5
t-184.5 58.5q-112 0 -194 -63t-110 -166z" />
    <glyph glyph-name="eacute" unicode="&#xe9;" horiz-adv-x="1220" 
d="M637 -25q-251 0 -408 158.5t-157 405.5t157.5 407t393.5 160q110 0 206 -38t170.5 -112t113.5 -195.5t30 -275.5h-834q15 -130 106 -210t228 -80q207 0 330 180l168 -133q-84 -123 -212 -195t-292 -72zM317 668h586q-23 112 -97.5 170.5t-184.5 58.5q-112 0 -194 -63
t-110 -166zM498 1243l217 338h293l-287 -338h-223z" />
    <glyph glyph-name="ecircumflex" unicode="&#xea;" horiz-adv-x="1220" 
d="M637 -25q-251 0 -408 158.5t-157 405.5t157.5 407t393.5 160q110 0 206 -38t170.5 -112t113.5 -195.5t30 -275.5h-834q15 -130 106 -210t228 -80q207 0 330 180l168 -133q-84 -123 -212 -195t-292 -72zM262 1243l238 338h245l238 -338h-201l-161 193l-162 -193h-197z
M317 668h586q-23 112 -97.5 170.5t-184.5 58.5q-112 0 -194 -63t-110 -166z" />
    <glyph glyph-name="edieresis" unicode="&#xeb;" horiz-adv-x="1220" 
d="M637 -25q-251 0 -408 158.5t-157 405.5t157.5 407t393.5 160q110 0 206 -38t170.5 -112t113.5 -195.5t30 -275.5h-834q15 -130 106 -210t228 -80q207 0 330 180l168 -133q-84 -123 -212 -195t-292 -72zM256 1278v262h229v-262h-229zM317 668h586q-23 112 -97.5 170.5
t-184.5 58.5q-112 0 -194 -63t-110 -166zM762 1278v262h227v-262h-227z" />
    <glyph glyph-name="igrave" unicode="&#xec;" horiz-adv-x="505" 
d="M127 0v1083h254v-1083h-254zM-133 1581h297l217 -338h-227z" />
    <glyph glyph-name="iacute" unicode="&#xed;" horiz-adv-x="505" 
d="M127 0v1083h254v-1083h-254zM129 1243l217 338h293l-287 -338h-223z" />
    <glyph glyph-name="icircumflex" unicode="&#xee;" horiz-adv-x="505" 
d="M127 0v1083h254v-1083h-254zM-106 1243l237 338h246l237 -338h-200l-162 193l-162 -193h-196z" />
    <glyph glyph-name="idieresis" unicode="&#xef;" horiz-adv-x="505" 
d="M127 0v1083h254v-1083h-254zM-113 1278v262h230v-262h-230zM393 1278v262h228v-262h-228z" />
    <glyph glyph-name="eth" unicode="&#xf0;" horiz-adv-x="1282" 
d="M639 -29q-160 0 -288.5 71t-202.5 201t-74 294q0 159 71 282t189 187.5t262 64.5q106 0 192 -39q-75 107 -174 215l-403 -94l-33 129l330 82q-70 72 -219 217h309q81 -81 152 -158l313 76l31 -139l-240 -55q173 -205 263.5 -386.5t90.5 -361.5q0 -257 -161 -421.5
t-408 -164.5zM328 541q0 -145 88.5 -237.5t224.5 -92.5q135 0 224 92.5t89 237.5q0 144 -89 233.5t-224 89.5q-137 0 -225 -89t-88 -234z" />
    <glyph glyph-name="ntilde" unicode="&#xf1;" horiz-adv-x="1128" 
d="M115 645q0 217 119 340t331 123q211 0 331 -123t120 -340v-645h-254v637q0 113 -51.5 173t-145.5 60q-95 0 -145.5 -59.5t-50.5 -173.5v-637h-254v645zM176 1257q0 141 62 213t163 72q58 0 110.5 -26.5t95 -53t75.5 -26.5q73 0 76 102h168q0 -137 -61.5 -212t-164.5 -75
q-58 0 -110.5 27.5t-94 54.5t-73.5 27q-75 0 -78 -103h-168z" />
    <glyph glyph-name="ograve" unicode="&#xf2;" horiz-adv-x="1277" 
d="M639 -29q-157 0 -286.5 73t-205 204t-75.5 293t75.5 292.5t205 202.5t286.5 72t286.5 -72t205 -202.5t75.5 -292.5t-75.5 -293t-205 -204t-286.5 -73zM252 1581h297l217 -338h-227zM326 541q0 -145 89 -237.5t224 -92.5t224 92.5t89 237.5t-89 237t-224 92t-224 -92
t-89 -237z" />
    <glyph glyph-name="oacute" unicode="&#xf3;" horiz-adv-x="1277" 
d="M639 -29q-157 0 -286.5 73t-205 204t-75.5 293t75.5 292.5t205 202.5t286.5 72t286.5 -72t205 -202.5t75.5 -292.5t-75.5 -293t-205 -204t-286.5 -73zM326 541q0 -145 89 -237.5t224 -92.5t224 92.5t89 237.5t-89 237t-224 92t-224 -92t-89 -237zM514 1243l217 338h293
l-287 -338h-223z" />
    <glyph glyph-name="ocircumflex" unicode="&#xf4;" horiz-adv-x="1277" 
d="M639 -29q-157 0 -286.5 73t-205 204t-75.5 293t75.5 292.5t205 202.5t286.5 72t286.5 -72t205 -202.5t75.5 -292.5t-75.5 -293t-205 -204t-286.5 -73zM279 1243l237 338h246l237 -338h-200l-162 193l-162 -193h-196zM326 541q0 -145 89 -237.5t224 -92.5t224 92.5
t89 237.5t-89 237t-224 92t-224 -92t-89 -237z" />
    <glyph glyph-name="otilde" unicode="&#xf5;" horiz-adv-x="1277" 
d="M639 -29q-157 0 -286.5 73t-205 204t-75.5 293t75.5 292.5t205 202.5t286.5 72t286.5 -72t205 -202.5t75.5 -292.5t-75.5 -293t-205 -204t-286.5 -73zM250 1257q0 141 62 213t163 72q58 0 110.5 -26.5t95 -53t75.5 -26.5q72 0 75 102h168q0 -137 -61 -212t-164 -75
q-58 0 -110.5 27.5t-94 54.5t-73.5 27q-75 0 -78 -103h-168zM326 541q0 -145 89 -237.5t224 -92.5t224 92.5t89 237.5t-89 237t-224 92t-224 -92t-89 -237z" />
    <glyph glyph-name="odieresis" unicode="&#xf6;" horiz-adv-x="1277" 
d="M639 -29q-157 0 -286.5 73t-205 204t-75.5 293t75.5 292.5t205 202.5t286.5 72t286.5 -72t205 -202.5t75.5 -292.5t-75.5 -293t-205 -204t-286.5 -73zM272 1278v262h230v-262h-230zM326 541q0 -145 89 -237.5t224 -92.5t224 92.5t89 237.5t-89 237t-224 92t-224 -92
t-89 -237zM778 1278v262h228v-262h-228z" />
    <glyph glyph-name="divide" unicode="&#xf7;" horiz-adv-x="1105" 
d="M123 594v215h860v-215h-860zM434 207v248h238v-248h-238zM434 950v248h238v-248h-238z" />
    <glyph glyph-name="oslash" unicode="&#xf8;" horiz-adv-x="1284" 
d="M641 -29q-173 0 -315 90l-54 -61h-204l141 164q-135 158 -135 377q0 162 75.5 292.5t205 202.5t286.5 72q169 0 313 -88l56 63h204l-143 -163q139 -155 139 -379q0 -162 -76 -293t-206 -204t-287 -73zM315 541q0 -113 54 -195l432 496q-73 39 -160 39q-142 0 -234 -96
t-92 -244zM481 240q70 -39 160 -39q143 0 235.5 95.5t92.5 244.5q0 108 -56 196z" />
    <glyph glyph-name="ugrave" unicode="&#xf9;" horiz-adv-x="1128" 
d="M1014 438q0 -217 -119.5 -340t-331.5 -123q-211 0 -330.5 123t-119.5 340v645h254v-637q0 -113 51 -173t145 -60q96 0 146.5 59.5t50.5 173.5v637h254v-645zM174 1581h297l217 -338h-227z" />
    <glyph glyph-name="uacute" unicode="&#xfa;" horiz-adv-x="1128" 
d="M1014 438q0 -217 -119.5 -340t-331.5 -123q-211 0 -330.5 123t-119.5 340v645h254v-637q0 -113 51 -173t145 -60q96 0 146.5 59.5t50.5 173.5v637h254v-645zM436 1243l217 338h293l-287 -338h-223z" />
    <glyph glyph-name="ucircumflex" unicode="&#xfb;" horiz-adv-x="1128" 
d="M1014 438q0 -217 -119.5 -340t-331.5 -123q-211 0 -330.5 123t-119.5 340v645h254v-637q0 -113 51 -173t145 -60q96 0 146.5 59.5t50.5 173.5v637h254v-645zM201 1243l237 338h246l238 -338h-201l-162 193l-162 -193h-196z" />
    <glyph glyph-name="udieresis" unicode="&#xfc;" horiz-adv-x="1128" 
d="M1014 438q0 -217 -119.5 -340t-331.5 -123q-211 0 -330.5 123t-119.5 340v645h254v-637q0 -113 51 -173t145 -60q96 0 146.5 59.5t50.5 173.5v637h254v-645zM195 1278v262h229v-262h-229zM700 1278v262h228v-262h-228z" />
    <glyph glyph-name="yacute" unicode="&#xfd;" horiz-adv-x="1118" 
d="M264 -408l178 453l-434 1038h283l284 -729l265 729h266l-576 -1491h-266zM444 1243l218 338h292l-286 -338h-224z" />
    <glyph glyph-name="thorn" unicode="&#xfe;" 
d="M127 -408v1989h254v-348q0 -133 -6 -256q58 61 145 94t185 33q109 0 207.5 -41.5t171.5 -114.5t116 -179t43 -228q0 -121 -43 -226.5t-116 -178.5t-171.5 -114.5t-207.5 -41.5q-98 0 -185 32.5t-145 93.5q6 -123 6 -253v-261h-254zM362 541q0 -151 88 -239.5t222 -88.5
q137 0 226 91.5t89 236.5q0 147 -88.5 238t-226.5 91q-135 0 -222.5 -88t-87.5 -241z" />
    <glyph glyph-name="ydieresis" unicode="&#xff;" horiz-adv-x="1118" 
d="M264 -408l178 453l-434 1038h283l284 -729l265 729h266l-576 -1491h-266zM203 1278v262h229v-262h-229zM709 1278v262h227v-262h-227z" />
    <glyph glyph-name="Amacron" unicode="&#x100;" horiz-adv-x="1339" 
d="M29 0l510 1503h260l514 -1503h-279l-88 272h-557l-86 -272h-274zM311 1724v193h717v-193h-717zM463 504h409l-206 637z" />
    <glyph glyph-name="amacron" unicode="&#x101;" 
d="M610 -20q-110 0 -208.5 41.5t-171.5 114.5t-115.5 178.5t-42.5 226.5q0 122 42.5 228t115.5 179t171.5 114.5t208.5 41.5q107 0 200 -39.5t151 -112.5l2 131h225v-1083h-225l-2 131q-58 -72 -151 -111.5t-200 -39.5zM319 1305v192h717v-192h-717zM326 541
q0 -145 89.5 -236.5t227.5 -91.5q133 0 221 88.5t88 239.5q0 152 -88 240.5t-221 88.5q-138 0 -227.5 -91.5t-89.5 -237.5z" />
    <glyph glyph-name="Abreve" unicode="&#x102;" horiz-adv-x="1339" 
d="M29 0l510 1503h260l514 -1503h-279l-88 272h-557l-86 -272h-274zM324 1976h186q10 -75 52 -112t108 -37t107.5 37t51.5 112h187q-9 -160 -101.5 -250t-244.5 -90t-244.5 90t-101.5 250zM463 504h409l-206 637z" />
    <glyph glyph-name="abreve" unicode="&#x103;" 
d="M610 -20q-110 0 -208.5 41.5t-171.5 114.5t-115.5 178.5t-42.5 226.5q0 122 42.5 228t115.5 179t171.5 114.5t208.5 41.5q107 0 200 -39.5t151 -112.5l2 131h225v-1083h-225l-2 131q-58 -72 -151 -111.5t-200 -39.5zM326 541q0 -145 89.5 -236.5t227.5 -91.5
q133 0 221 88.5t88 239.5q0 152 -88 240.5t-221 88.5q-138 0 -227.5 -91.5t-89.5 -237.5zM332 1556h186q10 -75 52 -112t108 -37t108 37t52 112h186q-9 -160 -101.5 -249.5t-244.5 -89.5t-244.5 89.5t-101.5 249.5z" />
    <glyph glyph-name="Aogonek" unicode="&#x104;" horiz-adv-x="1339" 
d="M29 0l510 1503h260l514 -1503q-158 -65 -158 -160q0 -40 25 -63t69 -23q28 0 76 10v-157q-59 -15 -113 -15q-111 0 -177 57.5t-66 155.5q0 110 88 195h-23l-88 272h-557l-86 -272h-274zM463 504h409l-206 637z" />
    <glyph glyph-name="aogonek" unicode="&#x105;" 
d="M610 -20q-110 0 -208.5 41.5t-171.5 114.5t-115.5 178.5t-42.5 226.5q0 122 42.5 228t115.5 179t171.5 114.5t208.5 41.5q107 0 200 -39.5t151 -112.5l2 131h225v-1083q-158 -65 -158 -160q0 -40 25 -63t69 -23q28 0 76 10v-157q-59 -15 -113 -15q-111 0 -177 57.5
t-66 155.5q0 132 119 222l-2 104q-58 -72 -151 -111.5t-200 -39.5zM326 541q0 -145 89.5 -236.5t227.5 -91.5q133 0 221 88.5t88 239.5q0 152 -88 240.5t-221 88.5q-138 0 -227.5 -91.5t-89.5 -237.5z" />
    <glyph glyph-name="Cacute" unicode="&#x106;" horiz-adv-x="1185" 
d="M883 -18q-230 0 -410.5 96t-282.5 272t-102 402t102 402t282.5 272t410.5 96q101 0 215 -19v-246q-115 21 -199 21q-241 0 -387.5 -144t-146.5 -382q0 -237 146.5 -382t387.5 -145q84 0 199 21v-246q-108 -18 -215 -18zM596 1663l217 338h293l-287 -338h-223z" />
    <glyph glyph-name="cacute" unicode="&#x107;" horiz-adv-x="886" 
d="M637 -16q-249 0 -407 154.5t-158 402.5q0 247 158.5 402t406.5 155q54 0 172 -15v-231q-85 12 -143 12q-157 0 -248.5 -89.5t-91.5 -233.5q0 -145 91 -233.5t249 -88.5q48 0 143 10v-231q-88 -14 -172 -14zM385 1243l217 338h293l-287 -338h-223z" />
    <glyph glyph-name="Ccircumflex" unicode="&#x108;" horiz-adv-x="1185" 
d="M883 -18q-230 0 -410.5 96t-282.5 272t-102 402t102 402t282.5 272t410.5 96q101 0 215 -19v-246q-115 21 -199 21q-241 0 -387.5 -144t-146.5 -382q0 -237 146.5 -382t387.5 -145q84 0 199 21v-246q-108 -18 -215 -18zM360 1663l238 338h246l237 -338h-200l-162 192
l-162 -192h-197z" />
    <glyph glyph-name="ccircumflex" unicode="&#x109;" horiz-adv-x="886" 
d="M637 -16q-249 0 -407 154.5t-158 402.5q0 247 158.5 402t406.5 155q54 0 172 -15v-231q-85 12 -143 12q-157 0 -248.5 -89.5t-91.5 -233.5q0 -145 91 -233.5t249 -88.5q48 0 143 10v-231q-88 -14 -172 -14zM150 1243l237 338h246l237 -338h-200l-162 193l-162 -193h-196z
" />
    <glyph glyph-name="Cdotaccent" unicode="&#x10a;" horiz-adv-x="1185" 
d="M883 -18q-230 0 -410.5 96t-282.5 272t-102 402t102 402t282.5 272t410.5 96q101 0 215 -19v-246q-115 21 -199 21q-241 0 -387.5 -144t-146.5 -382q0 -237 146.5 -382t387.5 -145q84 0 199 21v-246q-108 -18 -215 -18zM594 1683v318h254v-318h-254z" />
    <glyph glyph-name="cdotaccent" unicode="&#x10b;" horiz-adv-x="886" 
d="M637 -16q-249 0 -407 154.5t-158 402.5q0 247 158.5 402t406.5 155q54 0 172 -15v-231q-85 12 -143 12q-157 0 -248.5 -89.5t-91.5 -233.5q0 -145 91 -233.5t249 -88.5q48 0 143 10v-231q-88 -14 -172 -14zM383 1264v317h254v-317h-254z" />
    <glyph glyph-name="Ccaron" unicode="&#x10c;" horiz-adv-x="1185" 
d="M883 -18q-230 0 -410.5 96t-282.5 272t-102 402t102 402t282.5 272t410.5 96q101 0 215 -19v-246q-115 21 -199 21q-241 0 -387.5 -144t-146.5 -382q0 -237 146.5 -382t387.5 -145q84 0 199 21v-246q-108 -18 -215 -18zM360 2001h201l162 -193l162 193h196l-237 -338
h-246z" />
    <glyph glyph-name="ccaron" unicode="&#x10d;" horiz-adv-x="886" 
d="M637 -16q-249 0 -407 154.5t-158 402.5q0 247 158.5 402t406.5 155q54 0 172 -15v-231q-85 12 -143 12q-157 0 -248.5 -89.5t-91.5 -233.5q0 -145 91 -233.5t249 -88.5q48 0 143 10v-231q-88 -14 -172 -14zM150 1581h200l162 -192l162 192h196l-237 -338h-246z" />
    <glyph glyph-name="Dcaron" unicode="&#x10e;" horiz-adv-x="1474" 
d="M166 0v1503h432q137 0 258.5 -33.5t217.5 -98.5t165.5 -156t107 -209t37.5 -254q0 -226 -100 -397.5t-278.5 -263t-407.5 -91.5h-432zM262 2001h201l162 -193l161 193h197l-238 -338h-245zM432 254h166q231 0 370.5 133.5t139.5 364.5t-139.5 364t-370.5 133h-166v-995z
" />
    <glyph glyph-name="dcaron" unicode="&#x10f;" 
d="M610 -20q-110 0 -208.5 41.5t-171.5 114.5t-115.5 178.5t-42.5 226.5q0 122 42.5 228t115.5 179t171.5 114.5t208.5 41.5q98 0 184 -33t146 -94q-6 117 -6 242v362h254v-1581h-225l-2 131q-58 -72 -151 -111.5t-200 -39.5zM326 541q0 -145 89.5 -236.5t227.5 -91.5
q133 0 221 88.5t88 239.5q0 152 -88 240.5t-221 88.5q-138 0 -227.5 -91.5t-89.5 -237.5zM1305 1147l26 434h242l-84 -434h-184z" />
    <glyph glyph-name="Dcroat" unicode="&#x110;" horiz-adv-x="1538" 
d="M240 0v645h-195v248h195v610h422q137 0 258.5 -33.5t217.5 -98.5t165.5 -156t107 -209t37.5 -254q0 -226 -100 -397.5t-278.5 -263t-407.5 -91.5h-422zM506 254h156q231 0 370 133.5t139 364.5t-139 364t-370 133h-156v-356h274v-248h-274v-391z" />
    <glyph glyph-name="dcroat" unicode="&#x111;" 
d="M610 -20q-110 0 -208.5 41.5t-171.5 114.5t-115.5 178.5t-42.5 226.5q0 122 42.5 228t115.5 179t171.5 114.5t208.5 41.5q98 0 184 -33t146 -94q-6 117 -6 242v10h-303v201h303v151h254v-151h96v-201h-96v-1229h-225l-2 131q-58 -72 -151 -111.5t-200 -39.5zM326 541
q0 -145 89.5 -236.5t227.5 -91.5q133 0 221 88.5t88 239.5q0 152 -88 240.5t-221 88.5q-138 0 -227.5 -91.5t-89.5 -237.5z" />
    <glyph glyph-name="Emacron" unicode="&#x112;" horiz-adv-x="1112" 
d="M166 0v1503h813v-248h-547v-362h541v-248h-541v-397h557v-248h-823zM215 1724v193h717v-193h-717z" />
    <glyph glyph-name="emacron" unicode="&#x113;" horiz-adv-x="1220" 
d="M637 -25q-251 0 -408 158.5t-157 405.5t157.5 407t393.5 160q110 0 206 -38t170.5 -112t113.5 -195.5t30 -275.5h-834q15 -130 106 -210t228 -80q207 0 330 180l168 -133q-84 -123 -212 -195t-292 -72zM264 1305v192h717v-192h-717zM317 668h586q-23 112 -97.5 170.5
t-184.5 58.5q-112 0 -194 -63t-110 -166z" />
    <glyph glyph-name="Ebreve" unicode="&#x114;" horiz-adv-x="1112" 
d="M166 0v1503h813v-248h-547v-362h541v-248h-541v-397h557v-248h-823zM227 1976h187q10 -75 51.5 -112t107.5 -37t108 37t52 112h187q-9 -160 -102 -250t-245 -90t-244.5 90t-101.5 250z" />
    <glyph glyph-name="ebreve" unicode="&#x115;" horiz-adv-x="1220" 
d="M637 -25q-251 0 -408 158.5t-157 405.5t157.5 407t393.5 160q110 0 206 -38t170.5 -112t113.5 -195.5t30 -275.5h-834q15 -130 106 -210t228 -80q207 0 330 180l168 -133q-84 -123 -212 -195t-292 -72zM276 1556h187q10 -75 52 -112t108 -37t107.5 37t51.5 112h187
q-9 -160 -101.5 -249.5t-244.5 -89.5t-245 89.5t-102 249.5zM317 668h586q-23 112 -97.5 170.5t-184.5 58.5q-112 0 -194 -63t-110 -166z" />
    <glyph glyph-name="Edotaccent" unicode="&#x116;" horiz-adv-x="1112" 
d="M166 0v1503h813v-248h-547v-362h541v-248h-541v-397h557v-248h-823zM446 1683v318h254v-318h-254z" />
    <glyph glyph-name="edotaccent" unicode="&#x117;" horiz-adv-x="1220" 
d="M637 -25q-251 0 -408 158.5t-157 405.5t157.5 407t393.5 160q110 0 206 -38t170.5 -112t113.5 -195.5t30 -275.5h-834q15 -130 106 -210t228 -80q207 0 330 180l168 -133q-84 -123 -212 -195t-292 -72zM317 668h586q-23 112 -97.5 170.5t-184.5 58.5q-112 0 -194 -63
t-110 -166zM496 1264v317h254v-317h-254z" />
    <glyph glyph-name="Eogonek" unicode="&#x118;" horiz-adv-x="1112" 
d="M166 0v1503h813v-248h-547v-362h541v-248h-541v-397h557v-248h-2q-158 -65 -158 -160q0 -40 25.5 -63t69.5 -23q27 0 75 10v-157q-58 -15 -112 -15q-111 0 -177.5 57.5t-66.5 155.5q0 110 88 195h-565z" />
    <glyph glyph-name="eogonek" unicode="&#x119;" horiz-adv-x="1220" 
d="M713 -408q-111 0 -177.5 57.5t-66.5 155.5q0 101 70 177q-212 32 -339.5 184.5t-127.5 372.5q0 247 157.5 407t393.5 160q110 0 206 -38t170.5 -112t113.5 -195.5t30 -275.5h-834q15 -130 106 -210t228 -80q207 0 330 180l168 -133q-129 -186 -330 -242
q-156 -65 -156 -160q0 -40 25.5 -63t69.5 -23q27 0 75 10v-157q-58 -15 -112 -15zM317 668h586q-23 112 -97.5 170.5t-184.5 58.5q-112 0 -194 -63t-110 -166z" />
    <glyph glyph-name="Ecaron" unicode="&#x11a;" horiz-adv-x="1112" 
d="M166 0v1503h813v-248h-547v-362h541v-248h-541v-397h557v-248h-823zM213 2001h201l161 -193l162 193h197l-238 -338h-245z" />
    <glyph glyph-name="ecaron" unicode="&#x11b;" horiz-adv-x="1220" 
d="M637 -25q-251 0 -408 158.5t-157 405.5t157.5 407t393.5 160q110 0 206 -38t170.5 -112t113.5 -195.5t30 -275.5h-834q15 -130 106 -210t228 -80q207 0 330 180l168 -133q-84 -123 -212 -195t-292 -72zM262 1581h201l162 -192l161 192h197l-238 -338h-245zM317 668h586
q-23 112 -97.5 170.5t-184.5 58.5q-112 0 -194 -63t-110 -166z" />
    <glyph glyph-name="Gcircumflex" unicode="&#x11c;" horiz-adv-x="1679" 
d="M864 -29q-217 0 -394 98.5t-279.5 278t-102.5 404.5t102 404t279.5 277.5t396.5 98.5q366 0 592 -258l-192 -184q-71 88 -176 138t-224 50q-221 0 -362.5 -148t-141.5 -380q0 -233 142.5 -380t359.5 -147q189 0 313.5 110t143.5 290h-508v235h789v-104
q0 -234 -93.5 -412.5t-260.5 -274.5t-384 -96zM492 1663l237 338h246l237 -338h-200l-162 192l-162 -192h-196z" />
    <glyph glyph-name="gcircumflex" unicode="&#x11d;" 
d="M348 -408v230h242q173 0 263 68t91 214v48q-54 -65 -139 -99.5t-191 -34.5q-150 0 -272.5 66t-195 190t-72.5 283q0 158 72.5 284t194.5 194.5t269 68.5q108 0 201.5 -39.5t151.5 -112.5l2 131h225v-956q0 -265 -159.5 -400t-446.5 -135h-236zM317 1243l238 338h246
l237 -338h-200l-162 193l-162 -193h-197zM328 557q0 -138 88.5 -225.5t226.5 -87.5q135 0 223 83.5t88 227.5q0 145 -88.5 230t-224.5 85q-137 0 -225 -87t-88 -226z" />
    <glyph glyph-name="Gbreve" unicode="&#x11e;" horiz-adv-x="1679" 
d="M864 -29q-217 0 -394 98.5t-279.5 278t-102.5 404.5t102 404t279.5 277.5t396.5 98.5q366 0 592 -258l-192 -184q-71 88 -176 138t-224 50q-221 0 -362.5 -148t-141.5 -380q0 -233 142.5 -380t359.5 -147q189 0 313.5 110t143.5 290h-508v235h789v-104
q0 -234 -93.5 -412.5t-260.5 -274.5t-384 -96zM506 1976h186q10 -75 52 -112t108 -37t108 37t52 112h186q-9 -160 -101.5 -250t-244.5 -90t-244.5 90t-101.5 250z" />
    <glyph glyph-name="gbreve" unicode="&#x11f;" 
d="M348 -408v230h242q173 0 263 68t91 214v48q-54 -65 -139 -99.5t-191 -34.5q-150 0 -272.5 66t-195 190t-72.5 283q0 158 72.5 284t194.5 194.5t269 68.5q108 0 201.5 -39.5t151.5 -112.5l2 131h225v-956q0 -265 -159.5 -400t-446.5 -135h-236zM328 557
q0 -138 88.5 -225.5t226.5 -87.5q135 0 223 83.5t88 227.5q0 145 -88.5 230t-224.5 85q-137 0 -225 -87t-88 -226zM334 1556h186q10 -75 52 -112t108 -37t108 37t52 112h186q-9 -160 -101.5 -249.5t-244.5 -89.5t-244.5 89.5t-101.5 249.5z" />
    <glyph glyph-name="Gdotaccent" unicode="&#x120;" horiz-adv-x="1679" 
d="M864 -29q-217 0 -394 98.5t-279.5 278t-102.5 404.5t102 404t279.5 277.5t396.5 98.5q366 0 592 -258l-192 -184q-71 88 -176 138t-224 50q-221 0 -362.5 -148t-141.5 -380q0 -233 142.5 -380t359.5 -147q189 0 313.5 110t143.5 290h-508v235h789v-104
q0 -234 -93.5 -412.5t-260.5 -274.5t-384 -96zM725 1683v318h254v-318h-254z" />
    <glyph glyph-name="gdotaccent" unicode="&#x121;" 
d="M348 -408v230h242q173 0 263 68t91 214v48q-54 -65 -139 -99.5t-191 -34.5q-150 0 -272.5 66t-195 190t-72.5 283q0 158 72.5 284t194.5 194.5t269 68.5q108 0 201.5 -39.5t151.5 -112.5l2 131h225v-956q0 -265 -159.5 -400t-446.5 -135h-236zM328 557
q0 -138 88.5 -225.5t226.5 -87.5q135 0 223 83.5t88 227.5q0 145 -88.5 230t-224.5 85q-137 0 -225 -87t-88 -226zM551 1264v317h254v-317h-254z" />
    <glyph glyph-name="uni0122" unicode="&#x122;" horiz-adv-x="1679" 
d="M864 -29q-217 0 -394 98.5t-279.5 278t-102.5 404.5t102 404t279.5 277.5t396.5 98.5q366 0 592 -258l-192 -184q-71 88 -176 138t-224 50q-221 0 -362.5 -148t-141.5 -380q0 -233 142.5 -380t359.5 -147q189 0 313.5 110t143.5 290h-508v235h789v-104
q0 -234 -93.5 -412.5t-260.5 -274.5t-384 -96zM680 -408l51 289h250l-107 -289h-194z" />
    <glyph glyph-name="uni0123" unicode="&#x123;" 
d="M348 -408v230h242q173 0 263 68t91 214v48q-54 -65 -139 -99.5t-191 -34.5q-150 0 -272.5 66t-195 190t-72.5 283q0 158 72.5 284t194.5 194.5t269 68.5q108 0 201.5 -39.5t151.5 -112.5l2 131h225v-956q0 -265 -159.5 -400t-446.5 -135h-236zM328 557
q0 -138 88.5 -225.5t226.5 -87.5q135 0 223 83.5t88 227.5q0 145 -88.5 230t-224.5 85q-137 0 -225 -87t-88 -226zM553 1243l106 285h195l-51 -285h-250z" />
    <glyph glyph-name="Hcircumflex" unicode="&#x124;" horiz-adv-x="1433" 
d="M1001 0v641h-569v-641h-266v1503h266v-608h569v608h267v-1503h-267zM356 1663l238 338h246l237 -338h-200l-162 192l-162 -192h-197z" />
    <glyph glyph-name="hcircumflex" unicode="&#x125;" horiz-adv-x="1142" 
d="M127 0v1581h254v-350q0 -88 -4 -236q96 113 272 113q180 0 279.5 -120.5t99.5 -338.5v-649h-254v633q0 117 -49.5 177t-144.5 60q-97 0 -148 -60t-51 -177v-633h-254zM233 1669l238 338h246l237 -338h-200l-162 193l-162 -193h-197z" />
    <glyph glyph-name="Hbar" unicode="&#x126;" horiz-adv-x="1462" 
d="M1016 0v612h-570v-612h-266v1079h-114v209h114v215h266v-215h570v215h266v-215h115v-209h-115v-1079h-266zM446 866h570v213h-570v-213z" />
    <glyph glyph-name="hbar" unicode="&#x127;" horiz-adv-x="1142" 
d="M127 0v1229h-96v201h96v151h254v-151h303v-201h-303q0 -86 -4 -234q96 113 272 113q180 0 279.5 -120.5t99.5 -338.5v-649h-254v633q0 117 -49.5 177t-144.5 60q-97 0 -148 -60t-51 -177v-633h-254z" />
    <glyph glyph-name="Itilde" unicode="&#x128;" horiz-adv-x="598" 
d="M166 0v1503h266v-1503h-266zM-90 1677q0 141 62 213t163 72q46 0 89.5 -16.5t71 -37t60.5 -37t60 -16.5q73 0 76 103h167q0 -137 -61 -212t-164 -75q-58 0 -110.5 27.5t-94 54.5t-73.5 27q-75 0 -78 -103h-168z" />
    <glyph glyph-name="itilde" unicode="&#x129;" horiz-adv-x="505" 
d="M127 0v1083h254v-1083h-254zM-135 1257q0 141 62 213t163 72q58 0 110.5 -26.5t95 -53t75.5 -26.5q72 0 75 102h168q0 -137 -61 -212t-164 -75q-58 0 -110.5 27.5t-94 54.5t-73.5 27q-75 0 -78 -103h-168z" />
    <glyph glyph-name="Imacron" unicode="&#x12a;" horiz-adv-x="598" 
d="M166 0v1503h266v-1503h-266zM-59 1724v193h716v-193h-716z" />
    <glyph glyph-name="imacron" unicode="&#x12b;" horiz-adv-x="505" 
d="M-63 1305v190h632v-190h-632zM127 0v1083h254v-1083h-254z" />
    <glyph glyph-name="Ibreve" unicode="&#x12c;" horiz-adv-x="598" 
d="M166 0v1503h266v-1503h-266zM-47 1976h186q10 -75 52 -112t108 -37t108 37t52 112h186q-9 -160 -101.5 -250t-244.5 -90t-244.5 90t-101.5 250z" />
    <glyph glyph-name="ibreve" unicode="&#x12d;" horiz-adv-x="505" 
d="M127 0v1083h254v-1083h-254zM-92 1556h186q10 -75 52 -112t108 -37t108 37t52 112h186q-9 -160 -101.5 -249.5t-244.5 -89.5t-244.5 89.5t-101.5 249.5z" />
    <glyph glyph-name="Iogonek" unicode="&#x12e;" horiz-adv-x="598" 
d="M166 0v1503h266v-1503q-158 -65 -158 -160q0 -40 25.5 -63t69.5 -23q27 0 75 10v-157q-59 -15 -112 -15q-111 0 -177.5 57.5t-66.5 155.5q0 110 88 195h-10z" />
    <glyph glyph-name="iogonek" unicode="&#x12f;" horiz-adv-x="505" 
d="M127 1264v317h254v-317h-254zM35 -195q0 116 92 199v1079h254v-1083h-2q-158 -65 -158 -160q0 -40 25 -63t69 -23q28 0 76 10v-157q-58 -15 -112 -15q-111 0 -177.5 57.5t-66.5 155.5z" />
    <glyph glyph-name="Idotaccent" unicode="&#x130;" horiz-adv-x="598" 
d="M166 0v1503h266v-1503h-266zM172 1683v318h254v-318h-254z" />
    <glyph glyph-name="dotlessi" unicode="&#x131;" horiz-adv-x="505" 
d="M127 0v1083h254v-1083h-254z" />
    <glyph glyph-name="IJ" unicode="&#x132;" horiz-adv-x="1363" 
d="M166 0v1503h266v-1503h-266zM643 -14v254h102q106 0 151.5 46t45.5 156v1061h266v-1061q0 -224 -110.5 -340t-321.5 -116h-133z" />
    <glyph glyph-name="ij" unicode="&#x133;" horiz-adv-x="1011" 
d="M127 0v1083h254v-1083h-254zM127 1264v317h254v-317h-254zM446 -408v236h41q77 0 111.5 33t34.5 108v1114h254v-1124q0 -178 -95.5 -272.5t-279.5 -94.5h-66zM633 1264v317h254v-317h-254z" />
    <glyph glyph-name="Jcircumflex" unicode="&#x134;" horiz-adv-x="765" 
d="M45 -14v254h102q106 0 151.5 46t45.5 156v1061h266v-1061q0 -224 -110.5 -340t-321.5 -116h-133zM117 1663l237 338h246l238 -338h-201l-162 192l-162 -192h-196z" />
    <glyph glyph-name="jcircumflex" unicode="&#x135;" horiz-adv-x="505" 
d="M-59 -408v236h41q77 0 111 33t34 108v1114h254v-1124q0 -178 -95.5 -272.5t-279.5 -94.5h-65zM-106 1243l237 338h246l237 -338h-200l-162 193l-162 -193h-196z" />
    <glyph glyph-name="uni0136" unicode="&#x136;" horiz-adv-x="1257" 
d="M936 0l-504 672v-672h-266v1503h266v-614l481 606h318l-561 -704l594 -791h-328zM481 -408l51 289h250l-106 -289h-195z" />
    <glyph glyph-name="uni0137" unicode="&#x137;" horiz-adv-x="1032" 
d="M729 0l-348 479v-479h-254v1581h254v-928l344 430h289l-400 -510l420 -573h-305zM367 -408l51 289h250l-107 -289h-194z" />
    <glyph glyph-name="kgreenlandic" unicode="&#x138;" horiz-adv-x="1032" 
d="M729 0l-348 471v-471h-254v1083h254v-438l348 438h289l-402 -518l418 -565h-305z" />
    <glyph glyph-name="Lacute" unicode="&#x139;" horiz-adv-x="1013" 
d="M166 0v1503h266v-1255h549v-248h-815zM174 1663l217 338h293l-287 -338h-223z" />
    <glyph glyph-name="lacute" unicode="&#x13a;" horiz-adv-x="505" 
d="M127 0v1581h254v-1581h-254zM129 1741l217 338h293l-287 -338h-223z" />
    <glyph glyph-name="uni013B" unicode="&#x13b;" horiz-adv-x="1013" 
d="M166 0v1503h266v-1255h549v-248h-815zM403 -408l52 289h250l-107 -289h-195z" />
    <glyph glyph-name="uni013C" unicode="&#x13c;" horiz-adv-x="505" 
d="M127 0v1581h254v-1581h-254zM78 -408l51 289h250l-107 -289h-194z" />
    <glyph glyph-name="Lcaron" unicode="&#x13d;" horiz-adv-x="1013" 
d="M166 0v1503h266v-1255h549v-248h-815zM586 1147l26 434h242l-84 -434h-184z" />
    <glyph glyph-name="lcaron" unicode="&#x13e;" horiz-adv-x="505" 
d="M127 0v1581h254v-1581h-254zM498 1147l26 434h242l-84 -434h-184z" />
    <glyph glyph-name="Ldot" unicode="&#x13f;" horiz-adv-x="1052" 
d="M166 0v1503h266v-1255h549v-248h-815zM688 639v264h258v-264h-258z" />
    <glyph glyph-name="ldot" unicode="&#x140;" horiz-adv-x="849" 
d="M127 0v1581h254v-1581h-254zM549 584v264h258v-264h-258z" />
    <glyph glyph-name="Lslash" unicode="&#x141;" horiz-adv-x="1077" 
d="M88 496v262l139 73v672h267v-530l301 160v-263l-301 -159v-463h548v-248h-815v569z" />
    <glyph glyph-name="lslash" unicode="&#x142;" horiz-adv-x="688" 
d="M221 0v606l-151 -90v258l151 90v717h254v-569l152 90v-258l-152 -90v-754h-254z" />
    <glyph glyph-name="Nacute" unicode="&#x143;" horiz-adv-x="1470" 
d="M166 0v1503h248l637 -1026v1026h252v-1503h-246l-639 1024v-1024h-252zM623 1663l217 338h293l-287 -338h-223z" />
    <glyph glyph-name="nacute" unicode="&#x144;" horiz-adv-x="1128" 
d="M115 645q0 217 119 340t331 123q211 0 331 -123t120 -340v-645h-254v637q0 113 -51.5 173t-145.5 60q-95 0 -145.5 -59.5t-50.5 -173.5v-637h-254v645zM440 1243l217 338h293l-286 -338h-224z" />
    <glyph glyph-name="uni0145" unicode="&#x145;" horiz-adv-x="1470" 
d="M166 0v1503h248l637 -1026v1026h252v-1503h-246l-639 1024v-1024h-252zM557 -408l51 289h250l-106 -289h-195z" />
    <glyph glyph-name="uni0146" unicode="&#x146;" horiz-adv-x="1128" 
d="M115 645q0 217 119 340t331 123q211 0 331 -123t120 -340v-645h-254v637q0 113 -51.5 173t-145.5 60q-95 0 -145.5 -59.5t-50.5 -173.5v-637h-254v645zM389 -408l51 289h250l-106 -289h-195z" />
    <glyph glyph-name="Ncaron" unicode="&#x147;" horiz-adv-x="1470" 
d="M166 0v1503h248l637 -1026v1026h252v-1503h-246l-639 1024v-1024h-252zM387 2001h201l162 -193l161 193h197l-238 -338h-245z" />
    <glyph glyph-name="ncaron" unicode="&#x148;" horiz-adv-x="1128" 
d="M115 645q0 217 119 340t331 123q211 0 331 -123t120 -340v-645h-254v637q0 113 -51.5 173t-145.5 60q-95 0 -145.5 -59.5t-50.5 -173.5v-637h-254v645zM205 1581h201l161 -192l162 192h197l-238 -338h-246z" />
    <glyph glyph-name="Eng" unicode="&#x14a;" horiz-adv-x="1470" 
d="M737 -408v254h103q102 0 147.5 43t48.5 144l-618 989v-1022h-252v1503h248l637 -1026v1026h252v-1454q0 -223 -110 -340t-321 -117h-135z" />
    <glyph glyph-name="eng" unicode="&#x14b;" horiz-adv-x="1128" 
d="M575 -408v236h41q77 0 111.5 33t34.5 108v668q0 113 -51.5 173t-145.5 60q-95 0 -145.5 -59.5t-50.5 -173.5v-637h-254v645q0 217 119 340t331 123q211 0 331 -123t120 -340v-686q0 -178 -95.5 -272.5t-279.5 -94.5h-66z" />
    <glyph glyph-name="Omacron" unicode="&#x14c;" horiz-adv-x="1732" 
d="M866 -29q-216 0 -393.5 98.5t-281 278t-103.5 404.5q0 169 60.5 315t164.5 247.5t247.5 159.5t305.5 58t305.5 -58t248 -159.5t165 -247.5t60.5 -315t-60.5 -315t-165 -248t-248 -160t-305.5 -58zM365 752q0 -114 38.5 -212.5t105.5 -167t159.5 -107t197.5 -38.5
q214 0 358 147.5t144 377.5t-144 378t-358 148q-141 0 -255 -66t-180 -186.5t-66 -273.5zM508 1724v193h717v-193h-717z" />
    <glyph glyph-name="omacron" unicode="&#x14d;" horiz-adv-x="1277" 
d="M639 -29q-157 0 -286.5 73t-205 204t-75.5 293t75.5 292.5t205 202.5t286.5 72t286.5 -72t205 -202.5t75.5 -292.5t-75.5 -293t-205 -204t-286.5 -73zM281 1305v192h716v-192h-716zM326 541q0 -145 89 -237.5t224 -92.5t224 92.5t89 237.5t-89 237t-224 92t-224 -92
t-89 -237z" />
    <glyph glyph-name="Obreve" unicode="&#x14e;" horiz-adv-x="1732" 
d="M866 -29q-216 0 -393.5 98.5t-281 278t-103.5 404.5q0 169 60.5 315t164.5 247.5t247.5 159.5t305.5 58t305.5 -58t248 -159.5t165 -247.5t60.5 -315t-60.5 -315t-165 -248t-248 -160t-305.5 -58zM365 752q0 -114 38.5 -212.5t105.5 -167t159.5 -107t197.5 -38.5
q214 0 358 147.5t144 377.5t-144 378t-358 148q-141 0 -255 -66t-180 -186.5t-66 -273.5zM520 1976h187q10 -75 51.5 -112t107.5 -37t108 37t52 112h186q-9 -160 -101.5 -250t-244.5 -90t-244.5 90t-101.5 250z" />
    <glyph glyph-name="obreve" unicode="&#x14f;" horiz-adv-x="1277" 
d="M639 -29q-157 0 -286.5 73t-205 204t-75.5 293t75.5 292.5t205 202.5t286.5 72t286.5 -72t205 -202.5t75.5 -292.5t-75.5 -293t-205 -204t-286.5 -73zM293 1556h186q10 -75 52 -112t108 -37t108 37t52 112h186q-9 -160 -101.5 -249.5t-244.5 -89.5t-244.5 89.5
t-101.5 249.5zM326 541q0 -145 89 -237.5t224 -92.5t224 92.5t89 237.5t-89 237t-224 92t-224 -92t-89 -237z" />
    <glyph glyph-name="Ohungarumlaut" unicode="&#x150;" horiz-adv-x="1732" 
d="M866 -29q-216 0 -393.5 98.5t-281 278t-103.5 404.5q0 169 60.5 315t164.5 247.5t247.5 159.5t305.5 58t305.5 -58t248 -159.5t165 -247.5t60.5 -315t-60.5 -315t-165 -248t-248 -160t-305.5 -58zM365 752q0 -114 38.5 -212.5t105.5 -167t159.5 -107t197.5 -38.5
q214 0 358 147.5t144 377.5t-144 378t-358 148q-141 0 -255 -66t-180 -186.5t-66 -273.5zM549 1663l123 338h233l-162 -338h-194zM965 1663l137 338h233l-176 -338h-194z" />
    <glyph glyph-name="ohungarumlaut" unicode="&#x151;" horiz-adv-x="1277" 
d="M639 -29q-157 0 -286.5 73t-205 204t-75.5 293t75.5 292.5t205 202.5t286.5 72t286.5 -72t205 -202.5t75.5 -292.5t-75.5 -293t-205 -204t-286.5 -73zM322 1243l122 338h234l-162 -338h-194zM326 541q0 -145 89 -237.5t224 -92.5t224 92.5t89 237.5t-89 237t-224 92
t-224 -92t-89 -237zM737 1243l137 338h234l-176 -338h-195z" />
    <glyph glyph-name="OE" unicode="&#x152;" horiz-adv-x="2273" 
d="M866 -29q-216 0 -393.5 98.5t-281 278t-103.5 404.5q0 169 60.5 315t164.5 247.5t247.5 159.5t305.5 58q160 0 291 -56.5t219 -158.5v186h764v-248h-518v-362h510v-248h-510v-397h526v-248h-772v188q-89 -102 -219.5 -159.5t-290.5 -57.5zM365 752q0 -231 143.5 -378
t359.5 -147q217 0 358.5 146.5t141.5 378.5t-141.5 379t-358.5 147q-216 0 -359.5 -147.5t-143.5 -378.5z" />
    <glyph glyph-name="oe" unicode="&#x153;" horiz-adv-x="2101" 
d="M637 -29q-156 0 -285 73t-204.5 204t-75.5 293t75.5 292.5t204.5 202.5t285 72q136 0 250.5 -57t189.5 -160q74 102 185 158.5t243 56.5q110 0 205.5 -38t169.5 -112t113 -195.5t30 -275.5h-833q15 -130 106 -210t228 -80q206 0 329 180l168 -133q-84 -123 -211 -195
t-290 -72q-141 0 -255.5 56t-187.5 157q-77 -104 -191 -160.5t-249 -56.5zM326 541q0 -145 89 -237.5t224 -92.5t224 92.5t89 237.5t-89 237t-224 92t-224 -92t-89 -237zM1198 668h586q-23 112 -98 170.5t-185 58.5q-112 0 -193.5 -63t-109.5 -166z" />
    <glyph glyph-name="Racute" unicode="&#x154;" horiz-adv-x="1245" 
d="M887 0l-455 633v-633h-266v1503h459q230 0 360.5 -115.5t130.5 -328.5q0 -165 -105 -277.5t-288 -138.5l487 -643h-323zM432 844h178q109 0 171.5 58t62.5 157t-62 156t-172 57h-178v-428zM453 1663l217 338h293l-287 -338h-223z" />
    <glyph glyph-name="racute" unicode="&#x155;" horiz-adv-x="645" 
d="M119 717q0 366 358 366h131v-229h-106q-69 0 -99 -30.5t-30 -100.5v-723h-254v717zM268 1243l217 338h293l-286 -338h-224z" />
    <glyph glyph-name="uni0156" unicode="&#x156;" horiz-adv-x="1245" 
d="M887 0l-455 633v-633h-266v1503h459q230 0 360.5 -115.5t130.5 -328.5q0 -165 -105 -277.5t-288 -138.5l487 -643h-323zM432 844h178q109 0 171.5 58t62.5 157t-62 156t-172 57h-178v-428zM469 -408l51 289h250l-106 -289h-195z" />
    <glyph glyph-name="uni0157" unicode="&#x157;" horiz-adv-x="645" 
d="M119 717q0 366 358 366h131v-229h-106q-69 0 -99 -30.5t-30 -100.5v-723h-254v717zM70 -408l51 289h250l-107 -289h-194z" />
    <glyph glyph-name="Rcaron" unicode="&#x158;" horiz-adv-x="1245" 
d="M887 0l-455 633v-633h-266v1503h459q230 0 360.5 -115.5t130.5 -328.5q0 -165 -105 -277.5t-288 -138.5l487 -643h-323zM217 2001h201l162 -193l161 193h197l-238 -338h-245zM432 844h178q109 0 171.5 58t62.5 157t-62 156t-172 57h-178v-428z" />
    <glyph glyph-name="rcaron" unicode="&#x159;" horiz-adv-x="645" 
d="M119 717q0 366 358 366h131v-229h-106q-69 0 -99 -30.5t-30 -100.5v-723h-254v717zM33 1581h200l162 -192l162 192h197l-238 -338h-246z" />
    <glyph glyph-name="Sacute" unicode="&#x15a;" horiz-adv-x="993" 
d="M385 -18q-110 0 -266 18v252q164 -16 260 -16q137 0 202.5 44t65.5 136q0 61 -35.5 111.5t-122.5 107.5l-159 102q-232 152 -232 385q0 188 130.5 294t361.5 106q88 0 221 -19v-237q-148 18 -213 18q-233 0 -233 -154q0 -53 32.5 -97t106.5 -91l139 -90
q141 -91 206.5 -195.5t65.5 -236.5q0 -209 -138.5 -323.5t-391.5 -114.5zM356 1663l217 338h293l-286 -338h-224z" />
    <glyph glyph-name="sacute" unicode="&#x15b;" horiz-adv-x="786" 
d="M311 -14q-75 0 -215 14v219q115 -16 203 -16q84 0 124 24.5t40 75.5q0 39 -27 73t-92 79l-68 47q-100 69 -145 138.5t-45 158.5q0 140 99.5 219.5t277.5 79.5q79 0 170 -15v-200q-76 10 -137 10q-164 0 -164 -90q0 -30 26.5 -59.5t90.5 -71.5l65 -45q110 -75 159.5 -151
t49.5 -171q0 -151 -108.5 -235t-303.5 -84zM238 1243l217 338h293l-287 -338h-223z" />
    <glyph glyph-name="Scircumflex" unicode="&#x15c;" horiz-adv-x="993" 
d="M385 -18q-110 0 -266 18v252q164 -16 260 -16q137 0 202.5 44t65.5 136q0 61 -35.5 111.5t-122.5 107.5l-159 102q-232 152 -232 385q0 188 130.5 294t361.5 106q88 0 221 -19v-237q-148 18 -213 18q-233 0 -233 -154q0 -53 32.5 -97t106.5 -91l139 -90
q141 -91 206.5 -195.5t65.5 -236.5q0 -209 -138.5 -323.5t-391.5 -114.5zM121 1663l237 338h246l238 -338h-201l-162 192l-162 -192h-196z" />
    <glyph glyph-name="scircumflex" unicode="&#x15d;" horiz-adv-x="786" 
d="M311 -14q-75 0 -215 14v219q115 -16 203 -16q84 0 124 24.5t40 75.5q0 39 -27 73t-92 79l-68 47q-100 69 -145 138.5t-45 158.5q0 140 99.5 219.5t277.5 79.5q79 0 170 -15v-200q-76 10 -137 10q-164 0 -164 -90q0 -30 26.5 -59.5t90.5 -71.5l65 -45q110 -75 159.5 -151
t49.5 -171q0 -151 -108.5 -235t-303.5 -84zM2 1243l238 338h245l238 -338h-201l-162 193l-161 -193h-197z" />
    <glyph glyph-name="Scedilla" unicode="&#x15e;" horiz-adv-x="993" 
d="M385 -18q-110 0 -266 18v252q164 -16 260 -16q137 0 202.5 44t65.5 136q0 61 -35.5 111.5t-122.5 107.5l-159 102q-232 152 -232 385q0 188 130.5 294t361.5 106q88 0 221 -19v-237q-148 18 -213 18q-233 0 -233 -154q0 -53 32.5 -97t106.5 -91l139 -90
q141 -91 206.5 -195.5t65.5 -236.5q0 -209 -138.5 -323.5t-391.5 -114.5zM227 -408l113 289h272l-166 -289h-219z" />
    <glyph glyph-name="scedilla" unicode="&#x15f;" horiz-adv-x="786" 
d="M311 -14q-75 0 -215 14v219q115 -16 203 -16q84 0 124 24.5t40 75.5q0 39 -27 73t-92 79l-68 47q-100 69 -145 138.5t-45 158.5q0 140 99.5 219.5t277.5 79.5q79 0 170 -15v-200q-76 10 -137 10q-164 0 -164 -90q0 -30 26.5 -59.5t90.5 -71.5l65 -45q110 -75 159.5 -151
t49.5 -171q0 -151 -108.5 -235t-303.5 -84zM123 -408l113 289h272l-166 -289h-219z" />
    <glyph glyph-name="Scaron" unicode="&#x160;" horiz-adv-x="993" 
d="M385 -18q-110 0 -266 18v252q164 -16 260 -16q137 0 202.5 44t65.5 136q0 61 -35.5 111.5t-122.5 107.5l-159 102q-232 152 -232 385q0 188 130.5 294t361.5 106q88 0 221 -19v-237q-148 18 -213 18q-233 0 -233 -154q0 -53 32.5 -97t106.5 -91l139 -90
q141 -91 206.5 -195.5t65.5 -236.5q0 -209 -138.5 -323.5t-391.5 -114.5zM121 2001h201l161 -193l162 193h197l-238 -338h-246z" />
    <glyph glyph-name="scaron" unicode="&#x161;" horiz-adv-x="786" 
d="M311 -14q-75 0 -215 14v219q115 -16 203 -16q84 0 124 24.5t40 75.5q0 39 -27 73t-92 79l-68 47q-100 69 -145 138.5t-45 158.5q0 140 99.5 219.5t277.5 79.5q79 0 170 -15v-200q-76 10 -137 10q-164 0 -164 -90q0 -30 26.5 -59.5t90.5 -71.5l65 -45q110 -75 159.5 -151
t49.5 -171q0 -151 -108.5 -235t-303.5 -84zM2 1581h201l162 -192l161 192h197l-238 -338h-245z" />
    <glyph glyph-name="uni0162" unicode="&#x162;" horiz-adv-x="1048" 
d="M391 0v1255h-360v248h987v-248h-361v-1255h-266zM264 -408l113 289h272l-166 -289h-219z" />
    <glyph glyph-name="uni0163" unicode="&#x163;" horiz-adv-x="649" 
d="M195 0l2 854h-131v229h131v289l254 86v-375h133v-229h-133l-2 -854h-254zM61 -408l113 289h272l-165 -289h-220z" />
    <glyph glyph-name="Tcaron" unicode="&#x164;" horiz-adv-x="1048" 
d="M391 0v1255h-360v248h987v-248h-361v-1255h-266zM164 2001h201l161 -193l162 193h197l-238 -338h-246z" />
    <glyph glyph-name="tcaron" unicode="&#x165;" horiz-adv-x="649" 
d="M195 0l2 854h-131v229h131v289l254 86v-375h133v-229h-133l-2 -854h-254zM567 1147l27 434h242l-84 -434h-185z" />
    <glyph glyph-name="Tbar" unicode="&#x166;" horiz-adv-x="1107" 
d="M166 633v209h254v413h-359v248h986v-248h-359v-413h254v-209h-254v-633h-268v633h-254z" />
    <glyph glyph-name="tbar" unicode="&#x167;" horiz-adv-x="655" 
d="M199 0v498h-129v200h129v156h-129v229h129v289l254 86v-375h135v-229h-135v-156h135v-200h-135v-498h-254z" />
    <glyph glyph-name="Utilde" unicode="&#x168;" horiz-adv-x="1400" 
d="M698 -29q-259 0 -402.5 157t-143.5 443v932h266v-913q0 -181 71 -273t209 -92q140 0 212.5 92.5t72.5 272.5v913h266v-932q0 -286 -145 -443t-406 -157zM311 1677q0 141 62.5 213t163.5 72q58 0 110.5 -27t94.5 -53.5t75 -26.5q73 0 76 103h168q0 -137 -61 -212t-164 -75
q-46 0 -89.5 17t-71 37.5t-60 37.5t-58.5 17q-75 0 -78 -103h-168z" />
    <glyph glyph-name="utilde" unicode="&#x169;" horiz-adv-x="1128" 
d="M1014 438q0 -217 -119.5 -340t-331.5 -123q-211 0 -330.5 123t-119.5 340v645h254v-637q0 -113 51 -173t145 -60q96 0 146.5 59.5t50.5 173.5v637h254v-645zM172 1257q0 141 62 213t163 72q58 0 110.5 -26.5t95 -53t75.5 -26.5q73 0 76 102h168q0 -137 -61.5 -212
t-164.5 -75q-58 0 -110.5 27.5t-94 54.5t-73.5 27q-75 0 -78 -103h-168z" />
    <glyph glyph-name="Umacron" unicode="&#x16a;" horiz-adv-x="1400" 
d="M698 -29q-259 0 -402.5 157t-143.5 443v932h266v-913q0 -181 71 -273t209 -92q140 0 212.5 92.5t72.5 272.5v913h266v-932q0 -286 -145 -443t-406 -157zM342 1724v193h717v-193h-717z" />
    <glyph glyph-name="umacron" unicode="&#x16b;" horiz-adv-x="1128" 
d="M1014 438q0 -217 -119.5 -340t-331.5 -123q-211 0 -330.5 123t-119.5 340v645h254v-637q0 -113 51 -173t145 -60q96 0 146.5 59.5t50.5 173.5v637h254v-645zM203 1305v192h717v-192h-717z" />
    <glyph glyph-name="Ubreve" unicode="&#x16c;" horiz-adv-x="1400" 
d="M698 -29q-259 0 -402.5 157t-143.5 443v932h266v-913q0 -181 71 -273t209 -92q140 0 212.5 92.5t72.5 272.5v913h266v-932q0 -286 -145 -443t-406 -157zM354 1976h187q10 -75 51.5 -112t107.5 -37t108 37t52 112h187q-9 -160 -102 -250t-245 -90t-244.5 90t-101.5 250z
" />
    <glyph glyph-name="ubreve" unicode="&#x16d;" horiz-adv-x="1128" 
d="M1014 438q0 -217 -119.5 -340t-331.5 -123q-211 0 -330.5 123t-119.5 340v645h254v-637q0 -113 51 -173t145 -60q96 0 146.5 59.5t50.5 173.5v637h254v-645zM215 1556h186q10 -75 52 -112t108 -37t108 37t52 112h186q-9 -160 -101.5 -249.5t-244.5 -89.5t-244.5 89.5
t-101.5 249.5z" />
    <glyph glyph-name="Uring" unicode="&#x16e;" horiz-adv-x="1400" 
d="M698 -29q-259 0 -402.5 157t-143.5 443v932h266v-913q0 -181 71 -273t209 -92q140 0 212.5 92.5t72.5 272.5v913h266v-932q0 -286 -145 -443t-406 -157zM487 1819q0 87 58 140.5t155 53.5t154 -53.5t57 -140.5q0 -88 -57 -142.5t-154 -54.5t-155 55t-58 142zM610 1819
q0 -42 25 -67.5t65 -25.5q39 0 65 25.5t26 67.5q0 41 -25.5 64.5t-65.5 23.5q-41 0 -65.5 -23t-24.5 -65z" />
    <glyph glyph-name="uring" unicode="&#x16f;" horiz-adv-x="1128" 
d="M1014 438q0 -217 -119.5 -340t-331.5 -123q-211 0 -330.5 123t-119.5 340v645h254v-637q0 -113 51 -173t145 -60q96 0 146.5 59.5t50.5 173.5v637h254v-645zM348 1399q0 87 58 140.5t155 53.5t154 -53.5t57 -140.5q0 -88 -57 -142.5t-154 -54.5t-155 55t-58 142z
M471 1399q0 -42 25 -67t65 -25q39 0 64.5 25t25.5 67t-25 65t-65 23q-41 0 -65.5 -23t-24.5 -65z" />
    <glyph glyph-name="Uhungarumlaut" unicode="&#x170;" horiz-adv-x="1400" 
d="M698 -29q-259 0 -402.5 157t-143.5 443v932h266v-913q0 -181 71 -273t209 -92q140 0 212.5 92.5t72.5 272.5v913h266v-932q0 -286 -145 -443t-406 -157zM383 1663l123 338h233l-161 -338h-195zM799 1663l137 338h233l-176 -338h-194z" />
    <glyph glyph-name="uhungarumlaut" unicode="&#x171;" horiz-adv-x="1128" 
d="M1014 438q0 -217 -119.5 -340t-331.5 -123q-211 0 -330.5 123t-119.5 340v645h254v-637q0 -113 51 -173t145 -60q96 0 146.5 59.5t50.5 173.5v637h254v-645zM244 1243l123 338h233l-162 -338h-194zM659 1243l138 338h233l-176 -338h-195z" />
    <glyph glyph-name="Uogonek" unicode="&#x172;" horiz-adv-x="1400" 
d="M795 -408q-111 0 -177.5 57.5t-66.5 155.5q0 95 63 170q-221 25 -341.5 179.5t-120.5 416.5v932h266v-913q0 -181 71 -273t209 -92q140 0 212.5 92.5t72.5 272.5v913h266v-932q0 -228 -94.5 -376t-269.5 -199q-74 -32 -111 -69.5t-37 -86.5q0 -40 25 -63t69 -23
q28 0 76 10v-157q-59 -15 -112 -15z" />
    <glyph glyph-name="uogonek" unicode="&#x173;" horiz-adv-x="1128" 
d="M1014 438q0 -179 -82.5 -295t-233.5 -153q-135 -61 -135 -150q0 -40 25 -63t69 -23q28 0 76 10v-157q-59 -15 -112 -15q-111 0 -177.5 57.5t-66.5 155.5q0 104 74 181q-160 31 -249 149t-89 303v645h254v-637q0 -113 51 -173t145 -60q96 0 146.5 59.5t50.5 173.5v637h254
v-645z" />
    <glyph glyph-name="Wcircumflex" unicode="&#x174;" horiz-adv-x="2082" 
d="M449 0l-402 1503h275l276 -1083l320 1083h249l330 -1087l268 1087h269l-398 -1503h-262l-332 1077l-331 -1077h-262zM684 1663l238 338h245l238 -338h-201l-162 192l-161 -192h-197z" />
    <glyph glyph-name="wcircumflex" unicode="&#x175;" horiz-adv-x="1722" 
d="M371 0l-344 1083h266l221 -745l238 745h235l232 -727l225 727h260l-361 -1083h-233l-246 727l-246 -727h-247zM510 1243l238 338h245l238 -338h-201l-162 193l-161 -193h-197z" />
    <glyph glyph-name="Ycircumflex" unicode="&#x176;" horiz-adv-x="1255" 
d="M498 0v590l-473 913h301l307 -626l305 626h281l-455 -913v-590h-266zM272 1663l238 338h246l237 -338h-200l-162 192l-162 -192h-197z" />
    <glyph glyph-name="ycircumflex" unicode="&#x177;" horiz-adv-x="1118" 
d="M264 -408l178 453l-434 1038h283l284 -729l265 729h266l-576 -1491h-266zM209 1243l237 338h246l238 -338h-201l-162 193l-161 -193h-197z" />
    <glyph glyph-name="Ydieresis" unicode="&#x178;" horiz-adv-x="1255" 
d="M498 0v590l-473 913h301l307 -626l305 626h281l-455 -913v-590h-266zM266 1698v262h230v-262h-230zM772 1698v262h227v-262h-227z" />
    <glyph glyph-name="Zacute" unicode="&#x179;" horiz-adv-x="1138" 
d="M37 0v35l643 1214h-586l45 254h944v-35l-641 -1214h631l-43 -254h-993zM481 1663l217 338h293l-286 -338h-224z" />
    <glyph glyph-name="zacute" unicode="&#x17a;" horiz-adv-x="966" 
d="M43 0v35l489 819h-456l35 229h798v-34l-489 -820h493l-36 -229h-834zM381 1243l217 338h293l-287 -338h-223z" />
    <glyph glyph-name="Zdotaccent" unicode="&#x17b;" horiz-adv-x="1138" 
d="M37 0v35l643 1214h-586l45 254h944v-35l-641 -1214h631l-43 -254h-993zM479 1683v318h254v-318h-254z" />
    <glyph glyph-name="zdotaccent" unicode="&#x17c;" horiz-adv-x="966" 
d="M43 0v35l489 819h-456l35 229h798v-34l-489 -820h493l-36 -229h-834zM379 1264v317h254v-317h-254z" />
    <glyph glyph-name="Zcaron" unicode="&#x17d;" horiz-adv-x="1138" 
d="M37 0v35l643 1214h-586l45 254h944v-35l-641 -1214h631l-43 -254h-993zM246 2001h200l162 -193l162 193h197l-238 -338h-246z" />
    <glyph glyph-name="zcaron" unicode="&#x17e;" horiz-adv-x="966" 
d="M43 0v35l489 819h-456l35 229h798v-34l-489 -820h493l-36 -229h-834zM145 1581h201l162 -192l162 192h196l-237 -338h-246z" />
    <glyph glyph-name="florin" unicode="&#x192;" horiz-adv-x="811" 
d="M90 -408v254h41q77 0 110 33t33 109v798h-127v254h127v119q0 161 93.5 252.5t261.5 91.5h90v-254h-39q-72 0 -104.5 -31.5t-32.5 -103.5v-74h137v-254h-137v-827q0 -178 -95.5 -272.5t-279.5 -94.5h-78z" />
    <glyph glyph-name="uni0218" unicode="&#x218;" horiz-adv-x="993" 
d="M385 -18q-110 0 -266 18v252q164 -16 260 -16q137 0 202.5 44t65.5 136q0 61 -35.5 111.5t-122.5 107.5l-159 102q-232 152 -232 385q0 188 130.5 294t361.5 106q88 0 221 -19v-237q-148 18 -213 18q-233 0 -233 -154q0 -53 32.5 -97t106.5 -91l139 -90
q141 -91 206.5 -195.5t65.5 -236.5q0 -209 -138.5 -323.5t-391.5 -114.5zM309 -408l51 289h250l-106 -289h-195z" />
    <glyph glyph-name="uni0219" unicode="&#x219;" horiz-adv-x="786" 
d="M311 -14q-75 0 -215 14v219q115 -16 203 -16q84 0 124 24.5t40 75.5q0 39 -27 73t-92 79l-68 47q-100 69 -145 138.5t-45 158.5q0 140 99.5 219.5t277.5 79.5q79 0 170 -15v-200q-76 10 -137 10q-164 0 -164 -90q0 -30 26.5 -59.5t90.5 -71.5l65 -45q110 -75 159.5 -151
t49.5 -171q0 -151 -108.5 -235t-303.5 -84zM205 -408l51 289h250l-107 -289h-194z" />
    <glyph glyph-name="uni021A" unicode="&#x21a;" horiz-adv-x="1048" 
d="M391 0v1255h-360v248h987v-248h-361v-1255h-266zM348 -408l51 289h250l-106 -289h-195z" />
    <glyph glyph-name="uni021B" unicode="&#x21b;" horiz-adv-x="649" 
d="M195 0l2 854h-131v229h131v289l254 86v-375h133v-229h-133l-2 -854h-254zM145 -408l52 289h249l-106 -289h-195z" />
    <glyph glyph-name="uni0237" unicode="&#x237;" horiz-adv-x="505" 
d="M-59 -408v236h41q77 0 111 33t34 108v1114h254v-1124q0 -178 -95.5 -272.5t-279.5 -94.5h-65z" />
    <glyph glyph-name="circumflex" unicode="&#x2c6;" horiz-adv-x="1249" 
d="M264 1243l238 338h246l237 -338h-201l-161 193l-162 -193h-197z" />
    <glyph glyph-name="caron" unicode="&#x2c7;" horiz-adv-x="1249" 
d="M502 1243l-238 338h201l162 -192l161 192h197l-237 -338h-246z" />
    <glyph glyph-name="breve" unicode="&#x2d8;" horiz-adv-x="1220" 
d="M612 1217q-152 0 -244.5 89.5t-101.5 249.5h187q10 -75 51.5 -112t107.5 -37t108 37t52 112h186q-9 -160 -101.5 -249.5t-244.5 -89.5z" />
    <glyph glyph-name="dotaccent" unicode="&#x2d9;" horiz-adv-x="780" 
d="M264 1264v317h254v-317h-254z" />
    <glyph glyph-name="ring" unicode="&#x2da;" horiz-adv-x="950" 
d="M475 1202q-97 0 -155 55t-58 142t58 140.5t155 53.5t154 -53.5t57 -140.5q0 -88 -57 -142.5t-154 -54.5zM385 1399q0 -42 25 -67t65 -25q39 0 64.5 25t25.5 67t-25 65t-65 23q-41 0 -65.5 -23t-24.5 -65z" />
    <glyph glyph-name="ogonek" unicode="&#x2db;" horiz-adv-x="882" 
d="M506 -408q-111 0 -177.5 57.5t-66.5 155.5q0 205 289 310l55 -115q-157 -64 -157 -160q0 -40 25 -63t69 -23q27 0 75 10v-157q-58 -15 -112 -15z" />
    <glyph glyph-name="tilde" unicode="&#x2dc;" horiz-adv-x="1275" 
d="M786 1251q-58 0 -110.5 27.5t-94 54.5t-73.5 27q-75 0 -78 -103h-168q0 141 62 213t163 72q58 0 110.5 -26.5t95 -53t75.5 -26.5q73 0 76 102h168q0 -137 -61.5 -212t-164.5 -75z" />
    <glyph glyph-name="hungarumlaut" unicode="&#x2dd;" 
d="M680 1243l137 338h234l-177 -338h-194zM264 1243l123 338h234l-162 -338h-195z" />
    <glyph glyph-name="gravecomb" unicode="&#x300;" horiz-adv-x="0" 
d="M514 1243l-287 338h297l217 -338h-227z" />
    <glyph glyph-name="acutecomb" unicode="&#x301;" horiz-adv-x="0" 
d="M489 1243l218 338h292l-286 -338h-224z" />
    <glyph glyph-name="uni0302" unicode="&#x302;" horiz-adv-x="0" 
d="M254 1243l238 338h245l238 -338h-201l-162 193l-161 -193h-197z" />
    <glyph glyph-name="tildecomb" unicode="&#x303;" horiz-adv-x="0" 
d="M750 1251q-46 0 -89.5 17t-71 37.5t-60 37.5t-58.5 17q-75 0 -78 -103h-168q0 141 62.5 213t163.5 72q46 0 89 -16.5t71 -36.5t60.5 -36.5t59.5 -16.5q73 0 76 102h168q0 -137 -61 -212t-164 -75z" />
    <glyph glyph-name="uni0304" unicode="&#x304;" horiz-adv-x="0" 
d="M256 1305v192h717v-192h-717z" />
    <glyph glyph-name="uni0306" unicode="&#x306;" horiz-adv-x="0" 
d="M614 1217q-152 0 -244.5 89.5t-101.5 249.5h187q10 -75 51.5 -112t107.5 -37t108 37t52 112h187q-9 -160 -102 -249.5t-245 -89.5z" />
    <glyph glyph-name="uni0307" unicode="&#x307;" horiz-adv-x="0" 
d="M487 1264v317h254v-317h-254z" />
    <glyph glyph-name="uni0308" unicode="&#x308;" horiz-adv-x="0" 
d="M754 1278v262h227v-262h-227zM248 1278v262h229v-262h-229z" />
    <glyph glyph-name="uni030A" unicode="&#x30a;" horiz-adv-x="0" 
d="M614 1202q-97 0 -155 55t-58 142t58 140.5t155 53.5t154 -53.5t57 -140.5q0 -88 -57 -142.5t-154 -54.5zM524 1399q0 -42 25 -67t65 -25q39 0 65 25t26 67q0 41 -25.5 64.5t-65.5 23.5q-41 0 -65.5 -23t-24.5 -65z" />
    <glyph glyph-name="uni030B" unicode="&#x30b;" horiz-adv-x="0" 
d="M713 1243l137 338h233l-176 -338h-194zM297 1243l123 338h233l-161 -338h-195z" />
    <glyph glyph-name="uni030C" unicode="&#x30c;" horiz-adv-x="0" 
d="M492 1243l-238 338h201l161 -192l162 192h197l-238 -338h-245z" />
    <glyph glyph-name="uni0312" unicode="&#x312;" horiz-adv-x="0" 
d="M489 1243l107 285h195l-52 -285h-250z" />
    <glyph glyph-name="uni0326" unicode="&#x326;" horiz-adv-x="0" 
d="M438 -408l51 289h250l-106 -289h-195z" />
    <glyph glyph-name="uni0327" unicode="&#x327;" horiz-adv-x="0" 
d="M545 -408h-219l112 289h273z" />
    <glyph glyph-name="uni0328" unicode="&#x328;" horiz-adv-x="0" 
d="M520 -408q-111 0 -177.5 57.5t-66.5 155.5q0 205 289 310l56 -115q-158 -65 -158 -160q0 -40 25 -63t69 -23q28 0 76 10v-157q-59 -15 -113 -15z" />
    <glyph glyph-name="uni03A9" unicode="&#x3a9;" horiz-adv-x="1748" 
d="M100 0v225h320q-141 105 -219 255t-78 333q0 155 56.5 288.5t155 228t238.5 148.5t301 54q215 0 386.5 -92t267.5 -256.5t96 -370.5q0 -183 -77.5 -332.5t-217.5 -255.5h320v-225h-623v242q156 93 241 236t85 308q0 219 -133.5 355.5t-344.5 136.5q-212 0 -344.5 -136
t-132.5 -356q0 -165 85 -308t241 -236v-242h-623z" />
    <glyph glyph-name="pi" unicode="&#x3c0;" horiz-adv-x="1232" 
d="M1094 -4q-174 0 -264.5 90t-90.5 260v508h-278v-854h-254v854h-154v229h1092v-229h-152v-489q0 -72 29.5 -103t95.5 -31h29v-235h-53z" />
    <glyph glyph-name="Wgrave" unicode="&#x1e80;" horiz-adv-x="2082" 
d="M449 0l-402 1503h275l276 -1083l320 1083h249l330 -1087l268 1087h269l-398 -1503h-262l-332 1077l-331 -1077h-262zM657 2001h297l217 -338h-227z" />
    <glyph glyph-name="wgrave" unicode="&#x1e81;" horiz-adv-x="1722" 
d="M371 0l-344 1083h266l221 -745l238 745h235l232 -727l225 727h260l-361 -1083h-233l-246 727l-246 -727h-247zM483 1581h297l217 -338h-227z" />
    <glyph glyph-name="Wacute" unicode="&#x1e82;" horiz-adv-x="2082" 
d="M449 0l-402 1503h275l276 -1083l320 1083h249l330 -1087l268 1087h269l-398 -1503h-262l-332 1077l-331 -1077h-262zM920 1663l217 338h293l-287 -338h-223z" />
    <glyph glyph-name="wacute" unicode="&#x1e83;" horiz-adv-x="1722" 
d="M371 0l-344 1083h266l221 -745l238 745h235l232 -727l225 727h260l-361 -1083h-233l-246 727l-246 -727h-247zM745 1243l218 338h292l-286 -338h-224z" />
    <glyph glyph-name="Wdieresis" unicode="&#x1e84;" horiz-adv-x="2082" 
d="M449 0l-402 1503h275l276 -1083l320 1083h249l330 -1087l268 1087h269l-398 -1503h-262l-332 1077l-331 -1077h-262zM678 1698v262h229v-262h-229zM1184 1698v262h227v-262h-227z" />
    <glyph glyph-name="wdieresis" unicode="&#x1e85;" horiz-adv-x="1722" 
d="M371 0l-344 1083h266l221 -745l238 745h235l232 -727l225 727h260l-361 -1083h-233l-246 727l-246 -727h-247zM504 1278v262h229v-262h-229zM1010 1278v262h227v-262h-227z" />
    <glyph glyph-name="uni1E9E" unicode="&#x1e9e;" horiz-adv-x="1425" 
d="M827 -18q-96 0 -204 18v246q114 -21 174 -21q129 0 202.5 65.5t73.5 180.5q0 116 -80.5 178t-230.5 62h-80v204l231 340h-481v-1255h-266v1503h1046v-205l-262 -399q188 -26 288.5 -137.5t100.5 -296.5q0 -223 -138 -353t-374 -130z" />
    <glyph glyph-name="Ygrave" unicode="&#x1ef2;" horiz-adv-x="1255" 
d="M498 0v590l-473 913h301l307 -626l305 626h281l-455 -913v-590h-266zM246 2001h297l217 -338h-228z" />
    <glyph glyph-name="ygrave" unicode="&#x1ef3;" horiz-adv-x="1118" 
d="M264 -408l178 453l-434 1038h283l284 -729l265 729h266l-576 -1491h-266zM182 1581h297l217 -338h-227z" />
    <glyph glyph-name="endash" unicode="&#x2013;" horiz-adv-x="1107" 
d="M123 549v239h864v-239h-864z" />
    <glyph glyph-name="emdash" unicode="&#x2014;" horiz-adv-x="1796" 
d="M123 549v239h1550v-239h-1550z" />
    <glyph glyph-name="quoteleft" unicode="&#x2018;" horiz-adv-x="503" 
d="M88 909l131 594h187l-56 -594h-262z" />
    <glyph glyph-name="quoteright" unicode="&#x2019;" horiz-adv-x="491" 
d="M111 909l55 594h260l-129 -594h-186z" />
    <glyph glyph-name="quotesinglbase" unicode="&#x201a;" horiz-adv-x="509" 
d="M82 -313l55 594h262l-131 -594h-186z" />
    <glyph glyph-name="quotedblleft" unicode="&#x201c;" horiz-adv-x="878" 
d="M88 909l131 594h187l-56 -594h-262zM463 909l131 594h186l-55 -594h-262z" />
    <glyph glyph-name="quotedblright" unicode="&#x201d;" horiz-adv-x="866" 
d="M111 909l55 594h260l-129 -594h-186zM485 909l56 594h260l-129 -594h-187z" />
    <glyph glyph-name="quotedblbase" unicode="&#x201e;" horiz-adv-x="884" 
d="M82 -313l55 594h262l-131 -594h-186zM457 -313l55 594h262l-131 -594h-186z" />
    <glyph glyph-name="dagger" unicode="&#x2020;" horiz-adv-x="985" 
d="M367 340v709h-279v239h279v293h254v-293h276v-239h-276v-709h-254z" />
    <glyph glyph-name="daggerdbl" unicode="&#x2021;" horiz-adv-x="1058" 
d="M403 340v276h-278v226h278v237h-278v224h278v278h254v-278h277v-224h-277v-237h277v-226h-277v-276h-254z" />
    <glyph glyph-name="bullet" unicode="&#x2022;" horiz-adv-x="751" 
d="M375 430q-107 0 -174.5 66t-67.5 172t67.5 172.5t174.5 66.5q108 0 175.5 -66.5t67.5 -172.5t-67 -172t-176 -66z" />
    <glyph glyph-name="ellipsis" unicode="&#x2026;" horiz-adv-x="1488" 
d="M121 0v274h254v-274h-254zM616 0v274h254v-274h-254zM1114 0v274h254v-274h-254z" />
    <glyph glyph-name="perthousand" unicode="&#x2030;" horiz-adv-x="2426" 
d="M207 0l1020 1495h272l-1020 -1495h-272zM70 1165q0 161 101 259t263 98t263.5 -98.5t101.5 -258.5t-101.5 -258t-263.5 -98t-263 98t-101 258zM283 1165q0 -67 41.5 -108t109.5 -41q66 0 108 41t42 108t-42 108.5t-108 41.5q-68 0 -109.5 -41.5t-41.5 -108.5zM913 338
q0 158 97 258t252 100q154 0 250 -100t96 -258q0 -157 -96.5 -256.5t-249.5 -99.5q-155 0 -252 99.5t-97 256.5zM1128 338q0 -66 37 -105.5t97 -39.5t95.5 39.5t35.5 105.5q0 67 -35.5 107t-95.5 40t-97 -40t-37 -107zM1671 338q0 159 96.5 258.5t251.5 99.5t251.5 -99.5
t96.5 -258.5q0 -157 -96.5 -256.5t-251.5 -99.5t-251.5 99.5t-96.5 256.5zM1886 338q0 -66 36.5 -105.5t96.5 -39.5t96.5 39.5t36.5 105.5q0 67 -36.5 107t-96.5 40t-96.5 -40t-36.5 -107z" />
    <glyph glyph-name="guilsinglleft" unicode="&#x2039;" horiz-adv-x="727" 
d="M358 160l-266 407l266 408h258l-247 -406l252 -409h-263z" />
    <glyph glyph-name="guilsinglright" unicode="&#x203a;" horiz-adv-x="724" 
d="M109 160l247 403l-252 412h265l264 -410l-264 -405h-260z" />
    <glyph glyph-name="fraction" unicode="&#x2044;" horiz-adv-x="557" 
d="M-354 0l1020 1495h247l-1022 -1495h-245z" />
    <glyph glyph-name="uni2074" unicode="&#x2074;" horiz-adv-x="811" 
d="M483 655v123h-456v154l436 651h217v-627h84v-178h-84v-123h-197zM254 956h229v349z" />
    <glyph glyph-name="Euro" unicode="&#x20ac;" horiz-adv-x="1376" 
d="M1049 -18q-283 0 -484.5 144.5t-269.5 393.5h-189v182h160q-2 16 -2 50q0 25 4 79h-162v181h197q74 236 273 373t473 137q91 0 213 -17v-245q-119 18 -197 18q-170 0 -293.5 -69t-183.5 -197h528l-37 -181h-542q-5 -68 -5 -79l3 -50h540l-37 -182h-463
q57 -140 184 -217.5t304 -77.5q83 0 199 21v-246q-108 -18 -213 -18z" />
    <glyph glyph-name="uni20B9" unicode="&#x20b9;" horiz-adv-x="1175" 
d="M698 0l-565 596v176h244q245 0 287 186h-533v181h533q-43 184 -287 184h-246v180h954v-164h-256q82 -79 105 -200h151v-181h-147q-22 -162 -137.5 -264.5t-302.5 -122.5l555 -571h-355z" />
    <glyph glyph-name="uni20BA" unicode="&#x20ba;" horiz-adv-x="1269" 
d="M293 0v621l-187 -62v189l187 61v111l-187 -62v189l187 61v395h266v-307l381 127v-188l-381 -127v-111l381 127v-188l-381 -127v-461h90q152 0 219.5 69.5t67.5 225.5v86h262v-82q0 -266 -133.5 -406.5t-388.5 -140.5h-383z" />
    <glyph glyph-name="uni20BD" unicode="&#x20bd;" horiz-adv-x="1347" 
d="M121 270v181h166v139h-166v180h166v733h452q239 0 377.5 -121.5t138.5 -334.5q0 -211 -139 -334t-377 -123h-186v-139h405v-181h-405v-270h-266v270h-166zM553 831h184q118 0 183 56t65 157q0 100 -65 154.5t-183 54.5h-184v-422z" />
    <glyph glyph-name="uni20BF" unicode="&#x20bf;" horiz-adv-x="1296" 
d="M180 20v1463h170v114h178v-114h103l53 -2v116h178v-147q128 -42 197 -130.5t69 -217.5q0 -110 -50 -191.5t-142 -124.5q119 -38 182.5 -126t63.5 -218q0 -150 -84.5 -253.5t-235.5 -145.5v-160h-178v137h-10h-146v-137h-178v137h-170zM446 256h228q114 0 175.5 51
t61.5 150t-62.5 148.5t-180.5 49.5h-222v-399zM446 889h203q103 0 161 48t58 134q0 85 -57 130.5t-162 45.5h-203v-358z" />
    <glyph glyph-name="trademark" unicode="&#x2122;" horiz-adv-x="1878" 
d="M762 745v758h338l145 -481l148 481h333v-758h-198v580l-193 -580h-184l-190 576v-576h-199zM76 1286v217h588v-217h-181v-541h-227v541h-180z" />
    <glyph glyph-name="arrowleft" unicode="&#x2190;" horiz-adv-x="1662" 
d="M977 1274l-504 -494h1092v-223h-1092l504 -494h-328l-534 535v141l534 535h328z" />
    <glyph glyph-name="arrowup" unicode="&#x2191;" horiz-adv-x="1421" 
d="M96 641v328l535 534h160l534 -534v-328l-494 506v-1147h-241v1145z" />
    <glyph glyph-name="arrowright" unicode="&#x2192;" horiz-adv-x="1662" 
d="M686 63l504 494h-1092v223h1092l-504 494h328l534 -535v-141l-534 -535h-328z" />
    <glyph glyph-name="arrowdown" unicode="&#x2193;" horiz-adv-x="1425" 
d="M1327 854v-328l-534 -534h-160l-535 534v328l494 -506v1147h242v-1145z" />
    <glyph glyph-name="uni2196" unicode="&#x2196;" horiz-adv-x="1378" 
d="M1012 1503l231 -231l-704 6l770 -772l-158 -158l-772 774l6 -706l-231 231v756l100 100h758z" />
    <glyph glyph-name="uni2197" unicode="&#x2197;" horiz-adv-x="1378" 
d="M367 1503h757l101 -100v-756l-232 -231l6 706l-772 -774l-157 158l770 772l-705 -6z" />
    <glyph glyph-name="uni2198" unicode="&#x2198;" horiz-adv-x="1359" 
d="M356 0l-231 231l704 -6l-770 772l158 158l772 -774l-6 706l231 -231v-756l-100 -100h-758z" />
    <glyph glyph-name="uni2199" unicode="&#x2199;" horiz-adv-x="1359" 
d="M1004 0h-758l-101 100v756l232 231l-6 -706l772 774l157 -158l-770 -772l705 6z" />
    <glyph glyph-name="partialdiff" unicode="&#x2202;" horiz-adv-x="1288" 
d="M549 -29q-227 0 -365.5 137.5t-138.5 354.5q0 166 77.5 306t214 222t300.5 82q138 0 240 -61q-155 249 -492 374l109 211q330 -110 518 -350.5t188 -546.5q0 -206 -81 -372t-230 -261.5t-340 -95.5zM301 496q0 -129 75 -207t199 -78q150 0 254.5 111.5t104.5 267.5
q0 126 -75 200t-200 74q-151 0 -254.5 -106.5t-103.5 -261.5z" />
    <glyph glyph-name="uni2206" unicode="&#x2206;" horiz-adv-x="1390" 
d="M53 0l510 1503h260l514 -1503h-1284zM401 231h584l-295 910z" />
    <glyph glyph-name="product" unicode="&#x220f;" horiz-adv-x="1349" 
d="M168 -313v1816h1014v-1816h-267v1562h-481v-1562h-266z" />
    <glyph glyph-name="summation" unicode="&#x2211;" horiz-adv-x="1204" 
d="M61 -313v49l486 860l-486 858v49h1051v-254h-633l375 -653l-375 -655h633v-254h-1051z" />
    <glyph glyph-name="minus" unicode="&#x2212;" horiz-adv-x="1105" 
d="M123 584v237h860v-237h-860z" />
    <glyph glyph-name="radical" unicode="&#x221a;" horiz-adv-x="1341" 
d="M319 -313l-331 878h282l191 -542l444 1558h455v-254h-262l-467 -1640h-312z" />
    <glyph glyph-name="infinity" unicode="&#x221e;" horiz-adv-x="1789" 
d="M1262 293q-225 0 -361 209l-10 16l-2 -2q-78 -111 -165.5 -167t-203.5 -56q-174 0 -288.5 115t-114.5 299t115.5 298.5t295.5 114.5q227 0 361 -209l10 -16l2 2q78 111 165.5 167t203.5 56q174 0 287.5 -114.5t113.5 -298.5q0 -185 -114.5 -299.5t-294.5 -114.5zM358 707
q0 -83 48.5 -133t128.5 -50q57 0 101 31t91 98l37 54l-37 55q-45 65 -89.5 96t-102.5 31q-80 0 -128.5 -49.5t-48.5 -132.5zM1026 709l37 -56q45 -66 89.5 -97.5t102.5 -31.5q80 0 128.5 50t48.5 133t-48.5 132.5t-128.5 49.5q-57 0 -101 -31t-91 -96z" />
    <glyph glyph-name="integral" unicode="&#x222b;" horiz-adv-x="768" 
d="M33 -313v254h41q76 0 107 32t36 109l74 1153q11 165 100 255.5t254 90.5h90l-2 -254h-39q-71 0 -101.5 -31t-35.5 -104l-74 -1141q-22 -364 -374 -364h-76z" />
    <glyph glyph-name="approxequal" unicode="&#x2248;" horiz-adv-x="1105" 
d="M758 756q-78 0 -148 22.5t-136 45t-134 22.5q-117 0 -217 -64v211q109 64 227 64q76 0 146 -22.5t136 -45t134 -22.5q121 0 219 63v-211q-103 -63 -227 -63zM123 385v211q108 63 227 63q76 0 146 -22.5t136 -45t134 -22.5q119 0 219 64v-211q-104 -64 -227 -64
q-62 0 -120.5 14t-97 31.5t-92.5 31.5t-108 14q-117 0 -217 -64z" />
    <glyph glyph-name="notequal" unicode="&#x2260;" horiz-adv-x="1105" 
d="M123 795v200h463l73 166h197l-74 -166h201v-200h-291l-84 -187h375v-198h-463l-74 -166h-196l74 166h-201v198h289l84 187h-373z" />
    <glyph glyph-name="lessequal" unicode="&#x2264;" horiz-adv-x="1105" 
d="M981 440l-864 260v287l864 258v-233l-612 -166l612 -168v-238zM123 152v215h858v-215h-858z" />
    <glyph glyph-name="greaterequal" unicode="&#x2265;" horiz-adv-x="1105" 
d="M125 440v234l610 168l-610 168v235l864 -258v-287zM125 152v215h858v-215h-858z" />
    <glyph glyph-name="lozenge" unicode="&#x25ca;" horiz-adv-x="1202" 
d="M446 0l-346 754l346 751h308l348 -751l-348 -754h-308zM346 754l254 -553l256 553l-254 553z" />
    <glyph glyph-name="zero.dnom" horiz-adv-x="851" 
d="M426 -20q-178 0 -275.5 125.5t-97.5 357.5t97.5 356.5t275.5 124.5t275.5 -124.5t97.5 -356.5q0 -233 -97.5 -358t-275.5 -125zM276 463q0 -134 39 -204.5t111 -70.5q71 0 110 70t39 205q0 134 -39 205t-110 71t-110.5 -70.5t-39.5 -205.5z" />
    <glyph glyph-name="one.dnom" horiz-adv-x="446" 
d="M139 0v719h-94v209h311v-928h-217z" />
    <glyph glyph-name="two.dnom" horiz-adv-x="739" 
d="M49 0v156l322 329q86 86 86 156q0 43 -27 69.5t-72 26.5q-47 0 -80 -29.5t-45 -86.5l-196 51q25 129 111 198.5t219 69.5q140 0 224.5 -76t84.5 -200q0 -51 -14.5 -98t-42.5 -87.5t-52.5 -68.5t-60.5 -62l-152 -147h332v-201h-637z" />
    <glyph glyph-name="three.dnom" horiz-adv-x="780" 
d="M383 -8q-86 0 -156.5 25.5t-125 86.5t-74.5 152l202 63q12 -67 53.5 -100t102.5 -33q57 0 92 28t35 75q0 45 -31.5 71.5t-89.5 26.5h-67v174h59q46 0 73 26t27 66q0 39 -28.5 64.5t-75.5 25.5q-53 0 -88 -32.5t-47 -92.5l-197 46q28 131 117 202.5t225 71.5
q138 0 222.5 -68.5t84.5 -183.5q0 -65 -29 -115.5t-81 -78.5q72 -26 109.5 -81.5t37.5 -131.5q0 -130 -97 -208.5t-253 -78.5z" />
    <glyph glyph-name="four.dnom" horiz-adv-x="811" 
d="M483 0v123h-456v153l436 652h217v-627h84v-178h-84v-123h-197zM254 301h229v348z" />
    <glyph glyph-name="five.dnom" horiz-adv-x="761" 
d="M371 -8q-133 0 -229.5 67.5t-118.5 192.5l202 49q9 -52 46 -84.5t94 -32.5q58 0 91 33t33 86q0 54 -33.5 86.5t-88.5 32.5q-68 0 -111 -53l-180 45l69 514h537v-195h-371l-26 -160q62 29 137 29q133 0 213 -82.5t80 -212.5q0 -142 -95.5 -228.5t-248.5 -86.5z" />
    <glyph glyph-name="six.dnom" horiz-adv-x="757" 
d="M383 -10q-153 0 -245.5 88t-92.5 231q0 138 105 320l176 299h247q-114 -158 -204 -307q36 4 57 4q137 0 221 -85t84 -221q0 -147 -96 -238t-252 -91zM256 315q0 -56 37 -92.5t94 -36.5q58 0 94.5 37t36.5 94t-36 93t-93 36q-58 0 -95.5 -37t-37.5 -94z" />
    <glyph glyph-name="seven.dnom" horiz-adv-x="688" 
d="M94 0l318 719h-377v209h629v-160l-332 -768h-238z" />
    <glyph glyph-name="eight.dnom" horiz-adv-x="796" 
d="M399 -12q-162 0 -256 77t-94 203q0 80 39 140t111 88q-111 59 -111 190q0 112 83.5 182t227.5 70q143 0 226.5 -69t83.5 -183q0 -131 -109 -190q70 -28 110 -88.5t40 -139.5q0 -126 -94.5 -203t-256.5 -77zM270 289q0 -48 34 -78.5t95 -30.5t94 30.5t33 78.5
q0 50 -33.5 78t-93.5 28t-94.5 -28.5t-34.5 -77.5zM293 659q0 -40 29.5 -66t76.5 -26t76 26t29 66q0 41 -28.5 67t-76.5 26q-49 0 -77.5 -26t-28.5 -67z" />
    <glyph glyph-name="nine.dnom" horiz-adv-x="757" 
d="M184 0q124 172 203 307q-32 -4 -55 -4q-138 0 -221.5 84t-83.5 221q0 147 96 237.5t252 90.5q154 0 246 -87.5t92 -232.5q0 -134 -105 -319l-176 -297h-248zM240 610q0 -57 36 -93t93 -36q58 0 95.5 37t37.5 94q0 55 -37 91t-94 36q-58 0 -94.5 -36t-36.5 -93z" />
    <glyph glyph-name="zero.numr" horiz-adv-x="851" 
d="M426 557q-178 0 -275.5 125.5t-97.5 357.5t97.5 357t275.5 125t275.5 -125t97.5 -357q0 -233 -97.5 -358t-275.5 -125zM276 1040q0 -134 39 -204t111 -70q71 0 110 69.5t39 204.5q0 134 -39 205.5t-110 71.5t-110.5 -71t-39.5 -206z" />
    <glyph glyph-name="one.numr" horiz-adv-x="446" 
d="M139 578v718h-94v209h311v-927h-217z" />
    <glyph glyph-name="two.numr" horiz-adv-x="739" 
d="M49 578v155l322 330q86 86 86 156q0 43 -27 69.5t-72 26.5q-47 0 -80 -30t-45 -87l-196 51q25 129 111.5 199t218.5 70q140 0 224.5 -76.5t84.5 -200.5q0 -51 -14.5 -97.5t-42.5 -87t-52.5 -68.5t-60.5 -62l-152 -148h332v-200h-637z" />
    <glyph glyph-name="three.numr" horiz-adv-x="780" 
d="M383 569q-86 0 -156.5 25.5t-125 87t-74.5 152.5l202 63q12 -67 53.5 -100t102.5 -33q57 0 92 27.5t35 74.5q0 45 -32 72t-89 27h-67v174h59q46 0 73 26t27 66q0 39 -28.5 64.5t-75.5 25.5q-53 0 -88 -32.5t-47 -92.5l-197 45q28 131 117 203t225 72q138 0 222.5 -68.5
t84.5 -183.5q0 -65 -29 -116t-81 -79q72 -26 109.5 -81.5t37.5 -131.5q0 -130 -97 -208.5t-253 -78.5z" />
    <glyph glyph-name="four.numr" horiz-adv-x="811" 
d="M483 578v122h-456v154l436 651h217v-626h84v-179h-84v-122h-197zM254 879h229v348z" />
    <glyph glyph-name="five.numr" horiz-adv-x="761" 
d="M371 569q-133 0 -229.5 67.5t-118.5 192.5l202 50q9 -52 46 -84.5t94 -32.5q58 0 91 33t33 86q0 54 -33 86t-89 32q-68 0 -111 -53l-180 45l69 514h537v-194h-371l-26 -160q62 29 137 29q133 0 213 -82.5t80 -212.5q0 -142 -95.5 -229t-248.5 -87z" />
    <glyph glyph-name="six.numr" horiz-adv-x="757" 
d="M383 567q-153 0 -245.5 88.5t-92.5 231.5q0 137 105 319l176 299h247q-114 -158 -204 -307q36 4 57 4q137 0 221 -84.5t84 -220.5q0 -147 -96 -238.5t-252 -91.5zM256 893q0 -56 37 -92.5t94 -36.5q58 0 94.5 37t36.5 94t-36 93t-93 36q-58 0 -95.5 -37t-37.5 -94z" />
    <glyph glyph-name="seven.numr" horiz-adv-x="688" 
d="M94 578l318 718h-377v209h629v-159l-332 -768h-238z" />
    <glyph glyph-name="eight.numr" horiz-adv-x="796" 
d="M399 565q-162 0 -256 77.5t-94 203.5q0 80 39 139.5t111 87.5q-111 59 -111 191q0 112 83.5 182t227.5 70q143 0 226.5 -69t83.5 -183q0 -132 -109 -191q70 -28 110 -88t40 -139q0 -126 -94.5 -203.5t-256.5 -77.5zM270 866q0 -47 34 -77.5t95 -30.5t94 30t33 78
q0 50 -33.5 78.5t-93.5 28.5t-94.5 -28.5t-34.5 -78.5zM293 1237q0 -40 29.5 -66t76.5 -26t76 26t29 66q0 41 -28 66.5t-77 25.5t-77.5 -25.5t-28.5 -66.5z" />
    <glyph glyph-name="nine.numr" horiz-adv-x="757" 
d="M184 578q124 172 203 307q-32 -4 -55 -4q-138 0 -221.5 84t-83.5 221q0 146 96 236.5t252 90.5q154 0 246 -87t92 -232q0 -135 -105 -320l-176 -296h-248zM240 1188q0 -57 36 -93t93 -36q58 0 95.5 37t37.5 94q0 55 -37 91t-94 36q-58 0 -94.5 -36t-36.5 -93z" />
    <glyph glyph-name="caron.alt" horiz-adv-x="1228" 
d="M731 1147l27 434h241l-84 -434h-184z" />
    </font>
</defs>
</svg>
