<svg xmlns="http://www.w3.org/2000/svg" width="29.093" height="21.029" viewBox="0 0 29.093 21.029"><path d="M352.459-965.284a5,5,0,0,1-5-5v-11.028a5,5,0,0,1,5-5h19.093a5,5,0,0,1,5,5v11.028a5,5,0,0,1-5,5Zm-3-16.028v11.028a3,3,0,0,0,3,3h19.093a3,3,0,0,0,3-3v-11.028a2.981,2.981,0,0,0-.447-1.573l-11.559,7.6a1.007,1.007,0,0,1-.55.164,1.007,1.007,0,0,1-.55-.164L349.9-982.878A2.982,2.982,0,0,0,349.459-981.312Zm12.539,4,10.463-6.854a2.991,2.991,0,0,0-.909-.141H352.459a2.992,2.992,0,0,0-.876.13Z" transform="translate(-347.459 986.313)"/></svg>