<svg id="Logo_BIGFIVE_ARRONDI" data-name="Logo BIGFIVE ARRONDI" xmlns="http://www.w3.org/2000/svg" xmlns:xlink="http://www.w3.org/1999/xlink" width="288.341" height="212.937" viewBox="0 0 288.341 212.937">
  <defs>
    <linearGradient id="linear-gradient" x1="0.5" x2="0.5" y2="1" gradientUnits="objectBoundingBox">
      <stop offset="0" stop-color="#82368c"/>
      <stop offset="1" stop-color="#27348b"/>
    </linearGradient>
  </defs>
  <text id="Laissez_votre_empreinte" data-name="Laissez votre empreinte" transform="translate(144.341 207.937)" font-size="20" font-family="NewOrder-Semibold, New Order" font-weight="600" letter-spacing="0.095em"><tspan x="-144" y="0">LAISSEZ VOTRE EMPREINTE</tspan></text>
  <g id="logo_BIGFIVE_ARRONDI-2" data-name="logo BIGFIVE ARRONDI" transform="translate(-1337 -56.479)">
    <path id="Tracé_29" data-name="Tracé 29" d="M34.518,184.006h0a13.312,13.312,0,0,0,13.061-9.968L88.824,21.086A13.583,13.583,0,0,0,75.763,3.9h0A13.312,13.312,0,0,0,62.7,13.868L21.457,166.82A13.583,13.583,0,0,0,34.518,184.006Z" transform="translate(1373.974 54.641)" fill="url(#linear-gradient)"/>
    <path id="Union_2" data-name="Union 2" d="M113.769,46.4C114.113,17.529,136.11,0,163.264,0c20.623,0,33,10.311,39.183,22L179.762,33.684a18.654,18.654,0,0,0-16.5-9.624c-13.061,0-21.654,9.968-21.654,22.341s8.593,22.341,21.654,22.341c5.843,0,11-1.375,14.436-4.125V60.837H160.514V38.5h43.308V74.242c-9.968,11-23.373,18.217-40.9,18.217C135.767,92.459,113.769,74.929,113.769,46.4ZM0,90.74V1.719H54.307c18.561,0,26.466,12.373,26.466,22.685,0,11-6.53,18.56-15.123,20.623C75.273,46.4,82.491,55.338,82.491,66.68c0,12.373-8.593,24.06-26.466,24.06Zm26.81-22H48.464a5.955,5.955,0,0,0,6.187-6.187,6.155,6.155,0,0,0-6.187-6.187H26.81Zm0-34.028H47.776a5.73,5.73,0,0,0,5.5-5.843,5.429,5.429,0,0,0-5.5-5.5H26.81Z" transform="translate(1337 56.479)" fill="#010202"/>
    <path id="Union_1" data-name="Union 1" d="M145.047,93.146h0L110.676,0h31.965l19.935,62.556L182.512,0h31.966L180.106,93.146Zm71.492,0V0h70.8V23.373h-42.62v11h41.589V57.744H244.724v12.03H287V93.146ZM0,93.146V0H79.054V23.373H28.185v11H78.367V57.744H28.185v35.4Z" transform="translate(1337 145.5)" fill="#010202"/>
  </g>
</svg>
