<svg xmlns="http://www.w3.org/2000/svg" xmlns:xlink="http://www.w3.org/1999/xlink" width="122" height="93.52" viewBox="0 0 122 93.52">
  <defs>
    <linearGradient id="linear-gradient" x1="0.5" x2="0.5" y2="1" gradientUnits="objectBoundingBox">
      <stop offset="0" stop-color="#82368c"/>
      <stop offset="1" stop-color="#27348b"/>
    </linearGradient>
  </defs>
  <g id="logo-alt" transform="translate(0.659)">
    <text id="Laissez_votre_empreinte" data-name="Laissez votre empreinte" transform="translate(60.341 91.52)" fill="#fff" font-size="8.4" font-family="NewOrder-Semibold, New Order" font-weight="600" letter-spacing="0.095em"><tspan x="-60.48" y="0">LAISSEZ VOTRE EMPREINTE</tspan></text>
    <g id="logo_BIGFIVE_ARRONDI" data-name="logo BIGFIVE ARRONDI" transform="translate(-1337 -56.479)">
      <path id="Tracé_29" data-name="Tracé 29" d="M26.659,79.66h0a5.6,5.6,0,0,0,5.494-4.193L49.5,11.129A5.713,5.713,0,0,0,44.009,3.9h0a5.6,5.6,0,0,0-5.494,4.193L21.165,72.431A5.713,5.713,0,0,0,26.659,79.66Z" transform="translate(1341.974 54.641)" fill="url(#linear-gradient)"/>
      <path id="Union_2" data-name="Union 2" d="M47.681,19.447C47.825,7.347,57.045,0,68.425,0c8.643,0,13.829,4.322,16.422,9.219l-9.507,4.9a7.818,7.818,0,0,0-6.915-4.034c-5.474,0-9.075,4.178-9.075,9.363s3.6,9.363,9.075,9.363a9.734,9.734,0,0,0,6.05-1.729V25.5h-7.2V16.134H85.423V31.115A22.34,22.34,0,0,1,68.281,38.75C56.9,38.75,47.681,31.4,47.681,19.447ZM0,38.03V.72H22.76c7.779,0,11.092,5.186,11.092,9.507,0,4.61-2.737,7.779-6.338,8.643,4.033.576,7.059,4.322,7.059,9.075,0,5.186-3.6,10.084-11.092,10.084ZM11.236,28.81h9.075A2.5,2.5,0,0,0,22.9,26.217a2.58,2.58,0,0,0-2.593-2.593H11.236Zm0-14.261h8.787a2.4,2.4,0,0,0,2.3-2.449,2.275,2.275,0,0,0-2.3-2.3H11.236Z" transform="translate(1337 56.479)" fill="#fff"/>
      <path id="Union_1" data-name="Union 1" d="M60.933,39.13h0L46.494,0H59.922L68.3,26.279,76.671,0H90.1L75.661,39.13Zm30.033,0V0h29.745V9.819h-17.9v4.62h17.471v9.819H102.806v5.054h17.76V39.13ZM0,39.13V0H33.21V9.819H11.84v4.62H32.921v9.819H11.84V39.13Z" transform="translate(1337 93.148)" fill="#fff"/>
    </g>
  </g>
</svg>
