<svg xmlns="http://www.w3.org/2000/svg" width="65.886" height="23.744" viewBox="0 0 65.886 23.744">
  <g id="Logo_Selective_Live" data-name="Logo Selective Live" transform="translate(0.662 0.5)">
    <path id="Exclusion_5" data-name="Exclusion 5" d="M64.724,22.744H.188V10.824H64.724v11.92Zm-27.661-8.3,1.6,4.461h.83l1.633-4.461h-.887L39.09,17.613l-1.142-3.169Zm17.37,0h0V18.9H56.9v-.833H55.284V16.9H56.9v-.817H55.284v-.809H56.9v-.829H54.433Zm-31.461,0h0V18.9h.857V14.444h-.857Zm-15.316,0h0V18.9H9.772V18.1H8.516V14.444h-.86ZM2.58,9.365a2.516,2.516,0,0,1-1.413-.422A3.867,3.867,0,0,1,0,7.512l.728-.443c.5.96,1.1,1.447,1.768,1.447A1.643,1.643,0,0,0,3.3,8.309a1.431,1.431,0,0,0,.772-1.28,1.521,1.521,0,0,0-.289-.865A7.1,7.1,0,0,0,2.324,4.758,7.732,7.732,0,0,1,.992,3.563,2.252,2.252,0,0,1,.54,2.222a2.066,2.066,0,0,1,.269-1.04A1.887,1.887,0,0,1,1.561.438,2.137,2.137,0,0,1,2.612.167a2.228,2.228,0,0,1,1.13.309A3.858,3.858,0,0,1,4.855,1.6l-.7.54a3.325,3.325,0,0,0-.821-.861A1.363,1.363,0,0,0,2.6,1.073a1.156,1.156,0,0,0-.845.321,1.072,1.072,0,0,0-.33.792,1.34,1.34,0,0,0,.119.557,2.029,2.029,0,0,0,.421.581c.127.121.528.439,1.1.874A6.331,6.331,0,0,1,4.588,5.692,2.435,2.435,0,0,1,5,7.009a2.261,2.261,0,0,1-.707,1.654A2.336,2.336,0,0,1,2.58,9.365Zm58.747-.053a2.992,2.992,0,0,1-2.418-1.04,3.619,3.619,0,0,1-.134-4.542A3.007,3.007,0,0,1,61.282,2.5a3.1,3.1,0,0,1,2.58,1.256,3.57,3.57,0,0,1,.7,2.214H58.873a2.68,2.68,0,0,0,.7,1.849,2.223,2.223,0,0,0,1.682.723,2.68,2.68,0,0,0,.938-.17,2.436,2.436,0,0,0,.775-.459A3.9,3.9,0,0,0,63.663,7l.687.37a3.862,3.862,0,0,1-.78,1.1,3.125,3.125,0,0,1-.991.634A3.479,3.479,0,0,1,61.327,9.312ZM61.294,3.3a2.308,2.308,0,0,0-1.6.614,2.791,2.791,0,0,0-.739,1.341h4.709a2.809,2.809,0,0,0-.472-1.068,2.263,2.263,0,0,0-.825-.642A2.474,2.474,0,0,0,61.294,3.3ZM34.259,9.312a3.408,3.408,0,0,1-2.486-.975,3.232,3.232,0,0,1-.987-2.377,3.473,3.473,0,0,1,.459-1.747,3.318,3.318,0,0,1,1.272-1.26,3.641,3.641,0,0,1,1.8-.451,3.815,3.815,0,0,1,1.21.195,3.4,3.4,0,0,1,.992.512,2.755,2.755,0,0,1,.691.8l-.646.41a2.694,2.694,0,0,0-2.28-1.138,2.622,2.622,0,0,0-1.917.764A2.529,2.529,0,0,0,31.61,5.9a2.69,2.69,0,0,0,.349,1.333,2.549,2.549,0,0,0,.963.967,2.86,2.86,0,0,0,3.646-.792l.646.435A3.068,3.068,0,0,1,36,8.926,3.757,3.757,0,0,1,34.259,9.312Zm-9.568,0a3,3,0,0,1-2.418-1.04A3.569,3.569,0,0,1,21.4,5.924a3.525,3.525,0,0,1,.74-2.194A3,3,0,0,1,24.646,2.5a3.1,3.1,0,0,1,2.581,1.256,3.578,3.578,0,0,1,.7,2.214H22.237a2.689,2.689,0,0,0,.7,1.849,2.226,2.226,0,0,0,1.683.723,2.68,2.68,0,0,0,.938-.17,2.472,2.472,0,0,0,.776-.459A3.849,3.849,0,0,0,27.026,7l.688.37a3.822,3.822,0,0,1-.78,1.1,3.145,3.145,0,0,1-.991.634A3.477,3.477,0,0,1,24.69,9.312ZM24.653,3.3a2.3,2.3,0,0,0-1.6.614,2.8,2.8,0,0,0-.74,1.341h4.709a2.775,2.775,0,0,0-.471-1.068,2.267,2.267,0,0,0-.825-.642A2.479,2.479,0,0,0,24.653,3.3ZM11.3,9.312a2.992,2.992,0,0,1-2.418-1.04,3.568,3.568,0,0,1-.869-2.348A3.529,3.529,0,0,1,8.744,3.73,3.007,3.007,0,0,1,11.251,2.5a3.1,3.1,0,0,1,2.58,1.256,3.573,3.573,0,0,1,.7,2.214H8.841a2.661,2.661,0,0,0,.708,1.849,2.2,2.2,0,0,0,1.677.723,2.685,2.685,0,0,0,.939-.17,2.436,2.436,0,0,0,.775-.459,3.9,3.9,0,0,0,.7-.918l.683.37a3.905,3.905,0,0,1-.776,1.1,3.184,3.184,0,0,1-1,.634A3.479,3.479,0,0,1,11.3,9.312ZM11.263,3.3a2.308,2.308,0,0,0-1.6.614,2.777,2.777,0,0,0-.739,1.341h4.713a2.856,2.856,0,0,0-.476-1.068,2.263,2.263,0,0,0-.825-.642A2.449,2.449,0,0,0,11.263,3.3ZM52.575,9.146h-.151L49.512,2.669h.869L52.5,7.39l2.093-4.721h.873L52.575,9.145Zm-5.794,0h-.816V2.669h.816V9.145Zm-4.843,0h-.812V3.389h-1.11V2.669h1.11V.264h.813V2.669h1.288v.719H41.938V9.145Zm-23.561,0h-.814V.167h.814V9.145ZM46.371,1.377a.626.626,0,0,1-.468-.2.677.677,0,0,1-.2-.483A.694.694,0,0,1,45.9.2a.626.626,0,0,1,.468-.2.64.64,0,0,1,.475.2.685.685,0,0,1,.2.488.667.667,0,0,1-.2.483A.64.64,0,0,1,46.371,1.377Z" fill="#fff" stroke="rgba(0,0,0,0)" stroke-miterlimit="10" stroke-width="1"/>
  </g>
</svg>
