<svg xmlns="http://www.w3.org/2000/svg" xmlns:xlink="http://www.w3.org/1999/xlink" width="257.676" height="257.676" viewBox="0 0 257.676 257.676"><defs><filter id="a" x="0" y="0" width="257.676" height="257.676" filterUnits="userSpaceOnUse"><feOffset dy="3" input="SourceAlpha"/><feGaussianBlur stdDeviation="7.5" result="b"/><feFlood flood-opacity="0.161"/><feComposite operator="in" in2="b"/><feComposite in="SourceGraphic"/></filter><linearGradient id="c" x1="-7.474" y1="1.723" x2="2.179" y2="0.242" gradientUnits="objectBoundingBox"><stop offset="0" stop-color="#82368c"/><stop offset="1" stop-color="#27348b"/></linearGradient></defs><g transform="translate(22.5 19.5)"><g transform="matrix(1, 0, 0, 1, -22.5, -19.5)" filter="url(#a)"><ellipse cx="106.338" cy="106.338" rx="106.338" ry="106.338" transform="translate(22.5 19.5)" fill="#fff"/></g><path d="M0,66.406c0-9.576,5.058-17.078,12.647-20.78H2.439V.36H29.9c9.4,0,13.462,6.233,13.462,11.563,0,5.6-3.343,9.4-7.772,10.392,4.881.724,8.584,5.149,8.584,11.023a11.693,11.693,0,0,1-9.216,11.836,21.348,21.348,0,0,1,10.392,11.02L33.519,61.708a9.756,9.756,0,0,0-9.125-6.6c-6.237,0-10.663,5.061-10.572,11.383,0,6.233,4.426,11.295,10.66,11.295a9.757,9.757,0,0,0,9.124-6.6l11.836,5.422C42.823,82.576,36.77,89.8,24.574,89.8,10.752,89.8,0,80.316,0,66.406ZM15.99,34.6H27.013a3.016,3.016,0,0,0,3.163-3.071,3.085,3.085,0,0,0-3.163-3.162H15.99Zm0-17.346H26.562a2.85,2.85,0,0,0,0-5.693H15.99Zm107.061,72.1V71.372L106.066,44.09V56.015H93.959V89.353H80.228V56.015H68.121V44.09H80.768A22.285,22.285,0,0,1,68.121,23.4C68.121,8.854,79.324,0,93.055,0c10.48,0,16.717,5.242,19.876,11.112l-11.563,5.873a9.214,9.214,0,0,0-8.312-4.97c-6.594,0-11.02,4.97-11.02,11.295,0,6.234,4.426,11.292,11.02,11.292a13.278,13.278,0,0,0,7.409-2.079V30.536H91.7V19.245h22.047V37.4a29.652,29.652,0,0,1-8.493,6.417h16.262l8.4,15.267,8.313-15.267v.271h15.358l-16.8,27.282v17.98ZM49.6,89.081V.452H63.331V89.081Z" transform="translate(37.585 59.81)" fill="url(#c)"/></g></svg>