<svg xmlns="http://www.w3.org/2000/svg" xmlns:xlink="http://www.w3.org/1999/xlink" width="235.4" height="471.4" viewBox="0 0 235.4 471.4"><defs><linearGradient id="a" x2="0.004" gradientUnits="objectBoundingBox"><stop offset="0" stop-color="#82368c"/><stop offset="1" stop-color="#27348b"/></linearGradient><clipPath id="b"><circle cx="117.7" cy="117.7" r="117.7" fill="url(#a)"/></clipPath><linearGradient id="c" x1="0" y1="0.5" x2="1" y2="0.5" xlink:href="#a"/><clipPath id="e"><rect width="235.4" height="471.4"/></clipPath></defs><g id="d" clip-path="url(#e)"><g transform="translate(1003 15386)"><g transform="translate(-1003 -15150.6)"><g clip-path="url(#b)"><circle cx="117.7" cy="117.7" r="117.7" transform="translate(0 0)" fill="url(#c)"/><path d="M1041.76,19857.2l3.853-5.5a11.4,11.4,0,0,0,7.885,3.154c1.391,0,2.712-.479,2.712-1.43s-1.027-1.432-3.449-1.869c-4.032-.738-10.193-1.691-10.193-7.816,0-3.8,2.906-7.3,8.583-7.848v-14.523l-5.468,15.443h-3.3l-5.463-15.443v14.82h2.746v24.463h-7.113l-9.022-13.135v13.135h-7.407v-24.463h1.711l-3.107-7.229h-2.677v7.852h-6.4a12.147,12.147,0,0,1,7.83,11.623c0,7.521-5.832,12.656-13.388,12.656s-13.388-5.135-13.388-12.656,5.832-12.65,13.388-12.65a15.386,15.386,0,0,1,4.546.67v-24.107h2.582v-49.686H1022.4v50.1h-1.631a8.427,8.427,0,0,1,1.337,15.389l4.436,8.658h-2.356l8.078,11.7v-11.7h-2.751v-24.465h10.233l4.292,12.467,4.109-11.936c-11.693-2.643-20.339-11.764-20.339-25.125,0-16.08,12.391-25.918,27.569-25.918,11.644,0,18.552,5.861,22.006,12.316l-12.77,6.539a10.362,10.362,0,0,0-9.236-5.48c-7.287,0-12.172,5.555-12.172,12.543s4.885,12.541,12.172,12.541a14.244,14.244,0,0,0,8.185-2.252v-2.18h-9.69v-12.471h24.414v20.133a29.541,29.541,0,0,1-19.724,10v23.211a14.541,14.541,0,0,1,4.546,2.5l-3.958,5.248a12.188,12.188,0,0,0-6.824-2.424c-1.834,0-2.238.658-2.238,1.287,0,.951.992,1.281,3.594,1.719,4.037.7,10.014,1.875,10.014,7.521,0,5.389-4,8.51-10.562,8.51C1047.92,19861.1,1044.36,19859.5,1041.76,19857.2Zm-47.532-8.768a5.872,5.872,0,1,0,5.867-6.121,5.786,5.786,0,0,0-5.866,6.09Zm17.824-25.635h4.511a2.162,2.162,0,1,0,0-4.293h-4.511Zm-35.4,37.852v-24.463h6.313a12.546,12.546,0,0,1,.635-23.424H973.393v5.742h-11.15v2.861h10.9v6.162h-10.9v8.658h11.773v6.453h-6.525v18.01H960.08v-18.01h-6.565v-6.453h1.321v-23.842h.025v-49.686h30.425c10.368,0,14.874,6.908,14.874,12.771,0,6.234-3.684,10.441-8.563,11.494,5.408.826,9.54,5.781,9.54,12.24a12.944,12.944,0,0,1-9.883,13c6.234,1.047,10.751,5.816,10.751,12.436,0,7.518-5.832,12.65-13.388,12.65a15.293,15.293,0,0,1-4.551-.674v24.076Zm6.091-36.053a5.872,5.872,0,1,0,5.867-6.123,5.788,5.788,0,0,0-5.866,6.129Zm-12.71-24.154H982.2a3.312,3.312,0,0,0,3.529-3.377,3.417,3.417,0,0,0-3.529-3.459l-12.166,0Zm0-19.156h11.719a3.166,3.166,0,0,0,3-3.23,3.081,3.081,0,0,0-3-3.078l-11.718,0Zm109.17,55.523-.957-3.156h-9.386l-.957,3.156h-8.03l9.022-24.465h9.316l9.022,24.465Zm-8.439-9.316h5.578l-2.791-8.623Z" transform="translate(-901.322 -19695.012)" fill="#fff"/><path d="M1000.093,19861.59a14.4,14.4,0,0,1-9.867-3.641,12.288,12.288,0,0,1-2.951-4.166,13.9,13.9,0,0,1,0-10.7,12.269,12.269,0,0,1,2.951-4.166,12.939,12.939,0,0,1,2.172-1.617,16.013,16.013,0,0,1-3.781.443h-.058a15.8,15.8,0,0,1-3.993-.512v23.914h-8.409v-25.463H980.9a13.052,13.052,0,0,1,.409-22.424h-7.415V19819h-11.15v1.861h10.9v7.162h-10.9v7.658h11.773v7.453h-6.525v18.01H959.58v-18.01h-6.565v-7.453h1.321v-23.842h.025v-49.686h30.925c4.848,0,8.888,1.5,11.681,4.336a13.151,13.151,0,0,1,1.135,16.934,10.841,10.841,0,0,1-4.607,3.443,11.42,11.42,0,0,1,5.291,3.75,12.8,12.8,0,0,1,2.094,3.861,14.485,14.485,0,0,1,.757,4.674,13.44,13.44,0,0,1-8.493,12.926,13.174,13.174,0,0,1,6.2,3.875,12.78,12.78,0,0,1,3.164,8.639,13.386,13.386,0,0,1-1.07,5.346,12.27,12.27,0,0,1-2.951,4.166,12.855,12.855,0,0,1-2.174,1.619,16.029,16.029,0,0,1,3.783-.443h.058a15.883,15.883,0,0,1,3.988.51v-23.947h2.582v-49.686H1022.9v51.072a8.926,8.926,0,0,1-.133,15.109l4.592,8.965h-2.221l6.625,9.6v-9.6h-2.751v-25.465h11.09l.116.338,3.819,11.094,3.456-10.041a26.791,26.791,0,0,1-14.283-8.58,25.74,25.74,0,0,1-5.9-16.9,27.255,27.255,0,0,1,2.215-11.035,24.13,24.13,0,0,1,6.044-8.326,29.5,29.5,0,0,1,19.81-7.057,26.5,26.5,0,0,1,14.34,3.814,23.347,23.347,0,0,1,8.107,8.766l.24.449-.453.232-13.208,6.764-.231-.434a9.843,9.843,0,0,0-8.7-5.217h-.1c-6.761,0-11.668,5.064-11.668,12.043s4.909,12.041,11.672,12.041h.017c.156.006.315.008.472.008a13.726,13.726,0,0,0,7.2-2.035v-1.4h-9.69v-13.471h25.414v20.82l-.123.141a30.033,30.033,0,0,1-19.6,10.127v22.4q.2.07.389.146l9.1-24.678h10.013l.121.326,9.27,25.139h-9.118l-.957-3.156h-8.644l-.957,3.156h-7.139a15.013,15.013,0,0,1,2.283,1.529l.375.3-.291.385-4.258,5.646-.4-.3a11.642,11.642,0,0,0-6.534-2.324c-1.728,0-1.728.594-1.728.787s.04.379.525.6a13.016,13.016,0,0,0,2.652.631,21.787,21.787,0,0,1,6.677,1.959,6.551,6.551,0,0,1,3.754,6.055,8.194,8.194,0,0,1-3.008,6.666,12.8,12.8,0,0,1-8.054,2.344h-.057c-4.786,0-8.6-1.312-11.649-4.014l-.334-.3.256-.365,4.187-5.977.421.4a10.85,10.85,0,0,0,7.525,3.016h.014c1.241,0,2.213-.408,2.213-.93,0-.43-.368-.895-3.038-1.377l-.328-.061a21.488,21.488,0,0,1-6.6-1.973,7.3,7.3,0,0,1-2.623-2.381,7.076,7.076,0,0,1-1.054-3.895,7.683,7.683,0,0,1,2.311-5.5,8.669,8.669,0,0,1,1.116-.928h-3.466l-.118-.334-4.492-12.7v11.408h2.746v25.463h-7.876l-8.259-12.023v12.023h-8.407v-25.463h1.452l-2.677-6.229h-1.848v7.852h-4.725a12.674,12.674,0,0,1,6.155,11.129,13.407,13.407,0,0,1-1.07,5.344,12.289,12.289,0,0,1-2.951,4.166A14.4,14.4,0,0,1,1000.093,19861.59Zm.058-25.307h-.056c-7.47,0-12.89,5.109-12.89,12.15s5.42,12.156,12.888,12.156,12.888-5.113,12.888-12.156v-.012a11.669,11.669,0,0,0-7.508-11.145l-.636-.24-.344-.105A14.891,14.891,0,0,0,1000.151,19836.283Zm42.278,20.832a15.949,15.949,0,0,0,10.648,3.473h.056c6.3,0,10.063-2.994,10.063-8.01a5.546,5.546,0,0,0-3.232-5.176,20.985,20.985,0,0,0-6.367-1.854,13.108,13.108,0,0,1-2.891-.7,1.6,1.6,0,0,1-1.117-1.508,1.528,1.528,0,0,1,.635-1.281,3.521,3.521,0,0,1,2.1-.506h.02a12.626,12.626,0,0,1,6.7,2.232l3.368-4.465a13.956,13.956,0,0,0-4.01-2.113l-.341-.115v-24.029l.457-.039a28.891,28.891,0,0,0,19.267-9.691v-19.443h-23.414v11.471h9.69v2.953l-.23.146a14.711,14.711,0,0,1-7.967,2.34c-.165,0-.333,0-.5-.008a13.192,13.192,0,0,1-5.163-1.016,11.854,11.854,0,0,1-4.011-2.791,13.966,13.966,0,0,1,0-18.469,11.824,11.824,0,0,1,4.01-2.791,13.125,13.125,0,0,1,5.171-1.018h.1a10.844,10.844,0,0,1,9.341,5.316l11.884-6.086c-2.559-4.535-8.593-11.605-21.32-11.605-15.938,0-27.069,10.453-27.069,25.418,0,12.416,7.644,21.855,19.949,24.637l.544.123-4.763,13.836-4.649-13.5h-9.376v23.465h2.751v13.8l-9.531-13.8h2.491l-4.285-8.365.428-.232a7.926,7.926,0,0,0-1.258-14.475l-2.889-.975h4.18v-49.1h-14.179v49.686h-2.582v23.465h6.412v-7.852h3.506l.13.3,3.407,7.926h-1.97v23.463h6.407V19845.9l9.785,14.246h6.35v-23.463h-2.746v-18.232l6.317,17.855h2.593l6.321-17.854v17.889l-.452.043c-4.939.475-8.131,3.361-8.131,7.35,0,5.545,5.465,6.539,9.455,7.266l.328.059a10.1,10.1,0,0,1,2.775.791,1.743,1.743,0,0,1,1.084,1.57c0,1.154-1.291,1.93-3.212,1.93h-.015a11.846,11.846,0,0,1-7.786-2.9Zm-65.272,3.033h6.409v-23.463h-6.409Zm-16.577,0h6.411v-18.01h6.525v-5.453H961.743v-9.658h10.9v-5.162h-10.9V19818h11.15v-5.742H986.53l-2.759.971a12.046,12.046,0,0,0-.61,22.49l.445.186.606.186a14.747,14.747,0,0,0,4.346.652h.056c7.47,0,12.89-5.109,12.89-12.15a11.9,11.9,0,0,0-10.333-11.943l-2.4-.4,2.368-.576a12.5,12.5,0,0,0,9.5-12.494v-.016c0-6-3.834-10.939-9.115-11.746l-2.685-.41,2.655-.572c4.962-1.07,8.168-5.391,8.168-11.006,0-5.91-4.5-12.271-14.374-12.271H955.361v49.686h-.025v23.842h-1.321v5.453h6.565Zm90.071-35.871-4.458,12.59a11.931,11.931,0,0,1,4.458-1.424Zm28.928,12.031h6.942l-8.653-23.465h-8.619l-8.653,23.465h6.942l.957-3.156h10.128Zm-79.487,18.244h0a6.37,6.37,0,0,1-6.362-6.1v-.049a6.283,6.283,0,0,1,6.275-6.594h.1a6.371,6.371,0,0,1,.175,12.74C1000.214,19854.553,1000.153,19854.553,1000.092,19854.553Zm-5.364-6.123a5.372,5.372,0,1,0,5.367-5.619H1000a5.286,5.286,0,0,0-5.275,5.563v.057Zm-6.119-17.715a6.368,6.368,0,0,1-6.361-6.1h0a6.286,6.286,0,0,1,6.281-6.645h.088a6.371,6.371,0,0,1,.179,12.74C988.735,19830.715,988.672,19830.715,988.609,19830.715Zm-5.362-6.141a5.358,5.358,0,0,0,5.362,5.141c.053,0,.106,0,.16,0a5.371,5.371,0,0,0-.154-10.74h-.085a5.286,5.286,0,0,0-5.282,5.6l-.026,0Zm93.787,3.418h-6.952l3.474-10.748Zm-5.578-1h4.2l-2.1-6.5Zm-54.634-3.68h0a2.836,2.836,0,0,1-.288-.016h-4.983V19818h4.982a2.908,2.908,0,0,1,.291-.016,2.649,2.649,0,0,1,2.248,1.238,2.68,2.68,0,0,1,0,2.848A2.652,2.652,0,0,1,1016.823,19823.313Zm-4.271-1.016h4.041l.03,0a1.709,1.709,0,0,0,.2.012h0a1.662,1.662,0,1,0,0-3.324,1.742,1.742,0,0,0-.2.012l-.03,0h-4.041Zm-30.13-21.348h0c-.077,0-.155,0-.233-.008H969.538v-7.834l12.658,0c.041,0,.082,0,.123,0a3.894,3.894,0,0,1,2.74,1.119,3.936,3.936,0,0,1,1.175,2.84,3.813,3.813,0,0,1-3.812,3.887Zm-11.884-1.008,11.7,0c.061,0,.123.006.184.006h0a2.813,2.813,0,0,0,2.812-2.873v-.018a2.929,2.929,0,0,0-.875-2.121,2.9,2.9,0,0,0-2.04-.834c-.033,0-.065,0-.1,0l-11.683,0Zm11.232-18.156H969.538v-7.311l12.231,0a3.58,3.58,0,0,1,3.487,3.572,3.669,3.669,0,0,1-3.474,3.736Zm-11.232-1h11.205a2.654,2.654,0,0,0,2.514-2.719v-.012a2.568,2.568,0,0,0-2.507-2.578l-11.211,0Z" transform="translate(-901.322 -19695.012)" fill="rgba(0,0,0,0)"/></g></g><g transform="translate(-953.516 -15032.9)"><path d="M33.8,0c9.84,0,14.723-6.31,14.723-13.6,0-6.31-4.207-11.418-9.54-12.244,4.731-1.05,8.559-5.254,8.559-11.5,0-6.308-4.729-12.763-14.641-12.763H4.512V0Zm-3.83-30.869H17.423v-8.348H29.974a4.113,4.113,0,0,1,4.435,4.136A4.129,4.129,0,0,1,29.974-30.869Zm.452,19.981h-13v-9.023h13c3.156,0,4.959,2.03,4.959,4.512C35.385-12.692,33.507-10.888,30.426-10.888Z" fill="#fff"/><rect width="12.911" height="50.095" transform="translate(55.593 -50.1)" fill="#fff"/><path d="M102.088.9a28.932,28.932,0,0,0,22.154-9.758V-28.766H100.059v11.334h11.272v3.911a15.871,15.871,0,0,1-9.243,3.009c-8.192,0-13.978-6.319-13.978-14.5s5.786-14.5,13.978-14.5a12.427,12.427,0,0,1,10.594,6.39l10.809-5.638c-3.453-6.231-10.208-12.161-21.4-12.161-14.954,0-27.115,9.983-27.115,25.913S87.134.9,102.088.9Z" fill="#fff"/></g><g transform="translate(-951.467 -15008.8)"><path d="M8.507,0V-9.648h11.37v-5.5H8.507v-3.819H20.133v-5.5H2.2V0Z" fill="#fff"/><path d="M35.393.438c7.484,0,13.055-5.2,13.055-12.651S42.877-24.865,35.393-24.865,22.3-19.661,22.3-12.213,27.909.438,35.393.438Zm0-5.57c-4.072,0-6.677-3.119-6.677-7.081,0-4,2.6-7.081,6.677-7.081,4.036,0,6.641,3.082,6.641,7.081C42.034-8.251,39.429-5.132,35.393-5.132Z" fill="#fff"/><path d="M72.508,0,67.524-8.988A7.407,7.407,0,0,0,72.4-16.321c0-4.549-3.079-8.14-8.506-8.14H51.644V0h6.3V-8.218h3.23L65.287,0Zm-9.57-13.713H57.947v-5.249h4.991c1.652,0,3.046.954,3.046,2.606C65.984-14.633,64.59-13.715,62.938-13.715Z" fill="#fff"/><path d="M103.647,0V-24.461H94.885L89.749-11.187l-5.1-13.274H75.887V0h6.3V-15.917L88.354,0h2.789l6.2-15.915V0Z" fill="#fff"/><path d="M131.817,0l-9.242-24.464h-7.923L105.446,0H112.6l1.211-3.521h9.646L124.665,0ZM121.731-9.023H115.5l3.118-9.2Z" fill="#fff"/></g><g transform="translate(-951.467 -14985)"><path d="M13.972,0V-18.964h6.822v-5.5H.809v5.5H7.668V0Z" fill="#fff"/><rect width="6.304" height="24.459" transform="translate(23.806 -24.461)" fill="#fff"/><path d="M46.36.438c7.484,0,13.054-5.2,13.054-12.651S53.844-24.865,46.36-24.865s-13.092,5.2-13.092,12.652S38.876.438,46.36.438Zm0-5.57c-4.073,0-6.678-3.119-6.678-7.081,0-4,2.6-7.081,6.678-7.081C50.4-19.294,53-16.212,53-12.213,53-8.251,50.4-5.132,46.36-5.132Z" fill="#fff"/><path d="M85.345,0V-24.461H79V-11L69.1-24.461H62.61V0h6.3V-14.157L79.261,0Z" fill="#fff"/><path d="M98.844.438c6.566,0,10.194-3.262,10.194-8.178,0-9.094-13.827-6.819-13.827-9.939,0-1.028.808-1.762,2.643-1.762a11.5,11.5,0,0,1,7.153,2.534l3.445-4.513a14.921,14.921,0,0,0-9.938-3.408c-6.272,0-9.753,3.665-9.753,7.774,0,9.425,13.864,6.746,13.864,10.085,0,1.175-1.322,2.02-3.487,2.02A11.041,11.041,0,0,1,91.326-8.18L87.99-3.447C90.447-1.1,93.892.438,98.844.438Z" fill="#fff"/></g><g transform="translate(-1003 -15385.7)"><circle cx="117.7" cy="117.7" r="117.7" transform="translate(0 0)" fill="#fff"/><path d="M1042.44,19857.2l3.853-5.5a11.41,11.41,0,0,0,7.885,3.154c1.391,0,2.712-.479,2.712-1.43s-1.027-1.432-3.444-1.869c-4.037-.738-10.2-1.691-10.2-7.816,0-3.328,2.227-6.422,6.584-7.51v-14.861l-5.468,15.443h-3.3l-5.463-15.443v14.82h4.75v24.463h-7.118l-9.022-13.135v13.135H1016.8v-23.84h-.02l-3.375-7.852h-2.677v7.852h-4.4a12.147,12.147,0,0,1,7.83,11.623c0,7.521-5.832,12.656-13.388,12.656s-13.383-5.135-13.383-12.656,5.832-12.65,13.383-12.65a15.733,15.733,0,0,1,2.552.2v-23.639h2.577v-49.686h15.173v50.1h-1.632a8.427,8.427,0,0,1,1.337,15.389l4.436,8.658h-.357l8.078,11.7v-11.7h-4.75v-24.465h10.233l4.292,12.467,4.109-11.937c-11.691-2.641-20.339-11.762-20.339-25.123,0-16.08,12.4-25.918,27.569-25.918,11.644,0,18.552,5.861,22.011,12.316l-12.775,6.539a10.364,10.364,0,0,0-9.236-5.482c-7.287,0-12.172,5.557-12.172,12.545s4.885,12.541,12.172,12.541a14.292,14.292,0,0,0,8.19-2.254v-2.178h-9.695v-12.471h24.414v20.133a29.54,29.54,0,0,1-19.724,10v22.672q.723.149,1.417.354l8.925-24.2h9.316l9.022,24.465h-8.03l-.957-3.156h-9.386l-.957,3.156h-7.129a14.43,14.43,0,0,1,4.328,2.416l-3.963,5.25a12.188,12.188,0,0,0-6.824-2.424c-1.829,0-2.233.658-2.233,1.287,0,.951.987,1.281,3.594,1.719,4.032.7,10.009,1.875,10.009,7.521,0,5.389-4,8.51-10.562,8.51C1048.6,19861.1,1045.05,19859.5,1042.44,19857.2Zm-47.532-8.768a5.874,5.874,0,1,0,5.867-6.119,5.787,5.787,0,0,0-5.869,6.086Zm74.543-20.939h5.578l-2.786-8.623Zm-58.717-4.7h4.511a2.163,2.163,0,1,0,0-4.295l-4.511,0Zm-33.4,37.852v-24.463h4.314a12.546,12.546,0,0,1,.635-23.424h-10.21v5.742h-11.15v2.861h10.9v6.162h-10.9v8.658H974.7v6.453h-6.53v18.01h-7.407v-18.01h-6.57v-5.83h-.678v-24.465h.025v-49.686h30.425c10.368,0,14.874,6.908,14.874,12.771,0,6.234-3.679,10.441-8.563,11.494,5.408.826,9.54,5.781,9.54,12.24a12.943,12.943,0,0,1-9.883,12.994c6.234,1.049,10.751,5.818,10.751,12.438,0,7.518-5.832,12.65-13.388,12.65a16.355,16.355,0,0,1-2.547-.2v23.6Zm4.092-36.053a5.872,5.872,0,1,0,5.867-6.123,5.788,5.788,0,0,0-5.865,6.133Zm-12.71-24.154h12.167a3.311,3.311,0,0,0,3.529-3.379,3.415,3.415,0,0,0-3.529-3.455H968.718Zm0-19.156h11.719a3.165,3.165,0,0,0,3.006-3.229,3.088,3.088,0,0,0-3.006-3.08l-11.717,0Z" transform="translate(-900.002 -19695.012)" fill="#56358b"/><path d="M1000.77,19861.59a14.4,14.4,0,0,1-9.865-3.641,12.288,12.288,0,0,1-2.949-4.166,13.9,13.9,0,0,1,0-10.7,12.289,12.289,0,0,1,2.95-4.166,14.4,14.4,0,0,1,9.863-3.637h.071a16.443,16.443,0,0,1,1.981.121v-23.562h2.577v-49.686h16.173v51.072a8.927,8.927,0,0,1-.134,15.109l4.592,8.965h-.222l6.625,9.6v-9.6h-4.75v-25.465h11.09l.116.338,3.819,11.094,3.456-10.043a26.778,26.778,0,0,1-14.283-8.578,25.738,25.738,0,0,1-5.9-16.9,27.241,27.241,0,0,1,2.217-11.035,24.135,24.135,0,0,1,6.046-8.326,29.5,29.5,0,0,1,19.806-7.057,26.5,26.5,0,0,1,14.341,3.814,23.383,23.383,0,0,1,8.111,8.766l.241.449-.454.232-13.212,6.764-.231-.434a9.847,9.847,0,0,0-8.7-5.219h-.09c-6.768,0-11.677,5.066-11.677,12.045s4.909,12.041,11.672,12.041h.016c.151.006.3.008.456.008a13.75,13.75,0,0,0,7.217-2.039v-1.4h-9.7v-13.471h25.414v20.82l-.123.141a30.033,30.033,0,0,1-19.6,10.127v21.814c.205.047.408.1.608.15l8.886-24.094h10.013l.121.326,9.27,25.139h-9.118l-.957-3.156h-8.644l-.957,3.156h-5.139a14.988,14.988,0,0,1,2.282,1.527l.375.3-.291.385-4.263,5.648-.4-.3a11.641,11.641,0,0,0-6.534-2.324c-1.724,0-1.723.594-1.723.787s.04.379.524.6a13.015,13.015,0,0,0,2.653.631,21.762,21.762,0,0,1,6.673,1.959,6.554,6.554,0,0,1,3.754,6.055,8.194,8.194,0,0,1-3.008,6.666,12.8,12.8,0,0,1-8.054,2.344h-.066c-4.761,0-8.565-1.312-11.627-4.012l-.335-.295.257-.367,4.187-5.977.421.4a10.863,10.863,0,0,0,7.532,3.016h.007c1.241,0,2.212-.408,2.212-.93,0-.43-.367-.895-3.033-1.377l-.326-.061a21.518,21.518,0,0,1-6.605-1.973,7.281,7.281,0,0,1-2.625-2.381,7.072,7.072,0,0,1-1.055-3.895,7.6,7.6,0,0,1,1.774-4.914,9.543,9.543,0,0,1,4.81-2.98v-11.566l-4.615,13.033h-3.866v23.84h-7.881l-8.259-12.023v12.023H1016.3v-24.189l-3.224-7.5h-1.848v7.852H1008.5a12.674,12.674,0,0,1,6.156,11.129,13.407,13.407,0,0,1-1.07,5.344,12.289,12.289,0,0,1-2.951,4.166A14.4,14.4,0,0,1,1000.77,19861.59Zm.071-25.307h-.069c-7.467,0-12.885,5.109-12.885,12.15s5.418,12.156,12.883,12.156,12.888-5.113,12.888-12.156v-.012a11.669,11.669,0,0,0-7.508-11.145l-2.328-.883v.172l-.579-.092A15.273,15.273,0,0,0,1000.841,19836.283Zm42.269,20.832a15.957,15.957,0,0,0,10.627,3.471h.065c6.3,0,10.063-2.994,10.063-8.01a5.546,5.546,0,0,0-3.231-5.176,20.96,20.96,0,0,0-6.363-1.854,13.117,13.117,0,0,1-2.893-.7,1.6,1.6,0,0,1-1.115-1.508,1.528,1.528,0,0,1,.634-1.281,3.511,3.511,0,0,1,2.1-.506h.02a12.626,12.626,0,0,1,6.7,2.232l3.372-4.469a13.856,13.856,0,0,0-3.8-2.033l-.508-.178-.273-.08c-.44-.131-.9-.246-1.376-.344l-.4-.082v-.211l-.225-.078h.225v-23.25l.457-.039a28.891,28.891,0,0,0,19.267-9.691v-19.443h-23.414v11.471h9.695v2.951l-.23.146a14.749,14.749,0,0,1-7.987,2.342c-.16,0-.321,0-.481-.008a13.194,13.194,0,0,1-5.163-1.016,11.853,11.853,0,0,1-4.011-2.791,13.966,13.966,0,0,1,0-18.471,11.828,11.828,0,0,1,4.011-2.791,13.13,13.13,0,0,1,5.172-1.018h.095a10.843,10.843,0,0,1,9.341,5.318l11.889-6.086c-2.563-4.535-8.6-11.605-21.325-11.605-15.938,0-27.069,10.453-27.069,25.418,0,12.416,7.644,21.855,19.949,24.635l.544.123-.182.527-4.582,13.311-4.649-13.5h-9.376v23.465h4.75v13.8l-9.531-13.8h.492l-4.285-8.365.428-.232a7.926,7.926,0,0,0-1.258-14.475l-2.889-.975h4.181v-49.1H1006.4v49.686h-2.577v23.469h6.406v-7.852h3.506l3.375,7.852h.191v23.84h6.409V19845.9l9.785,14.246h6.355v-23.463h-4.75v-18.232l6.317,17.855h2.593l6.321-17.854v18.162l-.379.094c-3.827.957-6.205,3.648-6.205,7.025,0,5.545,5.47,6.539,9.464,7.266l.326.059a10.073,10.073,0,0,1,2.771.791,1.745,1.745,0,0,1,1.083,1.57c0,1.154-1.291,1.93-3.212,1.93h-.008a11.86,11.86,0,0,1-7.794-2.9Zm35.144-20.809h6.942l-8.653-23.465h-8.619l-8.654,23.465h6.943l.957-3.156H1077.3Zm-42.155-.619h4.035l-4.035-11.408Zm-59.265,25.457v-25.463h2.742a13.052,13.052,0,0,1,.409-22.424h-7.413V19819h-11.15v1.861h10.9v7.162h-10.9v7.658H975.2v7.453h-6.53v18.01h-8.407v-18.01h-6.57v-5.83h-.678v-25.465h.025v-49.686h30.925c4.848,0,8.888,1.5,11.681,4.336a13.154,13.154,0,0,1,1.137,16.934,10.841,10.841,0,0,1-4.608,3.445,11.414,11.414,0,0,1,5.29,3.748,12.8,12.8,0,0,1,2.094,3.861,14.484,14.484,0,0,1,.757,4.674,13.438,13.438,0,0,1-8.494,12.924,13.192,13.192,0,0,1,6.2,3.877,12.78,12.78,0,0,1,3.164,8.639,13.386,13.386,0,0,1-1.07,5.346,12.27,12.27,0,0,1-2.951,4.166,14.412,14.412,0,0,1-9.867,3.639,16.679,16.679,0,0,1-2.047-.125v23.525Zm-15.571-1h6.407v-18.01h6.53v-5.453H960.423v-9.658h10.9v-5.162h-10.9V19818h11.15v-5.742h13.635l-2.759.971a12.046,12.046,0,0,0-.61,22.49l2.323.963h-6.329v23.463l6.415,0v-23.686l.578.092a15.81,15.81,0,0,0,2.469.193c7.468,0,12.888-5.109,12.888-12.15a11.909,11.909,0,0,0-10.334-11.945l-2.4-.4,2.368-.574a12.5,12.5,0,0,0,9.5-12.492v-.016c0-6-3.834-10.939-9.115-11.746l-2.686-.41,2.657-.572c4.962-1.07,8.168-5.391,8.168-11.006,0-5.91-4.5-12.271-14.374-12.271H954.04v49.686h-.025v23.465h.678v5.83h6.57Zm39.51-5.586h0a6.371,6.371,0,0,1-6.362-6.1l0-.029a6.285,6.285,0,0,1,6.276-6.615h.1a6.373,6.373,0,0,1,.176,12.744C1000.895,19854.559,1000.834,19854.559,1000.773,19854.559Zm-.09-11.746a5.287,5.287,0,0,0-5.278,5.561l0,.037a5.359,5.359,0,0,0,5.363,5.148h0c.052,0,.1,0,.155,0a5.373,5.373,0,0,0-.149-10.744h-.1Zm-13.394-12.1a6.373,6.373,0,0,1-6.363-6.1h0a6.287,6.287,0,0,1,6.281-6.645h.088a6.371,6.371,0,0,1,.178,12.74C987.413,19830.711,987.351,19830.711,987.29,19830.711Zm-5.364-6.139a5.359,5.359,0,0,0,5.364,5.139c.052,0,.1,0,.157,0a5.371,5.371,0,0,0-.153-10.74h-.084a5.287,5.287,0,0,0-5.281,5.6Zm93.79,3.42h-6.953l3.48-10.748Zm-5.578-1h4.2l-2.1-6.5Zm-54.638-3.684h0a2.744,2.744,0,0,1-.283-.016h-4.983V19818l4.982,0a2.913,2.913,0,0,1,.292-.016,2.649,2.649,0,0,1,2.248,1.238,2.664,2.664,0,0,1-2.255,4.088Zm-4.266-1.016h4.04l.029,0a1.663,1.663,0,1,0,.2-3.314,1.744,1.744,0,0,0-.2.012l-.03,0-4.041,0Zm-30.134-21.348h0c-.077,0-.155,0-.233-.008H968.216l0-7.834h12.656c.041,0,.082,0,.123,0a3.893,3.893,0,0,1,2.739,1.117,3.939,3.939,0,0,1,1.176,2.838,3.812,3.812,0,0,1-3.812,3.889Zm-11.884-1.008,11.7,0c.061,0,.123.006.184.006h0a2.812,2.812,0,0,0,2.812-2.875v-.018a2.932,2.932,0,0,0-.876-2.119,2.894,2.894,0,0,0-2.039-.832c-.033,0-.065,0-.1,0H969.218Zm11.231-18.156H968.216l0-7.311,12.23,0a3.589,3.589,0,0,1,3.493,3.574,3.668,3.668,0,0,1-3.481,3.734Zm-11.231-1h11.206a2.652,2.652,0,0,0,2.519-2.719v-.01a2.574,2.574,0,0,0-2.513-2.58l-11.21,0Z" transform="translate(-900.002 -19695.012)" fill="rgba(0,0,0,0)"/></g></g></g></svg>