<svg xmlns="http://www.w3.org/2000/svg" xmlns:xlink="http://www.w3.org/1999/xlink" width="876" height="652.498" viewBox="0 0 876 652.498"><defs><linearGradient id="a" x1="0.5" x2="0.5" y2="1" gradientUnits="objectBoundingBox"><stop offset="0" stop-color="#82368c"/><stop offset="1" stop-color="#27348b"/></linearGradient></defs><g transform="translate(-521.999 -328.299)"><text transform="translate(959.999 962.797)" font-size="70" font-family="Elza-NarrowMedium, Elza" font-weight="500" letter-spacing="0.07em" opacity="0.002"><tspan x="-437.745" y="0">LAISSEZ VOTRE EMPREINTE</tspan></text><g transform="translate(-812.824 271.82)"><path d="M62.2,551.607h0c18.814,0,35.538-12.543,39.719-30.312L227.351,56.162C234.668,30.031,214.808,3.9,187.632,3.9h0c-18.814,0-35.538,12.543-39.719,30.312L22.483,499.345C15.167,525.476,35.026,551.607,62.2,551.607Z" transform="translate(1492.208 58.85)" fill="url(#a)"/><path d="M-2884.073-57.939c1.045-87.8,67.94-141.107,150.514-141.107,62.715,0,100.344,31.357,119.158,66.9l-68.986,35.538a56.727,56.727,0,0,0-50.172-29.267c-39.719,0-65.849,30.313-65.849,67.941S-2773.277,10-2733.558,10c17.77,0,33.448-4.181,43.9-12.543v-11.5h-52.263V-81.98h131.7V26.726c-30.312,33.448-71.077,55.4-124.384,55.4C-2817.177,82.123-2884.073,28.816-2884.073-57.939ZM-3230.049,76.9V-193.82H-3064.9c56.444,0,80.484,37.628,80.484,68.986,0,33.448-19.859,56.443-45.991,62.715,29.267,4.181,51.217,31.357,51.217,65.85,0,37.628-26.132,73.166-80.484,73.166ZM-3148.52,10h65.85c11.5,0,18.814-8.362,18.814-18.815a18.717,18.717,0,0,0-18.814-18.814h-65.85Zm0-103.479h63.76c8.362,0,16.724-7.316,16.724-17.769a16.509,16.509,0,0,0-16.724-16.724h-63.76Z" transform="translate(4567.048 255.526)" fill="#010202"/><path d="M-2788.956-186.5h0L-2893.48-469.765h97.207l60.624,190.235,60.624-190.235h97.208L-2682.341-186.5Zm217.41,0V-469.765h215.32v71.077h-129.61v33.448h126.473v71.077h-126.473v36.584h128.564V-186.5Zm-658.5,0V-469.765h240.406v71.077h-154.7v33.448h152.6v71.077h-152.6V-186.5Z" transform="translate(4567.048 796.961)" fill="#010202"/></g></g></svg>