<svg xmlns="http://www.w3.org/2000/svg" xmlns:xlink="http://www.w3.org/1999/xlink" width="257.676" height="257.676" viewBox="0 0 257.676 257.676"><defs><filter id="a" x="0" y="0" width="257.676" height="257.676" filterUnits="userSpaceOnUse"><feOffset dy="3" input="SourceAlpha"/><feGaussianBlur stdDeviation="7.5" result="b"/><feFlood flood-opacity="0.161"/><feComposite operator="in" in2="b"/><feComposite in="SourceGraphic"/></filter><linearGradient id="c" x1="-0.829" y1="1.448" x2="1.204" y2="-0.081" gradientUnits="objectBoundingBox"><stop offset="0" stop-color="#82368c"/><stop offset="1" stop-color="#27348b"/></linearGradient><linearGradient id="d" x1="-0.999" y1="1.516" x2="1.185" y2="0.036" xlink:href="#c"/><linearGradient id="e" x1="-0.157" y1="1.47" x2="0.877" y2="0.077" xlink:href="#c"/></defs><g transform="translate(22.5 19.5)"><g transform="matrix(1, 0, 0, 1, -22.5, -19.5)" filter="url(#a)"><circle cx="106.338" cy="106.338" r="106.338" transform="translate(22.5 19.5)" fill="#fff"/></g><g transform="translate(37.584 59.809)"><path d="M427.294,211.75a9.757,9.757,0,0,1,9.125,6.6l11.835-5.511a21.367,21.367,0,0,0-10.39-11.022,11.69,11.69,0,0,0,9.215-11.835c0-5.873-3.7-10.3-8.583-11.022,4.427-.994,7.77-4.788,7.77-10.39,0-5.33-4.066-11.564-13.462-11.564H405.339v45.264h10.209c-7.589,3.7-12.649,11.2-12.649,20.78,0,13.913,10.751,23.4,24.574,23.4,12.2,0,18.25-7.228,20.87-13.191l-11.835-5.421a9.757,9.757,0,0,1-9.125,6.6c-6.234,0-10.661-5.059-10.661-11.293C416.633,216.809,421.06,211.75,427.294,211.75Zm-8.4-43.547h10.571a2.849,2.849,0,0,1,0,5.692H418.891Zm0,16.8h11.022a3.084,3.084,0,0,1,3.162,3.162,3.015,3.015,0,0,1-3.162,3.072H418.891Z" transform="translate(-402.9 -156.639)" fill="url(#c)"/><path d="M498.175,216.006c0-8.493-5.692-15.54-16.262-15.54h-10.48V157.1H457.7v88.63h13.733V231.184H476.4l6.234,14.546h15.63l-8.222-15.991A14.685,14.685,0,0,0,498.175,216.006Zm-18.34,3.795h-8.312V211.85h8.312c2.349,0,4.517,1.536,4.517,3.975A4.31,4.31,0,0,1,479.835,219.8Z" transform="translate(-408.19 -156.648)" fill="url(#d)"/><path d="M540.549,200.418,532.6,223.456l-7.951-23.038h-9.215A29.666,29.666,0,0,0,523.925,194v-18.16H501.88v11.293h8.764v1.988a13.288,13.288,0,0,1-7.408,2.078c-6.6,0-11.022-5.059-11.022-11.293,0-6.324,4.427-11.293,11.022-11.293a9.218,9.218,0,0,1,8.312,4.969l11.564-5.873c-3.162-5.873-9.4-11.113-19.876-11.113-13.733,0-24.936,8.854-24.936,23.4,0,14.455,11.2,23.4,24.936,23.4a22.839,22.839,0,0,0,2.53-.09v42.644H519.5V217.4l10.119,28.55h6.143l10.119-28.55v28.55h13.733V200.689H540.549Z" transform="translate(-410.179 -156.6)" fill="url(#e)"/></g></g></svg>