<svg xmlns="http://www.w3.org/2000/svg" xmlns:xlink="http://www.w3.org/1999/xlink" width="257.675" height="257.676" viewBox="0 0 257.675 257.676"><defs><filter id="a" x="0" y="0" width="257.675" height="257.676" filterUnits="userSpaceOnUse"><feOffset dy="3" input="SourceAlpha"/><feGaussianBlur stdDeviation="7.5" result="b"/><feFlood flood-opacity="0.161"/><feComposite operator="in" in2="b"/><feComposite in="SourceGraphic"/></filter><linearGradient id="c" x1="-2.697" y1="2.386" x2="3.211" y2="-1.208" gradientUnits="objectBoundingBox"><stop offset="0" stop-color="#82368c"/><stop offset="1" stop-color="#27348b"/></linearGradient><linearGradient id="d" x1="-2.761" y1="2.472" x2="3.245" y2="-1.234" xlink:href="#c"/><linearGradient id="e" x1="-4.697" y1="2.247" x2="5.082" y2="-1.011" xlink:href="#c"/><linearGradient id="f" x1="-1.62" y1="2.857" x2="2.132" y2="-1.591" xlink:href="#c"/></defs><g transform="translate(22.5 19.5)"><g transform="matrix(1, 0, 0, 1, -22.5, -19.5)" filter="url(#a)"><path d="M106.338,0A106.338,106.338,0,1,1,0,106.338,106.338,106.338,0,0,1,106.338,0Z" transform="translate(22.5 19.5)" fill="#fff"/></g><g transform="translate(49 59.809)"><path d="M792.977,203.038a18.881,18.881,0,0,0,2.259.09A26.978,26.978,0,0,0,815.925,194v-18.16H793.88v11.293h8.764v1.988a13.288,13.288,0,0,1-7.408,2.078c-6.6,0-11.022-5.059-11.022-11.293,0-6.324,4.427-11.293,11.022-11.293a9.218,9.218,0,0,1,8.312,4.969l11.564-5.873c-3.162-5.873-9.4-11.113-19.876-11.113-13.733,0-24.936,8.854-24.936,23.4,0,11.384,6.957,19.334,16.533,22.225h-.542v7.86h-7.95v-7.86h-6.686V224.36h3.795v21.5h6.686v-7.047h2.439l3.072,7.047h7.589L791.26,238a7.653,7.653,0,0,0-.632-13.733h2.439V203.038Zm-14.636,20.418V215.6h7.95v7.86Zm7.86,9.486h-4.066v-3.885H786.2a2.031,2.031,0,0,1,2.168,1.9A1.949,1.949,0,0,1,786.2,232.943Z" transform="translate(-704.528 -156.6)" fill="url(#c)"/><path d="M736.439,224.037h6.686L734.994,201.9h-5.421c6.6-1.355,9.667-6.5,9.667-11.926,0-5.873-3.7-10.3-8.583-11.022,4.427-.994,7.77-4.788,7.77-10.39,0-5.33-4.066-11.564-13.462-11.564H697.5v44.9h0v43.547h13.913c4.427,0,6.5-2.891,6.5-5.963a5.184,5.184,0,0,0-4.246-5.421,4.882,4.882,0,0,0,3.795-5.059c0-2.439-1.807-5.33-5.963-5.6,4.788-1.265,7.95-4.969,7.95-10.571,0-5.782-3.523-9.486-8.583-10.661H726.5l-8.041,21.774h7.228l.9-2.891h8.493l.813,2.62a13.779,13.779,0,0,0-4.427-.723c-6.866,0-12.106,4.608-12.106,11.474,0,6.776,5.24,11.474,12.106,11.474s12.106-4.608,12.106-11.474A11.13,11.13,0,0,0,736.439,224.037ZM704.1,228.916h5.15a1.389,1.389,0,0,1,1.355,1.355,1.41,1.41,0,0,1-1.355,1.446H704.1Zm5.421,11.293h-5.33v-2.981h5.33a1.469,1.469,0,0,1,1.536,1.536A1.506,1.506,0,0,1,709.516,240.209Zm3.162-27.194a5.1,5.1,0,0,1-5.331,5.24h-3.162v-10.48h3.252C710.962,207.775,712.678,210.033,712.678,213.015ZM711.142,168.2h10.571a2.849,2.849,0,0,1,0,5.692H711.142Zm11.022,23.038H711.142v-6.234h11.022a3.084,3.084,0,0,1,3.162,3.162A2.964,2.964,0,0,1,722.165,191.241Zm6.144,24.394,2.53-7.77,2.53,7.77Zm3.162,24.484a5.514,5.514,0,1,1,5.331-5.511C736.71,237.679,734.632,240.119,731.47,240.119Z" transform="translate(-697.5 -156.639)" fill="url(#d)"/><path d="M762.92,223.514a6.811,6.811,0,0,0,4.337-6.686c0-5.059-5.421-6.144-9.035-6.776-2.349-.361-3.252-.723-3.252-1.536,0-.542.361-1.174,1.988-1.174a11.044,11.044,0,0,1,6.144,2.168l3.614-4.7a12.009,12.009,0,0,0-4.517-2.349h.994V157.2H749.459v45.264h3.524a6.789,6.789,0,0,0-4.879,6.415c0,5.511,5.6,6.415,9.215,7.047,2.168.361,3.072.813,3.072,1.717s-1.174,1.265-2.439,1.265a10.147,10.147,0,0,1-7.137-2.891l-3.524,4.969a13.73,13.73,0,0,0,7.77,3.343l-7.86,21.322h7.228l.9-2.891h8.493l.9,2.891h7.228l-8.131-22.135h-.9Zm-5.782,13.733,2.53-7.77,2.53,7.77Z" transform="translate(-702.298 -156.658)" fill="url(#e)"/><path d="M810.748,230.6H800.9v22.135h9.938c6.957,0,12.106-3.975,12.106-11.113S817.7,230.6,810.748,230.6Zm0,16.262h-3.162v-10.48h3.252c3.614,0,5.33,2.259,5.33,5.24A5.23,5.23,0,0,1,810.748,246.862Z" transform="translate(-707.482 -163.744)" fill="url(#f)"/></g></g></svg>