<svg xmlns="http://www.w3.org/2000/svg" xmlns:xlink="http://www.w3.org/1999/xlink" width="257.675" height="257.676" viewBox="0 0 257.675 257.676"><defs><filter id="a" x="0" y="0" width="257.675" height="257.676" filterUnits="userSpaceOnUse"><feOffset dy="3" input="SourceAlpha"/><feGaussianBlur stdDeviation="7.5" result="b"/><feFlood flood-opacity="0.161"/><feComposite operator="in" in2="b"/><feComposite in="SourceGraphic"/></filter><linearGradient id="c" x1="-1.9" y1="2.705" x2="3.307" y2="-2.239" gradientUnits="objectBoundingBox"><stop offset="0" stop-color="#82368c"/><stop offset="1" stop-color="#27348b"/></linearGradient><linearGradient id="d" x1="-4.205" y1="2.862" x2="6.054" y2="-2.341" xlink:href="#c"/><linearGradient id="e" x1="-0.903" y1="3.711" x2="2.351" y2="-2.96" xlink:href="#c"/><linearGradient id="f" x1="-4.065" y1="3.028" x2="5.898" y2="-2.49" xlink:href="#c"/><linearGradient id="g" x1="-1.813" y1="3.038" x2="3.655" y2="-2.456" xlink:href="#c"/><linearGradient id="h" x1="-2.181" y1="2.959" x2="3.551" y2="-2.419" xlink:href="#c"/><linearGradient id="i" x1="-1.114" y1="3.121" x2="2.452" y2="-2.587" xlink:href="#c"/></defs><g transform="translate(22.5 19.5)"><g transform="matrix(1, 0, 0, 1, -22.5, -19.5)" filter="url(#a)"><path d="M106.338,0A106.338,106.338,0,1,1,0,106.338,106.338,106.338,0,0,1,106.338,0Z" transform="translate(22.5 19.5)" fill="#fff"/></g><g transform="translate(45 59.809)"><path d="M1032.506,218l-5.782-2.62a4.721,4.721,0,0,1-4.427,3.252,5.518,5.518,0,0,1,0-11.022,4.721,4.721,0,0,1,4.427,3.252l5.782-2.71a10.338,10.338,0,0,0-8.944-6.415,11.745,11.745,0,0,0,8.493-11.564c0-5.873-3.7-10.3-8.583-11.022,4.427-.994,7.77-4.788,7.77-10.39,0-5.33-4.066-11.564-13.462-11.564H990.314v45.264h4.427L986.7,224.147h7.228l.9-2.891h8.493l.9,2.891h5.24v5.24h5.963v16.262h6.686V229.387h5.872v-5.873h-.632A10.748,10.748,0,0,0,1032.506,218Zm-28.549-49.781h10.571a2.849,2.849,0,0,1,0,5.692h-10.571Zm0,16.8h11.022a3.084,3.084,0,0,1,3.162,3.162,3.015,3.015,0,0,1-3.162,3.072h-11.022Zm-7.5,30.627,2.53-7.77,2.53,7.77Zm14.636,7.86-7.77-21.141h14.546a11.349,11.349,0,0,0-.542,21.141h-6.234Z" transform="translate(-986.61 -156.658)" fill="url(#c)"/><path d="M1044.363,224.047h6.686V207.784h5.872V202h-.723V157.1h-13.642V202H1038.4v5.782h5.963Z" transform="translate(-991.601 -156.648)" fill="url(#d)"/><path d="M994.731,230.6,986.6,252.735h7.228l.9-2.891h8.493l.9,2.891h7.228l-8.131-22.135Zm1.717,13.733,2.53-7.77,2.53,7.77Z" transform="translate(-986.6 -163.744)" fill="url(#e)"/><rect width="6.686" height="22.135" transform="translate(43.637 66.856)" fill="url(#f)"/><path d="M1062.075,228.835h4.608V206.7H1060v21.5a14.954,14.954,0,0,0-2.891-.271c-6.866,0-12.106,4.608-12.106,11.474,0,6.776,5.24,11.474,12.106,11.474s12.106-4.608,12.106-11.474A11.194,11.194,0,0,0,1062.075,228.835Zm-5.059,16.082a5.514,5.514,0,1,1,5.33-5.511A5.219,5.219,0,0,1,1057.016,244.917Z" transform="translate(-992.238 -161.436)" fill="url(#g)"/><path d="M1087.894,234.569,1080.576,224h5.6l7.95-21.412a26.977,26.977,0,0,0,15-8.583v-18.16H1087.08v11.293h8.764v1.988a13.288,13.288,0,0,1-7.408,2.078c-6.6,0-11.022-5.059-11.022-11.293,0-6.324,4.427-11.293,11.022-11.293a9.218,9.218,0,0,1,8.312,4.969l11.564-5.873c-3.162-5.873-9.4-11.113-19.876-11.113-13.733,0-24.936,8.854-24.936,23.4,0,13.733,10.119,22.5,22.858,23.309l-4.427,13.733-4.788-14.907h-7.589l7.95,21.5h-4.246v22.135h6.686V233.937l8.131,11.835h6.415V223.637H1087.8v10.932Z" transform="translate(-994.024 -156.6)" fill="url(#h)"/><path d="M1110.732,238.612c-2.349-.361-3.252-.723-3.252-1.536,0-.542.361-1.175,1.988-1.175a11.045,11.045,0,0,1,6.144,2.168l3.614-4.7a14.512,14.512,0,0,0-9.4-3.072c-6.053,0-9.215,3.433-9.215,7.137,0,5.511,5.6,6.415,9.215,7.047,2.168.361,3.072.813,3.072,1.717s-1.175,1.265-2.439,1.265a10.147,10.147,0,0,1-7.137-2.891l-3.524,4.969c2.349,2.078,5.6,3.523,10.3,3.523,5.963,0,9.577-2.8,9.577-7.679C1119.767,240.328,1114.436,239.244,1110.732,238.612Z" transform="translate(-997.528 -163.715)" fill="url(#i)"/></g></g></svg>