<?xml version="1.0" encoding="UTF-8" standalone="no"?>
<svg
   width="235.4"
   height="470.801"
   viewBox="0 0 235.4 470.801"
   version="1.1"
   id="svg11"
   sodipodi:docname="Groupe 559.svg"
   inkscape:version="1.3 (0e150ed6c4, 2023-07-21)"
   xmlns:inkscape="http://www.inkscape.org/namespaces/inkscape"
   xmlns:sodipodi="http://sodipodi.sourceforge.net/DTD/sodipodi-0.dtd"
   xmlns="http://www.w3.org/2000/svg"
   xmlns:svg="http://www.w3.org/2000/svg">
  <sodipodi:namedview
     id="namedview11"
     pagecolor="#ffffff"
     bordercolor="#666666"
     borderopacity="1.0"
     inkscape:showpageshadow="2"
     inkscape:pageopacity="0.0"
     inkscape:pagecheckerboard="0"
     inkscape:deskcolor="#d1d1d1"
     inkscape:zoom="1.765077"
     inkscape:cx="117.55861"
     inkscape:cy="235.4005"
     inkscape:window-width="1920"
     inkscape:window-height="1027"
     inkscape:window-x="-8"
     inkscape:window-y="-8"
     inkscape:window-maximized="1"
     inkscape:current-layer="g11" />
  <defs
     id="defs3">
    <linearGradient
       id="a"
       y1="117.7"
       x2="235.39999"
       y2="117.7"
       gradientUnits="userSpaceOnUse"
       x1="0"
       gradientTransform="translate(-1003,-15150.6)">
      <stop
         offset="0"
         stop-color="#82368c"
         id="stop1" />
      <stop
         offset="1"
         stop-color="#27348b"
         id="stop2" />
    </linearGradient>
    <clipPath
       id="b">
      <rect
         width="136.432"
         height="125.057"
         transform="translate(0 0)"
         fill="#fff"
         id="rect2" />
    </clipPath>
    <clipPath
       id="d">
      <rect
         width="136.432"
         height="125.057"
         transform="translate(0 0)"
         fill="#56358b"
         id="rect3" />
    </clipPath>
  </defs>
  <g
     transform="translate(1003 15386)"
     id="g11">
    <circle
       cx="-885.29999"
       cy="-15032.9"
       r="117.7"
       fill="url(#a)"
       id="circle3"
       style="fill:url(#a)" />
    <path
       style="font-weight:800;font-size:75.119px;font-family:'Proxima Nova';-inkscape-font-specification:'Proxima Nova Ultra-Bold';fill:#ffffff"
       d="m -919.71244,-15032.854 c 9.84059,0 14.72332,-6.31 14.72332,-13.596 0,-6.31 -4.20666,-11.418 -9.54011,-12.244 4.7325,-1.052 8.56357,-5.259 8.56357,-11.494 0,-6.31 -4.7325,-12.77 -14.64821,-12.77 h -28.39498 v 50.104 z m -3.83107,-30.873 h -12.54487 v -8.339 h 12.54487 c 2.62917,0 4.43202,1.728 4.43202,4.132 0,2.479 -1.80285,4.207 -4.43202,4.207 z m 0.45072,19.981 h -12.99559 v -9.014 h 12.99559 c 3.15499,0 4.95785,2.028 4.95785,4.507 0,2.704 -1.87798,4.507 -4.95785,4.507 z m 38.08535,10.892 v -50.104 h -12.92047 v 50.104 z m 33.57818,0.902 c 9.465,0 16.75154,-3.831 22.16011,-9.766 v -19.906 h -24.18832 v 11.343 h 11.26785 v 3.906 c -1.80286,1.502 -5.55881,3.005 -9.23964,3.005 -8.18797,0 -13.97213,-6.31 -13.97213,-14.498 0,-8.188 5.78416,-14.498 13.97213,-14.498 4.88274,0 8.71381,3.08 10.59178,6.385 l 10.81714,-5.634 c -3.45548,-6.235 -10.21619,-12.169 -21.40892,-12.169 -14.94868,0 -27.11796,9.991 -27.11796,25.916 0,15.925 12.16928,25.916 27.11796,25.916 z"
       id="text3"
       aria-label="BIG" />
    <path
       style="font-weight:800;font-size:36.677px;font-family:'Proxima Nova';-inkscape-font-specification:'Proxima Nova Ultra-Bold';fill:#ffffff"
       d="m -942.95792,-15008.809 v -9.646 h 11.36987 v -5.501 h -11.36987 v -3.815 h 11.62661 v -5.501 h -17.93505 v 24.463 z m 26.88427,0.441 c 7.48211,0 13.05701,-5.209 13.05701,-12.654 0,-7.445 -5.5749,-12.654 -13.05701,-12.654 -7.48211,0 -13.09369,5.209 -13.09369,12.654 0,7.445 5.61158,12.654 13.09369,12.654 z m 0,-5.575 c -4.07115,0 -6.67521,-3.118 -6.67521,-7.079 0,-3.998 2.60406,-7.079 6.67521,-7.079 4.03447,0 6.63854,3.081 6.63854,7.079 0,3.961 -2.60407,7.079 -6.63854,7.079 z m 37.11715,5.134 -4.98807,-8.985 c 2.27397,-0.807 4.87804,-3.081 4.87804,-7.336 0,-4.548 -3.08087,-8.142 -8.50906,-8.142 h -12.25012 v 24.463 h 6.30844 v -8.215 h 3.22758 l 4.10782,8.215 z m -9.57269,-13.717 h -4.98808 v -5.245 h 4.98808 c 1.65046,0 3.04419,0.954 3.04419,2.604 0,1.724 -1.39373,2.641 -3.04419,2.641 z m 40.71144,13.717 v -24.463 h -8.7658 l -5.13478,13.277 -5.09811,-13.277 h -8.7658 v 24.463 h 6.30844 v -15.917 l 6.16174,15.917 h 2.78745 l 6.19841,-15.917 v 15.917 z m 28.16796,0 -9.2426,-24.463 h -7.92223 l -9.20593,24.463 h 7.15201 l 1.21035,-3.521 h 9.64605 l 1.21034,3.521 z m -10.08617,-9.022 h -6.23509 l 3.11754,-9.206 z"
       id="text4"
       aria-label="FORMA" />
    <g
       transform="translate(-953.516,-15095.428)"
       clip-path="url(#b)"
       id="g5">
      <path
         style="font-weight:800;font-size:36.677px;font-family:'Proxima Nova';-inkscape-font-specification:'Proxima Nova Ultra-Bold';fill:#ffffff"
         d="m 13.973936,0 v -18.962008 h 6.821922 v -5.50155 H 0.80689396 v 5.50155 H 7.6654926 V 0 Z M 30.111841,0 V -24.463558 H 23.803397 V 0 Z m 16.247904,0.44012398 c 7.482107,0 13.057011,-5.20813378 13.057011,-12.65356398 0,-7.445431 -5.574904,-12.653565 -13.057011,-12.653565 -7.482108,0 -13.093689,5.208134 -13.093689,12.653565 0,7.4454302 5.611581,12.65356398 13.093689,12.65356398 z m 0,-5.57490368 c -4.071147,0 -6.675214,-3.1175449 -6.675214,-7.0786603 0,-3.997793 2.604067,-7.078661 6.675214,-7.078661 4.034469,0 6.638536,3.080868 6.638536,7.078661 0,3.9611154 -2.604067,7.0786603 -6.638536,7.0786603 z M 85.347421,0 v -24.463558 h -6.34512 v 13.460459 l -9.90279,-13.460459 H 62.607682 V 0 h 6.308444 V -14.157321 L 79.25904,0 Z M 98.84455,0.44012398 c 6.56518,0 10.19621,-3.26425288 10.19621,-8.17897058 0,-9.0958954 -13.827233,-6.8219214 -13.827233,-9.9394664 0,-1.026956 0.806894,-1.760496 2.640744,-1.760496 2.420679,0 5.098099,0.843571 7.152019,2.530713 l 3.44763,-4.511271 c -2.60406,-2.237297 -6.01502,-3.410961 -9.939463,-3.410961 -6.271767,0 -9.756081,3.6677 -9.756081,7.775524 0,9.4259884 13.863904,6.748568 13.863904,10.0861744 0,1.1736639 -1.32037,2.0172349 -3.484314,2.0172349 -3.337607,0 -6.051705,-1.46708 -7.812201,-3.2275759 l -3.337606,4.7313328 c 2.457359,2.3473279 5.904996,3.88776178 10.856391,3.88776178 z"
         id="text5"
         transform="translate(2.049,110.459)"
         aria-label="TIONS" />
    </g>
    <circle
       cx="-885.29999"
       cy="-15268.3"
       r="117.7"
       fill="#ffffff"
       id="circle6" />
    <g
       clip-path="url(#d)"
       id="g7"
       transform="translate(-953.516,-15330.828)">
      <path
         style="font-weight:800;font-size:75.119px;font-family:'Proxima Nova';-inkscape-font-specification:'Proxima Nova Ultra-Bold';fill:#56358b"
         d="m 33.803551,0 c 9.84059,0 14.723325,-6.3099963 14.723325,-13.59654 0,-6.309996 -4.206664,-11.418088 -9.540113,-12.244397 4.732497,-1.051666 8.563566,-5.25833 8.563566,-11.493208 0,-6.309996 -4.732497,-12.77023 -14.648206,-12.77023 H 4.5071402 V 0 Z M 29.972482,-30.87391 H 17.427609 v -8.33821 h 12.544873 c 2.629165,0 4.432022,1.727737 4.432022,4.131545 0,2.478928 -1.802857,4.206665 -4.432022,4.206665 z m 0.450714,19.981655 H 17.427609 v -9.014281 h 12.995587 c 3.154998,0 4.957855,2.028213 4.957855,4.50714 0,2.704284 -1.877976,4.507141 -4.957855,4.507141 z M 68.508553,0 V -50.104375 H 55.588084 V 0 Z m 33.578177,0.90142804 c 9.465,0 16.75154,-3.83106914 22.16011,-9.76547044 V -28.770578 h -24.18832 v 11.342969 h 11.26785 v 3.906188 c -1.80286,1.50238 -5.55881,3.004761 -9.23964,3.004761 -8.187969,0 -13.972132,-6.309997 -13.972132,-14.497968 0,-8.187971 5.784163,-14.497968 13.972132,-14.497968 4.88274,0 8.71381,3.079879 10.59178,6.385116 l 10.81714,-5.633926 c -3.45548,-6.234877 -10.21619,-12.169278 -21.40892,-12.169278 -14.948679,0 -27.117958,9.990827 -27.117958,25.916056 0,15.9252286 12.169279,25.91605604 27.117958,25.91605604 z"
         id="text6"
         transform="translate(0,62.574)"
         aria-label="BIG" />
    </g>
    <path
       style="font-weight:800;font-size:36.677px;font-family:'Proxima Nova';-inkscape-font-specification:'Proxima Nova Ultra-Bold';fill:#56358b"
       d="m -942.95792,-15244.208 v -9.646 h 11.36987 v -5.502 h -11.36987 v -3.814 h 11.62661 v -5.502 h -17.93505 v 24.464 z m 26.88427,0.44 c 7.48211,0 13.05701,-5.208 13.05701,-12.653 0,-7.446 -5.5749,-12.654 -13.05701,-12.654 -7.48211,0 -13.09369,5.208 -13.09369,12.654 0,7.445 5.61158,12.653 13.09369,12.653 z m 0,-5.575 c -4.07115,0 -6.67521,-3.117 -6.67521,-7.078 0,-3.998 2.60406,-7.079 6.67521,-7.079 4.03447,0 6.63854,3.081 6.63854,7.079 0,3.961 -2.60407,7.078 -6.63854,7.078 z m 37.11715,5.135 -4.98807,-8.986 c 2.27397,-0.807 4.87804,-3.081 4.87804,-7.335 0,-4.548 -3.08087,-8.143 -8.50906,-8.143 h -12.25012 v 24.464 h 6.30844 v -8.216 h 3.22758 l 4.10782,8.216 z m -9.57269,-13.717 h -4.98808 v -5.245 h 4.98808 c 1.65046,0 3.04419,0.954 3.04419,2.604 0,1.724 -1.39373,2.641 -3.04419,2.641 z m 40.71144,13.717 v -24.464 h -8.7658 l -5.13478,13.278 -5.09811,-13.278 h -8.7658 v 24.464 h 6.30844 v -15.918 l 6.16174,15.918 h 2.78745 l 6.19841,-15.918 v 15.918 z m 28.16796,0 -9.2426,-24.464 h -7.92223 l -9.20593,24.464 h 7.15201 l 1.21035,-3.521 h 9.64605 l 1.21034,3.521 z m -10.08617,-9.023 h -6.23509 l 3.11754,-9.205 z"
       id="text7"
       aria-label="FORMA" />
    <g
       clip-path="url(#d)"
       id="g8"
       transform="translate(-953.516,-15330.828)">
      <path
         style="font-weight:800;font-size:36.677px;font-family:'Proxima Nova';-inkscape-font-specification:'Proxima Nova Ultra-Bold';fill:#56358b"
         d="m 13.973936,0 v -18.962008 h 6.821922 v -5.50155 H 0.80689396 v 5.50155 H 7.6654926 V 0 Z M 30.111841,0 V -24.463558 H 23.803397 V 0 Z m 16.247904,0.44012398 c 7.482107,0 13.057011,-5.20813378 13.057011,-12.65356398 0,-7.445431 -5.574904,-12.653565 -13.057011,-12.653565 -7.482108,0 -13.093689,5.208134 -13.093689,12.653565 0,7.4454302 5.611581,12.65356398 13.093689,12.65356398 z m 0,-5.57490368 c -4.071147,0 -6.675214,-3.1175449 -6.675214,-7.0786603 0,-3.997793 2.604067,-7.078661 6.675214,-7.078661 4.034469,0 6.638536,3.080868 6.638536,7.078661 0,3.9611154 -2.604067,7.0786603 -6.638536,7.0786603 z M 85.347421,0 v -24.463558 h -6.34512 v 13.460459 l -9.90279,-13.460459 H 62.607682 V 0 h 6.308444 V -14.157321 L 79.25904,0 Z M 98.84455,0.44012398 c 6.56518,0 10.19621,-3.26425288 10.19621,-8.17897058 0,-9.0958954 -13.827233,-6.8219214 -13.827233,-9.9394664 0,-1.026956 0.806894,-1.760496 2.640744,-1.760496 2.420679,0 5.098099,0.843571 7.152019,2.530713 l 3.44763,-4.511271 c -2.60406,-2.237297 -6.01502,-3.410961 -9.939463,-3.410961 -6.271767,0 -9.756081,3.6677 -9.756081,7.775524 0,9.4259884 13.863904,6.748568 13.863904,10.0861744 0,1.1736639 -1.32037,2.0172349 -3.484314,2.0172349 -3.337607,0 -6.051705,-1.46708 -7.812201,-3.2275759 l -3.337606,4.7313328 c 2.457359,2.3473279 5.904996,3.88776178 10.856391,3.88776178 z"
         id="text8"
         transform="translate(2.049,110.459)"
         aria-label="TIONS" />
    </g>
  </g>
</svg>
