<svg id="Logo_BIG_Formations" data-name="Logo BIG Formations" xmlns="http://www.w3.org/2000/svg" width="235.4" height="235.4" viewBox="0 0 235.4 235.4">
  <circle id="Ellipse_46" data-name="Ellipse 46" cx="117.7" cy="117.7" r="117.7" fill="#fff"/>
  <path id="Union_3" data-name="Union 3" d="M1042.438,19857.2l3.853-5.5a11.415,11.415,0,0,0,7.885,3.154c1.391,0,2.712-.479,2.712-1.43s-1.027-1.432-3.444-1.869c-4.037-.738-10.2-1.691-10.2-7.816,0-3.328,2.227-6.422,6.584-7.51v-14.861l-5.468,15.443h-3.3l-5.463-15.443v14.82h4.75v24.463h-7.118l-9.022-13.135v13.135H1016.8v-23.84h-.02l-3.375-7.852h-2.677v7.852h-4.4a12.147,12.147,0,0,1,7.83,11.623c0,7.521-5.832,12.656-13.388,12.656s-13.383-5.135-13.383-12.656,5.832-12.65,13.383-12.65a15.8,15.8,0,0,1,2.552.2v-23.641h2.577v-49.686h15.173v50.1h-1.632a8.426,8.426,0,0,1,1.337,15.389l4.436,8.658h-.357l8.078,11.7v-11.7h-4.75v-24.465h10.233l4.292,12.467,4.109-11.937c-11.691-2.641-20.339-11.762-20.339-25.123,0-16.08,12.4-25.918,27.569-25.918,11.644,0,18.552,5.861,22.011,12.316l-12.775,6.539a10.363,10.363,0,0,0-9.236-5.482c-7.287,0-12.172,5.557-12.172,12.545s4.885,12.541,12.172,12.541a14.283,14.283,0,0,0,8.19-2.252v-2.18h-9.695v-12.471h24.414v20.133a29.539,29.539,0,0,1-19.724,10v22.672q.723.149,1.417.354l8.925-24.2h9.316l9.022,24.465h-8.03l-.957-3.156h-9.386l-.957,3.156h-7.129a14.483,14.483,0,0,1,4.328,2.416l-3.963,5.25a12.181,12.181,0,0,0-6.824-2.424c-1.829,0-2.233.658-2.233,1.287,0,.951.987,1.281,3.594,1.719,4.032.7,10.009,1.875,10.009,7.521,0,5.389-4,8.51-10.562,8.51C1048.6,19861.084,1045.045,19859.543,1042.438,19857.2Zm-47.532-8.768a5.874,5.874,0,1,0,5.867-6.121A5.79,5.79,0,0,0,994.906,19848.428Zm74.543-20.939h5.578l-2.786-8.623Zm-58.717-4.7h4.511a2.162,2.162,0,1,0,0-4.293h-4.511Zm-33.4,37.852v-24.463h4.314a12.546,12.546,0,0,1,.635-23.424H972.073v5.742h-11.15v2.861h10.9v6.162h-10.9v8.658H974.7v6.453h-6.53v18.01h-7.407v-18.01h-6.57v-5.83h-.678v-24.465h.025v-49.686h30.425c10.368,0,14.874,6.908,14.874,12.771,0,6.234-3.679,10.441-8.563,11.494,5.408.826,9.54,5.781,9.54,12.24a12.943,12.943,0,0,1-9.883,12.994c6.234,1.049,10.751,5.818,10.751,12.438,0,7.518-5.832,12.65-13.388,12.65a15.96,15.96,0,0,1-2.547-.2v23.6Zm4.092-36.053a5.872,5.872,0,1,0,5.867-6.125A5.786,5.786,0,0,0,981.428,19824.592Zm-12.71-24.154h12.167a3.312,3.312,0,0,0,3.529-3.379,3.416,3.416,0,0,0-3.529-3.455H968.718Zm0-19.156h11.719a3.167,3.167,0,0,0,3.006-3.229,3.086,3.086,0,0,0-3.006-3.082H968.718Z" transform="translate(-900.002 -19695.012)" fill="#56358b" stroke="rgba(0,0,0,0)" stroke-miterlimit="10" stroke-width="1"/>
</svg>
