<svg id="Logo_BIG_Formationsfdviolet" data-name="Logo BIG Formationsfdviolet" xmlns="http://www.w3.org/2000/svg" xmlns:xlink="http://www.w3.org/1999/xlink" width="235.4" height="235.4" viewBox="0 0 235.4 235.4">
  <defs>
    <linearGradient id="linear-gradient" y1="0.5" x2="1" y2="0.5" gradientUnits="objectBoundingBox">
      <stop offset="0" stop-color="#82368c"/>
      <stop offset="1" stop-color="#27348b"/>
    </linearGradient>
  </defs>
  <circle id="Ellipse_50" data-name="Ellipse 50" cx="117.7" cy="117.7" r="117.7" fill="url(#linear-gradient)"/>
  <path id="Union_3" data-name="Union 3" d="M1041.76,19857.2l3.853-5.5a11.4,11.4,0,0,0,7.885,3.154c1.391,0,2.712-.479,2.712-1.43s-1.027-1.432-3.449-1.869c-4.032-.738-10.193-1.691-10.193-7.816,0-3.8,2.906-7.3,8.583-7.848v-14.523l-5.468,15.443h-3.3l-5.463-15.443v14.82h2.746v24.463h-7.113l-9.022-13.135v13.135h-7.407v-24.463h1.711l-3.107-7.229h-2.677v7.852h-6.4a12.147,12.147,0,0,1,7.83,11.623c0,7.521-5.832,12.656-13.388,12.656s-13.388-5.135-13.388-12.656,5.832-12.65,13.388-12.65a15.336,15.336,0,0,1,4.546.67v-24.107h2.582v-49.686H1022.4v50.1h-1.631a8.426,8.426,0,0,1,1.337,15.389l4.436,8.658h-2.356l8.078,11.7v-11.7h-2.751v-24.465h10.233l4.292,12.467,4.109-11.936c-11.693-2.643-20.339-11.764-20.339-25.125,0-16.08,12.391-25.918,27.569-25.918,11.644,0,18.552,5.861,22.006,12.316l-12.77,6.539a10.362,10.362,0,0,0-9.236-5.482c-7.287,0-12.172,5.557-12.172,12.545s4.885,12.541,12.172,12.541a14.254,14.254,0,0,0,8.185-2.252v-2.18h-9.69v-12.471h24.414v20.133a29.539,29.539,0,0,1-19.724,10v23.211a14.547,14.547,0,0,1,4.546,2.494l-3.958,5.25a12.181,12.181,0,0,0-6.824-2.424c-1.834,0-2.238.658-2.238,1.287,0,.951.992,1.281,3.594,1.719,4.037.7,10.014,1.875,10.014,7.521,0,5.389-4,8.51-10.562,8.51C1047.921,19861.084,1044.362,19859.543,1041.76,19857.2Zm-47.532-8.768a5.872,5.872,0,1,0,5.867-6.121A5.787,5.787,0,0,0,994.229,19848.428Zm17.824-25.635h4.511a2.162,2.162,0,1,0,0-4.293h-4.511Zm-35.395,37.852v-24.463h6.313a12.546,12.546,0,0,1,.635-23.424H973.393v5.742h-11.15v2.861h10.9v6.162h-10.9v8.658h11.773v6.453h-6.525v18.01H960.08v-18.01h-6.565v-6.453h1.321v-23.842h.025v-49.686h30.425c10.368,0,14.874,6.908,14.874,12.771,0,6.234-3.684,10.441-8.563,11.494,5.408.826,9.54,5.781,9.54,12.24a12.943,12.943,0,0,1-9.883,12.994c6.234,1.049,10.751,5.818,10.751,12.438,0,7.518-5.832,12.65-13.388,12.65a15.3,15.3,0,0,1-4.551-.672v24.074Zm6.091-36.053a5.872,5.872,0,1,0,5.867-6.125A5.786,5.786,0,0,0,982.749,19824.592Zm-12.71-24.154h12.167a3.312,3.312,0,0,0,3.529-3.379,3.416,3.416,0,0,0-3.529-3.455H970.039Zm0-19.156h11.719a3.163,3.163,0,0,0,3-3.229,3.081,3.081,0,0,0-3-3.082H970.039Zm109.17,55.523-.957-3.156h-9.386l-.957,3.156h-8.03l9.022-24.465h9.316l9.022,24.465Zm-8.439-9.316h5.578l-2.791-8.623Z" transform="translate(-901.322 -19695.012)" fill="#fff" stroke="rgba(0,0,0,0)" stroke-miterlimit="10" stroke-width="1"/>
</svg>
