<svg id="Logo_BIG_Dashboard_Violet" data-name="Logo BIG Dashboard Violet" xmlns="http://www.w3.org/2000/svg" xmlns:xlink="http://www.w3.org/1999/xlink" width="235.4" height="235.4" viewBox="0 0 235.4 235.4">
  <defs>
    <linearGradient id="linear-gradient" y1="0.5" x2="1" y2="0.5" gradientUnits="objectBoundingBox">
      <stop offset="0" stop-color="#82368c"/>
      <stop offset="1" stop-color="#27348b"/>
    </linearGradient>
  </defs>
  <g id="Groupe_204" data-name="Groupe 204">
    <circle id="Ellipse_49" data-name="Ellipse 49" cx="117.7" cy="117.7" r="117.7" fill="url(#linear-gradient)"/>
    <g id="Groupe_197" data-name="Groupe 197" transform="translate(53.8 66.2)">
      <path id="Tracé_263" data-name="Tracé 263" d="M795.4,521.8a20.907,20.907,0,0,0,2.5.1,29.861,29.861,0,0,0,22.9-10.1V491.7H796.4v12.5h9.7v2.2a14.708,14.708,0,0,1-8.2,2.3c-7.3,0-12.2-5.6-12.2-12.5,0-7,4.9-12.5,12.2-12.5a10.2,10.2,0,0,1,9.2,5.5l12.8-6.5c-3.5-6.5-10.4-12.3-22-12.3-15.2,0-27.6,9.8-27.6,25.9,0,12.6,7.7,21.4,18.3,24.6H788v8.7h-8.8v-8.7h-7.4v24.5H776v23.8h7.4v-7.8h2.7l3.4,7.8h8.4l-4.4-8.7a8.471,8.471,0,0,0-.7-15.2h2.7V521.8Zm-16.2,22.7v-8.7H788v8.7Zm8.7,10.4h-4.5v-4.3h4.5a2.248,2.248,0,0,1,2.4,2.1A2.157,2.157,0,0,1,787.9,554.9Z" transform="translate(-697.5 -470.4)" fill="#fff"/>
      <path id="Tracé_264" data-name="Tracé 264" d="M740.6,545.1H748l-9-24.5h-6c7.3-1.5,10.7-7.2,10.7-13.2,0-6.5-4.1-11.4-9.5-12.2,4.9-1.1,8.6-5.3,8.6-11.5,0-5.9-4.5-12.8-14.9-12.8H697.5v49.7h0v48.2h15.4c4.9,0,7.2-3.2,7.2-6.6a5.738,5.738,0,0,0-4.7-6,5.4,5.4,0,0,0,4.2-5.6c0-2.7-2-5.9-6.6-6.2,5.3-1.4,8.8-5.5,8.8-11.7,0-6.4-3.9-10.5-9.5-11.8h17.3L720.7,545h8l1-3.2h9.4l.9,2.9a15.251,15.251,0,0,0-4.9-.8c-7.6,0-13.4,5.1-13.4,12.7,0,7.5,5.8,12.7,13.4,12.7s13.4-5.1,13.4-12.7A12.22,12.22,0,0,0,740.6,545.1Zm-28-61.8h11.7a3.154,3.154,0,0,1,0,6.3H712.6Zm-7.8,67.2h5.7A1.538,1.538,0,0,1,712,552a1.561,1.561,0,0,1-1.5,1.6h-5.7Zm6,12.4h-5.9v-3.3h5.9a1.626,1.626,0,0,1,1.7,1.7A1.605,1.605,0,0,1,710.8,562.9Zm3.5-30.1a5.644,5.644,0,0,1-5.9,5.8h-3.5V527h3.6C712.4,527.1,714.3,529.5,714.3,532.8Zm10.5-24.1H712.6v-6.8h12.2a3.414,3.414,0,0,1,3.5,3.5A3.259,3.259,0,0,1,724.8,508.7Zm6.8,27.1,2.8-8.6,2.8,8.6Zm3.5,27a6.1,6.1,0,1,1,5.9-6.1C740.9,560.1,738.6,562.8,735.1,562.8Z" transform="translate(-697.5 -470.4)" fill="#fff"/>
      <path id="Tracé_265" data-name="Tracé 265" d="M764.6,544.5a7.539,7.539,0,0,0,4.8-7.4c0-5.6-6-6.8-10-7.5-2.6-.4-3.6-.8-3.6-1.7,0-.6.4-1.3,2.2-1.3a12.224,12.224,0,0,1,6.8,2.4l4-5.2a13.292,13.292,0,0,0-5-2.6h1.1V471.1H749.7V521h3.9c-3.6,1.3-5.4,4.1-5.4,7.1,0,6.1,6.2,7.1,10.2,7.8,2.4.4,3.4.9,3.4,1.9s-1.3,1.4-2.7,1.4a11.231,11.231,0,0,1-7.9-3.2l-3.9,5.5a15.2,15.2,0,0,0,8.6,3.7l-8.7,23.6h8l1-3.2h9.4l1,3.2h8l-9-24.5h-1Zm-6.4,15.1L761,551l2.8,8.6Z" transform="translate(-697.5 -470.4)" fill="#fff"/>
      <path id="Tracé_266" data-name="Tracé 266" d="M811.8,544.5H800.9V569h11c7.7,0,13.4-4.4,13.4-12.3S819.5,544.5,811.8,544.5Zm0,18h-3.5V550.9h3.6c4,0,5.9,2.5,5.9,5.8A5.789,5.789,0,0,1,811.8,562.5Z" transform="translate(-697.5 -470.4)" fill="#fff"/>
    </g>
  </g>
</svg>
