<svg id="Logo_BIG_Dashboard_blc" data-name="Logo BIG Dashboard blc" xmlns="http://www.w3.org/2000/svg" xmlns:xlink="http://www.w3.org/1999/xlink" width="235.4" height="235.4" viewBox="0 0 235.4 235.4">
  <defs>
    <linearGradient id="linear-gradient" x1="-2.697" y1="2.386" x2="3.211" y2="-1.208" gradientUnits="objectBoundingBox">
      <stop offset="0" stop-color="#82368c"/>
      <stop offset="1" stop-color="#27348b"/>
    </linearGradient>
    <linearGradient id="linear-gradient-2" x1="-2.761" y1="2.472" x2="3.245" y2="-1.234" xlink:href="#linear-gradient"/>
    <linearGradient id="linear-gradient-3" x1="-4.697" y1="2.247" x2="5.082" y2="-1.011" xlink:href="#linear-gradient"/>
    <linearGradient id="linear-gradient-4" x1="-1.62" y1="2.857" x2="2.132" y2="-1.591" xlink:href="#linear-gradient"/>
  </defs>
  <circle id="Ellipse_45" data-name="Ellipse 45" cx="117.7" cy="117.7" r="117.7" fill="#fff"/>
  <g id="Groupe_189" data-name="Groupe 189" transform="translate(-643.699 -90.4)">
    <path id="Tracé_247" data-name="Tracé 247" d="M795.4,208a20.9,20.9,0,0,0,2.5.1A29.861,29.861,0,0,0,820.8,198V177.9H796.4v12.5h9.7v2.2a14.708,14.708,0,0,1-8.2,2.3c-7.3,0-12.2-5.6-12.2-12.5,0-7,4.9-12.5,12.2-12.5a10.2,10.2,0,0,1,9.2,5.5l12.8-6.5c-3.5-6.5-10.4-12.3-22-12.3-15.2,0-27.6,9.8-27.6,25.9,0,12.6,7.7,21.4,18.3,24.6H788v8.7h-8.8v-8.7h-7.4v24.5H776v23.8h7.4v-7.8h2.7l3.4,7.8h8.4l-4.4-8.7a8.471,8.471,0,0,0-.7-15.2h2.7V208Zm-16.2,22.6v-8.7H788v8.7Zm8.7,10.5h-4.5v-4.3h4.5a2.248,2.248,0,0,1,2.4,2.1A2.157,2.157,0,0,1,787.9,241.1Z" fill="url(#linear-gradient)"/>
    <path id="Tracé_248" data-name="Tracé 248" d="M740.6,231.2H748l-9-24.5h-6c7.3-1.5,10.7-7.2,10.7-13.2,0-6.5-4.1-11.4-9.5-12.2,4.9-1.1,8.6-5.3,8.6-11.5,0-5.9-4.5-12.8-14.9-12.8H697.5v49.7h0v48.2h15.4c4.9,0,7.2-3.2,7.2-6.6,0-3.2-2-5.6-4.7-6a5.4,5.4,0,0,0,4.2-5.6c0-2.7-2-5.9-6.6-6.2,5.3-1.4,8.8-5.5,8.8-11.7,0-6.4-3.9-10.5-9.5-11.8h17.3l-8.9,24.1h8l1-3.2h9.4l.9,2.9a15.251,15.251,0,0,0-4.9-.8c-7.6,0-13.4,5.1-13.4,12.7,0,7.5,5.8,12.7,13.4,12.7s13.4-5.1,13.4-12.7A12.319,12.319,0,0,0,740.6,231.2Zm-35.8,5.4h5.7a1.538,1.538,0,0,1,1.5,1.5,1.561,1.561,0,0,1-1.5,1.6h-5.7Zm6,12.5h-5.9v-3.3h5.9a1.626,1.626,0,0,1,1.7,1.7A1.667,1.667,0,0,1,710.8,249.1Zm3.5-30.1a5.644,5.644,0,0,1-5.9,5.8h-3.5V213.2h3.6C712.4,213.2,714.3,215.7,714.3,219Zm-1.7-49.6h11.7a3.154,3.154,0,0,1,0,6.3H712.6Zm12.2,25.5H712.6V188h12.2a3.414,3.414,0,0,1,3.5,3.5A3.281,3.281,0,0,1,724.8,194.9Zm6.8,27,2.8-8.6,2.8,8.6Zm3.5,27.1a6.1,6.1,0,1,1,5.9-6.1C740.9,246.3,738.6,249,735.1,249Z" fill="url(#linear-gradient-2)"/>
    <path id="Tracé_249" data-name="Tracé 249" d="M764.6,230.6a7.539,7.539,0,0,0,4.8-7.4c0-5.6-6-6.8-10-7.5-2.6-.4-3.6-.8-3.6-1.7,0-.6.4-1.3,2.2-1.3a12.224,12.224,0,0,1,6.8,2.4l4-5.2a13.292,13.292,0,0,0-5-2.6h1.1V157.2H749.7v50.1h3.9c-3.6,1.3-5.4,4.1-5.4,7.1,0,6.1,6.2,7.1,10.2,7.8,2.4.4,3.4.9,3.4,1.9s-1.3,1.4-2.7,1.4a11.231,11.231,0,0,1-7.9-3.2l-3.9,5.5a15.2,15.2,0,0,0,8.6,3.7l-8.7,23.6h8l1-3.2h9.4l1,3.2h8l-9-24.5h-1Zm-6.4,15.2,2.8-8.6,2.8,8.6Z" fill="url(#linear-gradient-3)"/>
    <path id="Tracé_250" data-name="Tracé 250" d="M811.8,230.6H800.9v24.5h11c7.7,0,13.4-4.4,13.4-12.3S819.5,230.6,811.8,230.6Zm0,18h-3.5V237h3.6c4,0,5.9,2.5,5.9,5.8A5.789,5.789,0,0,1,811.8,248.6Z" fill="url(#linear-gradient-4)"/>
  </g>
</svg>
