<svg xmlns="http://www.w3.org/2000/svg" width="3448.369" height="2915.208" viewBox="0 0 3448.369 2915.208">
  <path id="_360_" data-name="360° " d="M1251,2105.682c112.763-22.039,210.3-50.5,292.333-83.377,77.808-31.184,142.866-66.819,194.531-105.475,49.844-37.294,88.028-78,113.54-121.1,25.041-42.3,38.314-87.65,38.314-135.365,0-29.555-5.1-56.874-14.956-81.851a213.843,213.843,0,0,0-44.242-68.712c-19.763-20.885-44.445-39.468-73.873-55.5-30.058-16.375-65.266-30.2-105.521-41.136,29.592-11.45,55.826-25.111,78.46-40.694,22.28-15.338,41.175-32.608,56.424-51.57a205.86,205.86,0,0,0,46.282-131.939c0-43.283-12.063-84.663-35.181-123.487-23.51-39.483-58.84-76.969-105.45-111.565-48.172-35.755-109.161-68.99-182.873-98.516-77.446-31.021-170.2-58.448-278.737-80.66-101.641-20.8-201.818-32.124-298.1-33.3-101.664-1.238-198.156,8.851-286.331,30.785C553.3,795.194,471.175,830.874,402.916,879.31c-70.573,50.077-125.23,113-160.349,187.993l641.809,126.5c12.794-30.811,30.467-57.566,52.653-79.965,21.92-22.128,48.135-39.9,78.243-53.086,29.606-12.971,62.843-21.458,99.291-25.325,35.694-3.786,74.327-3.126,115.488,2.056,37.963,4.78,71.832,12.518,101.167,22.5,28.813,9.806,53.4,21.826,73.3,35.428,19.658,13.433,34.862,28.484,45.122,44.583,10.193,15.994,15.569,33.12,15.569,50.86A79,79,0,0,1,1449.067,1239c-10.677,14.309-26.56,26.708-47.254,36.706-20.969,10.131-47.007,17.859-77.78,22.623-31.368,4.856-67.836,6.659-109.11,4.756l-113.1-5.214v258.1L1251,1551.733c44.019-1.25,83,.761,116.575,5.76,32.882,4.9,60.771,12.687,83.257,23.175,22.166,10.338,39.224,23.364,50.7,38.948,11.4,15.468,17.375,33.567,17.375,54.242,0,20.27-6.137,39.535-17.772,57.33-11.723,17.931-29.113,34.5-51.621,49.18-22.838,14.9-51.1,27.943-84.281,38.536-33.887,10.817-73.116,19.141-117.214,24.264-45.3,5.263-89.3,6.521-130.844,3.3-42.567-3.3-82.4-11.3-118.189-24.435-36.526-13.409-68.657-32.106-95-56.464a228.437,228.437,0,0,1-60.408-91.337L160.091,1824.194c40.338,83.181,106.055,149.2,189.911,199.2,80.648,48.081,176.7,80.51,281.533,99.465,99.528,18,205.94,23.658,314.049,19.372C1047.6,2138.181,1150.651,2125.3,1251,2105.682Zm1176.337-229.916c48.7-9.519,91.628-25.127,128.34-45.4,35.419-19.557,65.413-43.65,89.5-71.175a287.783,287.783,0,0,0,53.81-90.385c12.028-32.694,18.411-68.423,18.411-106.553,0-35.177-5.51-67.415-15.923-96.188a225.166,225.166,0,0,0-46.485-76.888c-20.738-22.4-46.524-40.9-76.945-54.585-31.381-14.117-67.979-23.235-109.42-26.182q-7.161-.509-14.369-.793-7.232-.276-14.453-.266-7.245.02-14.42.388-7.2.38-14.263,1.17,22.47-33.473,45.453-65.914,22.649-31.974,45.74-62.9,22.746-30.47,45.868-59.886,22.768-28.972,45.85-56.888l-219.991-43.968L2169.252,1293.5c-20.386,27.55-38.51,54.312-54.263,80.609a626.7,626.7,0,0,0-40.288,78.494,437.531,437.531,0,0,0-24.815,77.348,363.186,363.186,0,0,0-8.381,77.266c0,52.064,11.484,98.46,32.645,137.837a248.1,248.1,0,0,0,87.5,93.222c35.745,22.471,77.655,36.972,123.776,43.129C2329.752,1887.327,2377.609,1885.486,2427.338,1875.767ZM2300.089,1591.9a141.071,141.071,0,0,1,10.161-53.785,119.948,119.948,0,0,1,28.1-41.407,123.164,123.164,0,0,1,42.052-26.2,147.914,147.914,0,0,1,51.878-9.09c18.328-.033,34.855,3.01,49.29,8.649a101.231,101.231,0,0,1,59.281,60.278,133.653,133.653,0,0,1,7.949,46.823,141.649,141.649,0,0,1-7.949,47.764,119.691,119.691,0,0,1-59.281,67.3,145.281,145.281,0,0,1-49.29,14.489c-18.649,2.177-36.112,1.111-51.878-2.943a106.041,106.041,0,0,1-42.052-21.22,101.716,101.716,0,0,1-28.1-38.078C2303.645,1629.167,2300.089,1611.5,2300.089,1591.9Zm698.223,178.945c29.546-5.9,55.063-17.79,76.621-35.121,20.953-16.843,38.357-38.979,52.19-66.053q20.358-39.846,30.669-94.5,10.159-54.04,10.255-123.255,0-69.211-10.255-123.339-10.257-54.647-30.669-94.75c-13.833-27.187-31.238-49.464-52.19-66.478-21.558-17.505-47.074-29.6-76.621-35.744-30.7-6.381-59.221-5-84.917,4.316-26.521,9.616-49.813,27.6-69.208,53.928-19.842,26.93-35.405,62.31-46.063,105.793-10.789,44.013-16.427,95.817-16.427,154.7s5.639,110.735,16.427,154.836c10.658,43.569,26.221,79.076,46.063,106.167,19.4,26.481,42.688,44.659,69.208,54.491C2939.091,1775.365,2967.609,1776.977,2998.312,1770.845Zm-81.193-319.951q0-49.042,5.663-85.711c3.715-24.3,9.2-44.319,16.309-60.016,7.047-15.562,15.66-26.811,25.681-33.754,9.9-6.858,21.131-9.491,33.54-7.955a55.334,55.334,0,0,1,32.165,15.591q13.656,13.109,22.9,36.82,9.141,23.487,13.833,57.432,4.639,33.8,4.681,78.222,0,44.441-4.681,78.184-4.658,33.9-13.833,57.32-9.215,23.6-22.9,36.634a54.83,54.83,0,0,1-32.165,15.329c-12.409,1.435-23.643-1.289-33.54-8.227-10.021-7.025-18.634-18.344-25.681-33.963-7.108-15.755-12.594-35.823-16.309-60.149Q2917.183,1500,2917.119,1450.895Zm366.484-53.81a54.689,54.689,0,0,0,28.214-5.879,57.979,57.979,0,0,0,20.889-18.973c5.665-8.227,10.075-18.331,13.063-30.046a161.234,161.234,0,0,0,4.552-39.688,175.762,175.762,0,0,0-4.552-40.849,122.353,122.353,0,0,0-13.063-33.377,84.39,84.39,0,0,0-20.889-24.3A68.442,68.442,0,0,0,3283.6,1190.9c-10.666-2.217-20.592-1.678-29.511,1.407a52.946,52.946,0,0,0-23.661,16.96c-6.706,8.177-12.018,18.729-15.664,31.36-3.664,12.7-5.624,27.438-5.624,43.871a175.009,175.009,0,0,0,5.624,45.306,116.893,116.893,0,0,0,15.664,35.354,76.465,76.465,0,0,0,23.661,22.994A62.439,62.439,0,0,0,3283.6,1397.084ZM3263.241,1291.4a49.519,49.519,0,0,1,1.485-12.573,27.509,27.509,0,0,1,4.178-9.234,15.872,15.872,0,0,1,6.44-5.348,14.811,14.811,0,0,1,8.258-.972,18.107,18.107,0,0,1,8.153,3.429,23.808,23.808,0,0,1,6.216,7.1,36.764,36.764,0,0,1,3.969,10.133,54.235,54.235,0,0,1,1.4,12.576,49.76,49.76,0,0,1-1.4,12.219,28.1,28.1,0,0,1-3.969,9.121,16.365,16.365,0,0,1-6.216,5.516,14.825,14.825,0,0,1-8.153,1.35,17.58,17.58,0,0,1-8.258-3.078,23.066,23.066,0,0,1-6.44-6.99,36.231,36.231,0,0,1-4.178-10.3A54.117,54.117,0,0,1,3263.241,1291.4Z" fill="#fff"/>
</svg>
