<svg xmlns="http://www.w3.org/2000/svg" width="22.419" height="22.419" viewBox="0 0 22.419 22.419"><path d="M1012.5,790.175h-17.09a2.662,2.662,0,0,0-2.665,2.659v17.1a2.662,2.662,0,0,0,2.665,2.659h17.09a2.662,2.662,0,0,0,2.665-2.659v-17.1A2.662,2.662,0,0,0,1012.5,790.175Zm-3.641,3.5a.7.7,0,0,1,.7-.7h2.1a.7.7,0,0,1,.7.7v2.1a.7.7,0,0,1-.7.7h-2.1a.7.7,0,0,1-.7-.7Zm-4.878,3.431a4.3,4.3,0,1,1-4.311,4.3A4.307,4.307,0,0,1,1003.983,797.109Zm9.082,12.682a.7.7,0,0,1-.7.7H995.549a.7.7,0,0,1-.7-.7V799.283h2.8a4.278,4.278,0,0,0-.489,2.127,6.82,6.82,0,0,0,13.641,0,3.587,3.587,0,0,0-.541-2.127h2.8Z" transform="translate(-992.747 -790.175)"/></svg>