<svg xmlns="http://www.w3.org/2000/svg" width="23.558" height="21.508" viewBox="0 0 23.558 21.508"><path d="M-1636.145-965.8v-7.21c0-1.886-.779-3.174-2.495-3.174a2.515,2.515,0,0,0-2.38,1.707,3.154,3.154,0,0,0-.108,1.138v7.539h-4.939s.064-12.771,0-13.931h4.939v2.186c.292-.956,1.87-2.32,4.388-2.32,3.125,0,5.58,2,5.58,6.319v7.746Zm-17,0v-13.931h4.4V-965.8Zm2.055-15.674a2.431,2.431,0,0,1-2.624-2.415,2.455,2.455,0,0,1,2.686-2.419,2.441,2.441,0,0,1,2.651,2.415,2.45,2.45,0,0,1-2.682,2.419Z" transform="translate(1654.218 986.813)" stroke="rgba(0,0,0,0)" stroke-miterlimit="10" stroke-width="1"/></svg>