<?xml version="1.0" encoding="utf-8"?>
<!-- Generator: Adobe Illustrator 27.7.0, SVG Export Plug-In . SVG Version: 6.00 Build 0)  -->
<svg version="1.1" id="Logo_BIGFIVE_ARRONDI" xmlns="http://www.w3.org/2000/svg" xmlns:xlink="http://www.w3.org/1999/xlink"
	 x="0px" y="0px" viewBox="0 0 288.3 212.9" style="enable-background:new 0 0 288.3 212.9;" xml:space="preserve">
<style type="text/css">
	.st0{enable-background:new    ;}
	.st1{fill:url(#Tracé_29_00000128469359860276888120000014533185206181240505_);}
	.st2{fill:#010202;}
</style>
<g class="st0">
	<path d="M2,193.3h2.6v12.3h5.4v2.4H2V193.3z"/>
	<path d="M17.4,193.3h2.5l5,14.7h-2.7l-0.9-2.7h-5.4l-0.8,2.7h-2.7L17.4,193.3z M20.7,203l-2-6.2l-2,6.2H20.7z"/>
	<path d="M28.7,193.3h2.6v14.7h-2.6V193.3z"/>
	<path d="M36,207.9v-2.5c1.2,0.1,2,0.2,2.5,0.2c1.8,0,2.6-0.6,2.6-1.8c0-0.8-0.4-1.4-1.5-2.1l-1.6-1c-1.5-1-2.3-2.2-2.3-3.8
		c0-2.4,1.8-3.9,4.8-3.9c0.6,0,1.3,0.1,2.2,0.2v2.3c-0.8-0.1-1.5-0.2-2.1-0.2c-1.5,0-2.3,0.5-2.3,1.5c0,0.7,0.4,1.2,1.4,1.8l1.4,0.9
		c1.8,1.2,2.7,2.5,2.7,4.2c0,2.7-1.9,4.3-5.2,4.3C38,208.1,37.2,208.1,36,207.9z"/>
	<path d="M47.6,207.9v-2.5c1.2,0.1,2,0.2,2.5,0.2c1.8,0,2.6-0.6,2.6-1.8c0-0.8-0.4-1.4-1.5-2.1l-1.6-1c-1.5-1-2.3-2.2-2.3-3.8
		c0-2.4,1.8-3.9,4.8-3.9c0.6,0,1.3,0.1,2.2,0.2v2.3c-0.8-0.1-1.5-0.2-2.1-0.2c-1.5,0-2.3,0.5-2.3,1.5c0,0.7,0.4,1.2,1.4,1.8l1.4,0.9
		c1.8,1.2,2.7,2.5,2.7,4.2c0,2.7-1.9,4.3-5.2,4.3C49.6,208.1,48.8,208.1,47.6,207.9z"/>
	<path d="M59.7,193.3h7.9v2.4h-5.3v3.5h5.3v2.4h-5.3v3.9h5.4v2.4h-8V193.3z"/>
	<path d="M71.2,207.6l6.3-11.9h-5.7l0.4-2.5h9.2v0.3l-6.3,11.9h6.2l-0.4,2.5h-9.7V207.6z"/>
	<path d="M90.8,193.3h2.8l3.4,10.9l3.3-10.9h2.7l-4.8,14.7h-2.6L90.8,193.3z"/>
	<path d="M105.5,200.6c0-4.5,3.3-7.6,7.6-7.6c4.3,0,7.6,3.1,7.6,7.6s-3.3,7.6-7.6,7.6C108.8,208.2,105.5,205.1,105.5,200.6z
		 M113.1,205.7c2.7,0,4.9-2.1,4.9-5.1s-2.2-5.1-4.9-5.1c-2.8,0-4.9,2.1-4.9,5.1S110.3,205.7,113.1,205.7z"/>
	<path d="M126.8,195.7h-3.5v-2.4h9.6v2.4h-3.5v12.3h-2.6V195.7z"/>
	<path d="M139.3,201.8v6.2h-2.6v-14.7h4.5c3,0,4.8,1.5,4.8,4.3c0,2.1-1.4,3.7-3.8,4.1l4.8,6.3h-3.2L139.3,201.8z M141,199.7
		c1.4,0,2.3-0.8,2.3-2.1c0-1.3-0.8-2.1-2.3-2.1h-1.7v4.2H141z"/>
	<path d="M150.8,193.3h7.9v2.4h-5.3v3.5h5.3v2.4h-5.3v3.9h5.4v2.4h-8V193.3z"/>
	<path d="M170.3,193.3h7.9v2.4h-5.3v3.5h5.3v2.4h-5.3v3.9h5.4v2.4h-8V193.3z"/>
	<path d="M183,193.3h2.6l4.7,8.1l4.6-8.1h2.6v14.7H195v-10.2l-4,6.9h-1.6l-4-7v10.3H183V193.3z"/>
	<path d="M202.7,193.3h4.4c3.1,0,5,1.7,5,4.6c0,2.7-1.9,4.5-5,4.5h-1.8v5.6h-2.6V193.3z M207.1,199.9c1.5,0,2.4-0.8,2.4-2.1
		s-0.9-2.1-2.4-2.1h-1.8v4.2H207.1z"/>
	<path d="M218.7,201.8v6.2h-2.6v-14.7h4.5c3,0,4.8,1.5,4.8,4.3c0,2.1-1.4,3.7-3.8,4.1l4.8,6.3h-3.2L218.7,201.8z M220.5,199.7
		c1.4,0,2.3-0.8,2.3-2.1c0-1.3-0.8-2.1-2.3-2.1h-1.7v4.2H220.5z"/>
	<path d="M230.2,193.3h7.9v2.4h-5.3v3.5h5.3v2.4h-5.3v3.9h5.4v2.4h-8V193.3z"/>
	<path d="M243,193.3h2.6v14.7H243V193.3z"/>
	<path d="M250.7,193.3h2.4l6.2,10v-10h2.5v14.7h-2.4l-6.2-10v10h-2.5V193.3z"/>
	<path d="M269.2,195.7h-3.5v-2.4h9.6v2.4h-3.5v12.3h-2.6V195.7z"/>
	<path d="M279.1,193.3h7.9v2.4h-5.3v3.5h5.3v2.4h-5.3v3.9h5.4v2.4h-8V193.3z"/>
</g>
<rect x="730" y="197" style="fill:none;" width="3" height="1"/>
<g id="logo_BIGFIVE_ARRONDI-2" transform="translate(-1337 -56.479)">
	
		<linearGradient id="Tracé_29_00000170978168080911548840000011368567735691841213_" gradientUnits="userSpaceOnUse" x1="534.4244" y1="701.0749" x2="534.4244" y2="700.0749" gradientTransform="matrix(68.347 0 0 -180.1084 -35097.2031 126327.9844)">
		<stop  offset="0" style="stop-color:#82368C"/>
		<stop  offset="1" style="stop-color:#27348B"/>
	</linearGradient>
	<path id="Tracé_29" style="fill:url(#Tracé_29_00000170978168080911548840000011368567735691841213_);" d="M1408.5,238.6
		L1408.5,238.6c6.1,0.1,11.5-4,13.1-10l41.2-153c2-7.2-2.3-14.7-9.5-16.7c-1.2-0.3-2.4-0.5-3.6-0.5l0,0c-6.1-0.1-11.5,4-13.1,10
		l-41.2,153c-2,7.2,2.3,14.7,9.5,16.7C1406.1,238.5,1407.3,238.6,1408.5,238.6z"/>
	<path id="Union_2" class="st2" d="M1450.8,102.9c0.3-28.9,22.3-46.4,49.5-46.4c20.6,0,33,10.3,39.2,22l-22.7,11.7
		c-3.3-6-9.7-9.7-16.5-9.6c-13.1,0-21.7,10-21.7,22.3s8.6,22.3,21.7,22.3c5.8,0,11-1.4,14.4-4.1v-3.8h-17.2V95h43.3v35.7
		c-10,11-23.4,18.2-40.9,18.2C1472.8,148.9,1450.8,131.4,1450.8,102.9z M1337,147.2v-89h54.3c18.6,0,26.5,12.4,26.5,22.7
		c0,11-6.5,18.6-15.1,20.6c9.6,1.4,16.8,10.3,16.8,21.7c0,12.4-8.6,24.1-26.5,24.1H1337z M1363.8,125.2h21.7
		c3.3,0.1,6.1-2.4,6.2-5.7c0-0.2,0-0.3,0-0.5c0-3.4-2.7-6.2-6.1-6.2c0,0,0,0-0.1,0h-21.7V125.2z M1363.8,91.2h21
		c3.1-0.1,5.6-2.7,5.5-5.8c0-3-2.4-5.5-5.4-5.5c0,0-0.1,0-0.1,0h-21V91.2z"/>
	<path id="Union_1" class="st2" d="M1482,238.6L1482,238.6l-34.4-93.1h32l19.9,62.6l19.9-62.6h32l-34.4,93.1H1482z M1553.5,238.6
		v-93.1h70.8v23.4h-42.6v11h41.6v23.4h-41.6v12h42.3v23.4H1553.5z M1337,238.6v-93.1h79.1v23.4h-50.9v11h50.2v23.4h-50.2v35.4
		L1337,238.6z"/>
</g>
</svg>
