<?xml version="1.0" encoding="utf-8"?>
<!-- Generator: Adobe Illustrator 27.7.0, SVG Export Plug-In . SVG Version: 6.00 Build 0)  -->
<svg version="1.1" id="Calque_1" xmlns="http://www.w3.org/2000/svg" xmlns:xlink="http://www.w3.org/1999/xlink" x="0px" y="0px"
	 viewBox="0 0 122 93.5" style="enable-background:new 0 0 122 93.5;" xml:space="preserve">
<style type="text/css">
	.st0{enable-background:new    ;}
	.st1{fill:#FFFFFF;}
	.st2{fill:url(#Tracé_29_00000150078307316241230060000016010718959338055866_);}
</style>
<g id="logo-alt" transform="translate(0.659)">
	<g class="st0">
		<path class="st1" d="M0.5,85.3h1.1v5.2h2.3v1H0.5V85.3z"/>
		<path class="st1" d="M7,85.3h1.1l2.1,6.2H9.1l-0.4-1.1H6.4l-0.4,1.1H4.9L7,85.3z M8.4,89.5l-0.8-2.6l-0.8,2.6H8.4z"/>
		<path class="st1" d="M11.8,85.3h1.1v6.2h-1.1V85.3z"/>
		<path class="st1" d="M14.8,91.5v-1c0.5,0.1,0.8,0.1,1.1,0.1c0.7,0,1.1-0.2,1.1-0.7c0-0.3-0.2-0.6-0.6-0.9l-0.7-0.4
			c-0.6-0.4-1-0.9-1-1.6c0-1,0.7-1.6,2-1.6c0.3,0,0.6,0,0.9,0.1v1c-0.3,0-0.6-0.1-0.9-0.1c-0.6,0-1,0.2-1,0.6c0,0.3,0.2,0.5,0.6,0.8
			L17,88c0.8,0.5,1.1,1.1,1.1,1.8c0,1.1-0.8,1.8-2.2,1.8C15.7,91.6,15.3,91.6,14.8,91.5z"/>
		<path class="st1" d="M19.7,91.5v-1c0.5,0.1,0.8,0.1,1.1,0.1c0.7,0,1.1-0.2,1.1-0.7c0-0.3-0.2-0.6-0.6-0.9l-0.7-0.4
			c-0.6-0.4-1-0.9-1-1.6c0-1,0.7-1.6,2-1.6c0.3,0,0.6,0,0.9,0.1v1c-0.3,0-0.6-0.1-0.9-0.1c-0.6,0-1,0.2-1,0.6c0,0.3,0.2,0.5,0.6,0.8
			l0.6,0.4c0.8,0.5,1.1,1.1,1.1,1.8c0,1.1-0.8,1.8-2.2,1.8C20.5,91.6,20.2,91.6,19.7,91.5z"/>
		<path class="st1" d="M24.8,85.3h3.3v1h-2.2v1.5h2.2v1h-2.2v1.6h2.3v1h-3.4V85.3z"/>
		<path class="st1" d="M29.6,91.4l2.6-5h-2.4l0.2-1h3.9v0.1l-2.6,5h2.6l-0.2,1h-4.1V91.4z"/>
		<path class="st1" d="M37.8,85.3H39l1.4,4.6l1.4-4.6H43l-2,6.2h-1.1L37.8,85.3z"/>
		<path class="st1" d="M44,88.4c0-1.9,1.4-3.2,3.2-3.2c1.8,0,3.2,1.3,3.2,3.2c0,1.9-1.4,3.2-3.2,3.2C45.4,91.6,44,90.3,44,88.4z
			 M47.2,90.6c1.2,0,2.1-0.9,2.1-2.2c0-1.3-0.9-2.2-2.1-2.2c-1.2,0-2.1,0.9-2.1,2.2C45.2,89.7,46.1,90.6,47.2,90.6z"/>
		<path class="st1" d="M53,86.4h-1.5v-1h4.1v1h-1.5v5.2H53V86.4z"/>
		<path class="st1" d="M58.2,88.9v2.6h-1.1v-6.2H59c1.2,0,2,0.6,2,1.8c0,0.9-0.6,1.6-1.6,1.7l2,2.6h-1.3L58.2,88.9z M59,88.1
			c0.6,0,1-0.3,1-0.9c0-0.5-0.4-0.9-1-0.9h-0.7v1.8H59z"/>
		<path class="st1" d="M63,85.3h3.3v1h-2.2v1.5h2.2v1h-2.2v1.6h2.3v1H63V85.3z"/>
		<path class="st1" d="M71.2,85.3h3.3v1h-2.2v1.5h2.2v1h-2.2v1.6h2.3v1h-3.4V85.3z"/>
		<path class="st1" d="M76.6,85.3h1.1l2,3.4l2-3.4h1.1v6.2h-1v-4.3L80,90.1h-0.7l-1.7-2.9v4.3h-1V85.3z"/>
		<path class="st1" d="M84.8,85.3h1.9c1.3,0,2.1,0.7,2.1,1.9c0,1.1-0.8,1.9-2.1,1.9h-0.8v2.4h-1.1V85.3z M86.7,88.1
			c0.6,0,1-0.3,1-0.9s-0.4-0.9-1-0.9h-0.8v1.8H86.7z"/>
		<path class="st1" d="M91.6,88.9v2.6h-1.1v-6.2h1.9c1.2,0,2,0.6,2,1.8c0,0.9-0.6,1.6-1.6,1.7l2,2.6h-1.3L91.6,88.9z M92.3,88.1
			c0.6,0,1-0.3,1-0.9c0-0.5-0.4-0.9-1-0.9h-0.7v1.8H92.3z"/>
		<path class="st1" d="M96.4,85.3h3.3v1h-2.2v1.5h2.2v1h-2.2v1.6h2.3v1h-3.4V85.3z"/>
		<path class="st1" d="M101.8,85.3h1.1v6.2h-1.1V85.3z"/>
		<path class="st1" d="M105,85.3h1l2.6,4.2v-4.2h1v6.2h-1l-2.6-4.2v4.2h-1V85.3z"/>
		<path class="st1" d="M112.8,86.4h-1.5v-1h4.1v1h-1.5v5.2h-1.1V86.4z"/>
		<path class="st1" d="M116.9,85.3h3.3v1H118v1.5h2.2v1H118v1.6h2.3v1h-3.4V85.3z"/>
	</g>
	<g id="logo_BIGFIVE_ARRONDI" transform="translate(-1337 -56.479)">
		
			<linearGradient id="Tracé_29_00000035504546565715046930000003629764999693580972_" gradientUnits="userSpaceOnUse" x1="470.0785" y1="637.9849" x2="470.0785" y2="636.9849" gradientTransform="matrix(28.7475 0 0 -75.761 -12136.2852 48392.8945)">
			<stop  offset="0" style="stop-color:#82368C"/>
			<stop  offset="1" style="stop-color:#27348B"/>
		</linearGradient>
		<path id="Tracé_29" style="fill:url(#Tracé_29_00000035504546565715046930000003629764999693580972_);" d="M1368.6,134.3
			L1368.6,134.3c2.6,0,4.8-1.7,5.5-4.2l17.3-64.3c0.8-3-1-6.2-4-7c-0.5-0.1-1-0.2-1.5-0.2l0,0c-2.6,0-4.8,1.7-5.5,4.2l-17.3,64.3
			c-0.8,3,1,6.2,4,7C1367.6,134.2,1368.1,134.3,1368.6,134.3z"/>
		<path id="Union_2" class="st1" d="M1384.7,75.9c0.1-12.1,9.4-19.4,20.7-19.4c8.6,0,13.8,4.3,16.4,9.2l-9.5,4.9
			c-1.4-2.5-4-4.1-6.9-4c-5.5,0-9.1,4.2-9.1,9.4c0,5.2,3.6,9.4,9.1,9.4c2.2,0.1,4.3-0.5,6-1.7V82h-7.2v-9.4h18.1v15
			c-4.3,4.9-10.6,7.7-17.1,7.6C1393.9,95.2,1384.7,87.9,1384.7,75.9z M1337,94.5V57.2h22.8c7.8,0,11.1,5.2,11.1,9.5
			c0,4.6-2.7,7.8-6.3,8.6c4,0.6,7.1,4.3,7.1,9.1c0,5.2-3.6,10.1-11.1,10.1L1337,94.5z M1348.2,85.3h9.1c1.4,0.1,2.5-1,2.6-2.4
			c0-0.1,0-0.1,0-0.2c0-1.4-1.1-2.6-2.6-2.6c0,0,0,0,0,0h-9.1V85.3z M1348.2,71h8.8c1.3-0.1,2.3-1.1,2.3-2.4c0-1.3-1-2.3-2.2-2.3
			c0,0,0,0-0.1,0h-8.8V71z"/>
		<path id="Union_1" class="st1" d="M1397.9,132.3L1397.9,132.3l-14.4-39.1h13.4l8.4,26.3l8.4-26.3h13.4l-14.4,39.1H1397.9z
			 M1428,132.3V93.1h29.7v9.8h-17.9v4.6h17.5v9.8h-17.5v5.1h17.8v9.8H1428z M1337,132.3V93.1h33.2v9.8h-21.4v4.6h21.1v9.8h-21.1
			v14.9H1337z"/>
	</g>
</g>
</svg>
