<?xml version="1.0" encoding="utf-8"?>
<!-- Generator: Adobe Illustrator 27.7.0, SVG Export Plug-In . SVG Version: 6.00 Build 0)  -->
<svg version="1.1" id="Calque_1" xmlns="http://www.w3.org/2000/svg" xmlns:xlink="http://www.w3.org/1999/xlink" x="0px" y="0px"
	 viewBox="0 0 876 652.5" style="enable-background:new 0 0 876 652.5;" xml:space="preserve">
<style type="text/css">
	.st0{enable-background:new    ;}
	.st1{fill:url(#SVGID_1_);}
	.st2{fill:#010202;}
</style>
<g transform="translate(-521.999 -328.299)">
	<g class="st0">
		<path d="M526.5,919.1h10.3v36.1h15.7v9.5h-26V919.1z"/>
		<path d="M573.6,919.1h10l15.5,45.6h-10.7l-2.1-6.9H571l-2.1,6.9h-10.6L573.6,919.1z M583.6,949.1l-5-16.2l-5,16.2H583.6z"/>
		<path d="M608.5,919.1h10.3v45.6h-10.3V919.1z"/>
		<path d="M631.5,964.8v-9.7c4.1,0.4,6.3,0.5,7.8,0.5c4.6,0,6.6-1.2,6.6-3.9c0-1.7-0.8-3.2-3.9-5.2l-4.7-3.2
			c-4.6-3.1-6.9-7.1-6.9-12c0-8,5.8-12.8,15.6-12.8c2.2,0,4.5,0.2,7,0.6v9.2c-2.5-0.4-4.9-0.6-6.7-0.6c-3.7,0-5.6,1.1-5.6,3.3
			c0,1.6,0.9,2.8,3.4,4.5l4,2.6c5.8,3.8,8.3,7.9,8.3,13.5c0,8.8-6.1,13.8-16.7,13.8C637.8,965.4,635.4,965.3,631.5,964.8z"/>
		<path d="M666.8,964.8v-9.7c4.1,0.4,6.3,0.5,7.8,0.5c4.6,0,6.6-1.2,6.6-3.9c0-1.7-0.8-3.2-3.9-5.2l-4.7-3.2
			c-4.6-3.1-6.9-7.1-6.9-12c0-8,5.8-12.8,15.6-12.8c2.2,0,4.5,0.2,7,0.6v9.2c-2.5-0.4-4.9-0.6-6.7-0.6c-3.7,0-5.6,1.1-5.6,3.3
			c0,1.6,0.9,2.8,3.4,4.5l4,2.6c5.8,3.8,8.3,7.9,8.3,13.5c0,8.8-6.1,13.8-16.7,13.8C673.2,965.4,670.7,965.3,666.8,964.8z"/>
		<path d="M702.7,919.1h25.9v9.5H713v8.2h15.4v9.5H713v8.7h15.8v9.5h-26.1V919.1z"/>
		<path d="M737.9,963.5l17.7-34.6h-16l1.5-9.8h30.1v1.2L753.6,955h17.2l-1.5,9.8h-31.3V963.5z"/>
		<path d="M796.7,919.1h11.1l9.1,30.8l8.9-30.8h10.7l-14.8,45.6h-10.2L796.7,919.1z"/>
		<path d="M842.1,942c0-13.9,10.2-23.7,23.8-23.7c13.6,0,23.9,9.8,23.9,23.7s-10.2,23.7-23.9,23.7
			C852.3,965.7,842.1,955.9,842.1,942z M865.9,955.9c7.5,0,13.2-5.6,13.2-13.9c0-8.4-5.7-13.9-13.2-13.9c-7.5,0-13.1,5.6-13.1,13.9
			C852.8,950.3,858.4,955.9,865.9,955.9z"/>
		<path d="M906.6,928.7h-10.3v-9.5h30.9v9.5h-10.3v36.1h-10.3V928.7z"/>
		<path d="M947.2,946.9v17.9h-10.3v-45.6h15.5c9.7,0,15.6,4.8,15.6,14.2c0,6.3-3.8,11-10.2,12.6l13.1,18.8h-12.4L947.2,946.9z
			 M951.9,938.7c3.5,0,5.6-2,5.6-5.3c0-3.3-2.2-5.3-5.6-5.3h-4.7v10.7H951.9z"/>
		<path d="M980.7,919.1h25.9v9.5H991v8.2h15.4v9.5H991v8.7h15.8v9.5h-26.1V919.1z"/>
		<path d="M1038.1,919.1h25.9v9.5h-15.6v8.2h15.4v9.5h-15.4v8.7h15.8v9.5h-26.1V919.1z"/>
		<path d="M1076.6,919.1h10.1l13.3,22.4l13.1-22.4h9.9v45.6h-9.7v-28l-10.4,17.9h-6.2l-10.5-18v28.1h-9.7V919.1z"/>
		<path d="M1136.4,919.1h15.1c10,0,16.4,5.6,16.4,14.9c0,8.8-6.3,14.5-16.4,14.5h-4.8v16.2h-10.3V919.1z M1151.5,939.2
			c3.7,0,5.9-2,5.9-5.2c0-3.2-2.2-5.2-5.9-5.2h-4.8v10.4H1151.5z"/>
		<path d="M1188.3,946.9v17.9H1178v-45.6h15.5c9.7,0,15.6,4.8,15.6,14.2c0,6.3-3.8,11-10.2,12.6l13.1,18.8h-12.4L1188.3,946.9z
			 M1193,938.7c3.5,0,5.6-2,5.6-5.3c0-3.3-2.2-5.3-5.6-5.3h-4.7v10.7H1193z"/>
		<path d="M1221.8,919.1h25.9v9.5h-15.6v8.2h15.4v9.5h-15.4v8.7h15.8v9.5h-26.1V919.1z"/>
		<path d="M1260.4,919.1h10.3v45.6h-10.3V919.1z"/>
		<path d="M1284,919.1h9.3l17.4,27.1v-27.1h9.7v45.6h-9.3l-17.4-27v27h-9.7V919.1z"/>
		<path d="M1340.3,928.7H1330v-9.5h30.9v9.5h-10.3v36.1h-10.3V928.7z"/>
		<path d="M1370.6,919.1h25.9v9.5h-15.6v8.2h15.4v9.5h-15.4v8.7h15.8v9.5h-26.1V919.1z"/>
	</g>
	<g transform="translate(-812.824 271.82)">
		
			<linearGradient id="SVGID_1_" gradientUnits="userSpaceOnUse" x1="816.8281" y1="923.0882" x2="816.8281" y2="922.0882" gradientTransform="matrix(207.9275 0 0 -547.707 -168224.0312 505645.625)">
			<stop  offset="0" style="stop-color:#82368C"/>
			<stop  offset="1" style="stop-color:#27348B"/>
		</linearGradient>
		<path class="st1" d="M1554.3,611.5L1554.3,611.5c18.8,0,35.5-12.5,39.7-30.3l125.4-465.1c7.3-26.1-12.5-52.3-39.7-52.3l0,0
			c-18.8,0-35.5,12.5-39.7,30.3l-125.4,465.1C1507.2,585.4,1527.1,611.5,1554.3,611.5z"/>
		<path class="st2" d="M1682.8,198.6c1-87.8,67.9-141.1,150.5-141.1c62.7,0,100.3,31.4,119.2,66.9l-69,35.5
			c-10.1-18.2-29.3-29.5-50.2-29.3c-39.7,0-65.8,30.3-65.8,67.9s26.1,67.9,65.9,67.9c17.8,0,33.4-4.2,43.9-12.5v-11.5H1825v-67.9
			h131.7v108.7c-30.3,33.4-71.1,55.4-124.4,55.4C1749.7,338.7,1682.8,285.4,1682.8,198.6z M1336.9,333.5V62.8H1502
			c56.4,0,80.5,37.6,80.5,69c0,33.4-19.9,56.4-46,62.7c29.3,4.2,51.2,31.4,51.2,65.8c0,37.6-26.1,73.2-80.5,73.2L1336.9,333.5z
			 M1418.4,266.6h65.9c11.5,0,18.8-8.4,18.8-18.8c0.1-10.3-8.3-18.8-18.6-18.8c-0.1,0-0.1,0-0.2,0h-65.9V266.6z M1418.4,163.1h63.8
			c8.4,0,16.7-7.3,16.7-17.8c0.1-9.1-7.2-16.6-16.3-16.7c-0.1,0-0.3,0-0.4,0h-63.8V163.1z"/>
		<path class="st2" d="M1778,611.5L1778,611.5l-104.5-283.3h97.2l60.6,190.2l60.6-190.2h97.2l-104.5,283.3H1778z M1995.4,611.5
			V328.2h215.3v71.1h-129.6v33.4h126.5v71.1h-126.5v36.6h128.6v71.1H1995.4z M1336.9,611.5V328.2h240.4v71.1h-154.7v33.4h152.6v71.1
			h-152.6v107.7H1336.9z"/>
	</g>
</g>
</svg>
