<?xml version="1.0" standalone="no"?>
<!DOCTYPE svg PUBLIC "-//W3C//DTD SVG 20010904//EN"
 "http://www.w3.org/TR/2001/REC-SVG-20010904/DTD/svg10.dtd">
<svg version="1.0" xmlns="http://www.w3.org/2000/svg"
 width="288.000000pt" height="288.000000pt" viewBox="0 0 288.000000 288.000000"
 preserveAspectRatio="xMidYMid meet">
<metadata>
Created by potrace 1.14, written by Peter Selinger 2001-2017
</metadata>
<g transform="translate(0.000000,288.000000) scale(0.100000,-0.100000)"
fill="#000000" stroke="none">
<path d="M1495 2481 c-79 -19 -119 -38 -186 -87 l-47 -34 -11 27 c-30 81 -118
113 -193 71 -44 -25 -56 -52 -103 -228 -20 -74 -61 -227 -91 -340 -30 -113
-59 -222 -65 -242 l-10 -38 -57 0 -57 0 40 24 c79 47 119 140 104 235 -12 80
-55 136 -134 176 -6 3 -4 8 3 11 29 13 81 66 96 98 60 127 -9 275 -145 312
-47 12 -330 19 -606 15 l-33 -1 0 -900 0 -900 38 -1 c116 -2 234 0 239 4 3 3
5 82 5 176 0 152 2 171 16 172 64 2 325 0 328 -3 2 -3 -8 -46 -21 -97 -30
-112 -31 -144 -5 -186 49 -79 175 -85 224 -11 8 13 33 91 55 173 22 81 61 225
86 318 26 94 51 187 56 207 14 59 119 441 125 458 4 10 13 -3 25 -34 37 -91
99 -161 191 -215 l53 -31 -152 0 c-84 0 -153 -3 -153 -7 0 -7 109 -307 135
-373 8 -19 39 -105 70 -190 31 -85 60 -164 65 -175 5 -11 21 -54 36 -95 14
-41 30 -79 34 -83 7 -7 94 -10 293 -8 37 1 59 6 62 14 2 6 79 214 170 460 91
247 165 450 165 453 0 2 -69 4 -152 4 l-153 0 62 36 c34 20 78 54 99 74 l39
38 0 175 c0 149 -2 176 -15 179 -12 3 -392 2 -411 -1 -3 -1 -6 -50 -6 -111 l1
-110 89 0 c77 0 88 -2 83 -16 -3 -9 -6 -19 -6 -24 0 -24 -142 -46 -196 -31
-135 37 -199 200 -130 328 69 125 242 149 328 45 l23 -29 95 48 c140 70 137
66 102 115 -105 144 -295 203 -497 155z m-981 -231 c24 -19 20 -66 -6 -84 -17
-12 -49 -16 -130 -16 l-108 0 0 53 c0 30 2 56 5 58 11 12 225 2 239 -11z m13
-332 c21 -21 20 -64 -2 -88 -16 -18 -31 -20 -137 -19 l-118 1 0 62 0 62 120
-1 c96 -1 124 -4 137 -17z m998 -332 c88 -16 208 -9 271 14 23 9 25 8 19 -12
-7 -24 -117 -372 -164 -518 l-27 -84 -16 49 c-9 28 -46 145 -83 260 -36 116
-74 234 -85 263 -16 48 -17 53 -2 47 10 -4 49 -13 87 -19z m-805 -219 c0 -33
-25 -96 -38 -99 -14 -3 -371 -2 -395 1 -6 1 -8 89 -1 101 4 9 434 6 434 -3z"/>
<path d="M2163 1150 c0 -267 4 -463 9 -466 13 -8 679 -6 687 1 3 4 7 56 7 116
1 104 0 109 -20 110 -11 0 -105 0 -208 0 -104 0 -189 3 -189 7 -1 4 -2 31 -3
60 l-3 52 41 1 c23 0 116 0 209 0 l167 1 0 117 0 117 -192 -1 c-106 0 -200 1
-209 3 -12 3 -15 16 -15 55 l1 52 200 1 c110 1 206 2 213 3 9 1 12 31 12 116
l0 115 -353 0 -354 0 0 -460z"/>
<path d="M19 513 c-7 -88 -4 -93 52 -93 37 0 49 4 49 15 0 10 -10 15 -32 15
l-33 0 0 52 c0 41 -4 53 -16 56 -14 2 -18 -7 -20 -45z"/>
<path d="M186 508 c-10 -29 -23 -57 -27 -62 -5 -6 -9 -14 -9 -18 0 -13 37 -9
49 6 12 14 61 10 61 -5 0 -5 9 -9 21 -9 22 0 22 0 -10 85 -15 39 -24 51 -43
53 -21 3 -26 -4 -42 -50z m48 -36 c-21 -5 -24 0 -17 27 l6 23 13 -23 c11 -20
10 -25 -2 -27z"/>
<path d="M339 528 c0 -18 -1 -50 -2 -71 -2 -31 1 -37 19 -37 18 0 20 6 20 70
0 61 -2 70 -18 70 -13 0 -18 -8 -19 -32z"/>
<path d="M437 545 c-23 -22 -9 -54 26 -63 17 -4 33 -14 35 -21 4 -11 -5 -13
-36 -9 -32 5 -39 3 -35 -8 12 -33 104 -27 111 6 4 22 -19 50 -47 55 -13 2 -26
7 -30 10 -10 11 20 22 45 17 17 -3 24 0 24 12 0 21 -72 22 -93 1z"/>
<path d="M599 543 c-22 -26 -12 -52 24 -61 44 -11 48 -34 6 -32 -49 3 -53 2
-39 -15 16 -20 74 -19 94 1 30 29 16 56 -37 69 -39 10 -34 25 9 25 47 0 41 23
-7 28 -25 2 -40 -2 -50 -15z"/>
<path d="M750 490 l0 -70 50 0 c38 0 50 4 50 15 0 10 -10 15 -29 15 -16 0 -31
6 -35 15 -4 11 2 15 28 15 22 0 33 5 33 15 0 8 -5 15 -11 14 -28 -3 -46 2 -46
14 0 9 10 12 30 9 23 -3 30 0 30 12 0 13 -11 16 -50 16 l-50 0 0 -70z"/>
<path d="M900 545 c0 -11 11 -15 36 -15 l36 0 -36 -44 c-20 -24 -36 -49 -36
-55 0 -7 25 -11 65 -11 47 0 64 4 63 13 -2 6 -20 14 -40 17 l-38 5 35 38 c51
56 47 67 -25 67 -47 0 -60 -3 -60 -15z"/>
<path d="M1161 508 c12 -29 24 -61 27 -71 3 -12 12 -17 30 -15 19 2 29 13 42
48 32 83 33 90 13 90 -13 0 -24 -15 -37 -52 l-19 -53 -20 53 c-14 37 -25 52
-38 52 -18 0 -18 -2 2 -52z"/>
<path d="M1360 554 c-64 -25 -43 -134 26 -134 28 0 65 17 76 34 12 18 9 59 -6
79 -14 19 -70 31 -96 21z m65 -44 c11 -36 -4 -62 -33 -58 -28 3 -40 32 -28 64
8 22 54 18 61 -6z"/>
<path d="M1500 545 c0 -9 9 -15 25 -15 24 0 25 -3 25 -55 0 -48 3 -55 20 -55
16 0 19 7 18 38 -1 67 1 72 25 72 14 0 24 6 24 15 0 12 -15 15 -69 15 -54 0
-68 -3 -68 -15z"/>
<path d="M1680 491 c0 -64 2 -71 19 -71 14 0 19 6 16 19 -2 11 3 25 10 31 11
9 17 5 30 -19 10 -20 23 -31 36 -31 21 0 21 0 2 33 -15 25 -17 37 -9 50 19 29
-5 52 -58 55 l-46 3 0 -70z m70 23 c0 -14 -21 -19 -33 -7 -9 9 13 34 24 27 5
-3 9 -12 9 -20z"/>
<path d="M1850 490 l0 -70 50 0 c37 0 50 4 50 14 0 9 -12 16 -32 18 -40 4 -40
21 -1 28 37 7 43 33 7 28 -16 -2 -29 2 -31 10 -3 8 6 12 26 12 21 0 31 5 31
15 0 11 -12 15 -50 15 l-50 0 0 -70z"/>
<path d="M2100 490 l0 -70 50 0 c37 0 50 4 50 14 0 9 -12 16 -32 18 -43 4 -42
22 0 26 20 2 32 8 29 15 -4 11 -9 13 -50 16 -30 2 -8 21 24 21 19 0 29 5 29
15 0 11 -12 15 -50 15 l-50 0 0 -70z"/>
<path d="M2259 523 c-6 -59 1 -103 16 -103 16 0 21 15 20 57 -1 18 2 30 7 27
4 -3 8 -11 8 -19 0 -7 8 -21 17 -30 15 -16 18 -15 34 16 19 35 21 34 23 -16 1
-20 7 -31 19 -33 15 -3 17 5 17 67 0 68 -1 71 -23 71 -17 0 -28 -10 -41 -37
l-18 -38 -15 38 c-11 28 -21 37 -38 37 -19 0 -23 -6 -26 -37z"/>
<path d="M2470 491 c0 -64 2 -72 18 -69 9 2 18 9 18 16 1 6 2 17 3 22 0 6 10
10 22 10 36 0 57 18 54 45 -3 35 -7 37 -65 43 l-50 5 0 -72z m80 25 c0 -7 -9
-16 -19 -19 -24 -6 -31 0 -24 19 7 18 43 18 43 0z"/>
<path d="M2639 518 c-6 -70 0 -98 21 -98 13 0 18 6 15 19 -2 11 3 25 10 31 11
9 17 5 30 -19 10 -20 23 -31 36 -31 21 0 21 0 2 33 -15 25 -17 37 -9 50 18 29
-5 52 -56 55 l-46 3 -3 -43z m71 -4 c0 -14 -21 -19 -33 -7 -9 9 13 34 24 27 5
-3 9 -12 9 -20z"/>
<path d="M2810 490 l0 -70 35 0 c39 0 49 24 14 33 -23 6 -17 27 7 27 8 0 14 7
14 15 0 8 -5 14 -11 13 -6 -2 -14 3 -16 10 -3 6 2 12 11 12 9 0 16 7 16 15 0
10 -11 15 -35 15 l-35 0 0 -70z"/>
</g>
</svg>
