<svg xmlns="http://www.w3.org/2000/svg" width="29.094" height="21.028" viewBox="0 0 29.094 21.028">
  <g id="Groupe_322" data-name="Groupe 322" transform="translate(-1814.541 -986.313)">
    <path id="Rectangle_15" data-name="Rectangle 15" d="M5,2A3,3,0,0,0,2,5V16.028a3,3,0,0,0,3,3H24.094a3,3,0,0,0,3-3V5a3,3,0,0,0-3-3H5M5,0H24.094a5,5,0,0,1,5,5V16.028a5,5,0,0,1-5,5H5a5,5,0,0,1-5-5V5A5,5,0,0,1,5,0Z" transform="translate(1814.541 986.313)" fill="#fff"/>
    <path id="Tracé_21" data-name="Tracé 21" d="M9410.132-106.646a1,1,0,0,1-.55-.164l-13.1-8.614,1.585-1.369,12.063,7.951,12.206-8,1.442,1.414-13.1,8.614A1,1,0,0,1,9410.132-106.646Z" transform="translate(-7581.051 1104.15)" fill="#fff"/>
  </g>
</svg>
