<?xml version="1.0" encoding="utf-8"?>
<!-- Generator: Adobe Illustrator 24.0.2, SVG Export Plug-In . SVG Version: 6.00 Build 0)  -->
<svg version="1.1" id="Calque_1" xmlns="http://www.w3.org/2000/svg" xmlns:xlink="http://www.w3.org/1999/xlink" x="0px" y="0px"
	 viewBox="0 0 65.9 23.7" style="enable-background:new 0 0 65.9 23.7;" xml:space="preserve">
<path id="Exclusion_5" d="M65.4,23.2H0.9V11.3h64.5V23.2z M37.7,14.9l1.6,4.5h0.8l1.6-4.5h-0.9l-1.1,3.2l-1.1-3.2L37.7,14.9z
	 M55.1,14.9L55.1,14.9v4.5h2.5v-0.8h-1.6v-1.2h1.6v-0.8h-1.6v-0.8h1.6v-0.8L55.1,14.9L55.1,14.9z M23.6,14.9L23.6,14.9v4.5h0.9v-4.5
	C24.5,14.9,23.6,14.9,23.6,14.9z M8.3,14.9L8.3,14.9v4.5h2.1v-0.8H9.2v-3.7C9.2,14.9,8.3,14.9,8.3,14.9z M3.2,9.9
	c-0.5,0-1-0.1-1.4-0.4C1.3,9.1,0.9,8.6,0.7,8l0.7-0.4C1.9,8.5,2.5,9,3.2,9C3.4,9,3.7,8.9,4,8.8c0.5-0.2,0.8-0.7,0.8-1.3
	c0-0.3-0.1-0.6-0.3-0.9C4,6.1,3.5,5.7,3,5.3C2.5,4.9,2.1,4.5,1.7,4.1C1.4,3.7,1.2,3.2,1.2,2.7c0-0.4,0.1-0.7,0.3-1
	c0.2-0.3,0.4-0.6,0.8-0.7c0.3-0.2,0.7-0.3,1.1-0.3c0.4,0,0.8,0.1,1.1,0.3c0.4,0.3,0.8,0.7,1.1,1.1L4.8,2.6C4.6,2.3,4.3,2,4,1.8
	C3.8,1.6,3.5,1.6,3.3,1.6c-0.3,0-0.6,0.1-0.8,0.3C2.2,2.1,2.1,2.4,2.1,2.7c0,0.2,0,0.4,0.1,0.6c0.1,0.2,0.2,0.4,0.4,0.6
	c0.1,0.1,0.5,0.4,1.1,0.9c0.6,0.4,1.1,0.9,1.5,1.5C5.5,6.6,5.7,7,5.7,7.5c0,0.6-0.3,1.2-0.7,1.7C4.5,9.6,3.9,9.9,3.2,9.9z M62,9.8
	c-0.9,0-1.8-0.3-2.4-1c-1.1-1.3-1.2-3.2-0.1-4.5C60,3.4,61,3,61.9,3c1,0,2,0.4,2.6,1.3c0.5,0.6,0.7,1.4,0.7,2.2h-5.7
	c0,0.7,0.2,1.3,0.7,1.8c0.4,0.5,1,0.7,1.7,0.7c0.3,0,0.6-0.1,0.9-0.2c0.3-0.1,0.5-0.3,0.8-0.5c0.3-0.3,0.5-0.6,0.7-0.9L65,7.9
	c-0.2,0.4-0.5,0.8-0.8,1.1c-0.3,0.3-0.6,0.5-1,0.6C62.8,9.7,62.4,9.8,62,9.8z M62,3.8c-0.6,0-1.2,0.2-1.6,0.6
	c-0.4,0.4-0.6,0.8-0.7,1.3h4.7c-0.1-0.4-0.2-0.7-0.5-1.1C63.6,4.4,63.4,4.2,63,4C62.7,3.9,62.3,3.8,62,3.8z M34.9,9.8
	c-0.9,0-1.8-0.3-2.5-1c-0.6-0.6-1-1.5-1-2.4c0-0.6,0.2-1.2,0.5-1.7c0.3-0.5,0.7-1,1.3-1.3C33.7,3.1,34.4,3,35,3
	c0.4,0,0.8,0.1,1.2,0.2c0.4,0.1,0.7,0.3,1,0.5c0.3,0.2,0.5,0.5,0.7,0.8l-0.6,0.4c-0.5-0.7-1.4-1.2-2.3-1.1c-0.7,0-1.4,0.3-1.9,0.8
	c-0.5,0.5-0.8,1.2-0.8,1.9c0,0.5,0.1,0.9,0.3,1.3c0.2,0.4,0.6,0.7,1,1c1.2,0.7,2.8,0.3,3.6-0.8l0.6,0.4c-0.3,0.5-0.7,0.8-1.2,1.1
	C36.1,9.7,35.5,9.8,34.9,9.8z M25.4,9.8c-0.9,0-1.8-0.3-2.4-1c-0.6-0.7-0.9-1.5-0.9-2.3c0-0.8,0.3-1.6,0.7-2.2
	C23.4,3.4,24.3,3,25.3,3c1,0,2,0.4,2.6,1.3c0.5,0.6,0.7,1.4,0.7,2.2h-5.7c0,0.7,0.2,1.3,0.7,1.8c0.4,0.5,1,0.7,1.7,0.7
	c0.3,0,0.6-0.1,0.9-0.2c0.3-0.1,0.5-0.3,0.8-0.5c0.3-0.3,0.5-0.6,0.7-0.9l0.7,0.4c-0.2,0.4-0.5,0.8-0.8,1.1c-0.3,0.3-0.6,0.5-1,0.6
	C26.2,9.7,25.8,9.8,25.4,9.8L25.4,9.8z M25.3,3.8c-0.6,0-1.2,0.2-1.6,0.6c-0.4,0.4-0.6,0.8-0.7,1.3h4.7c-0.1-0.4-0.2-0.7-0.5-1.1
	C27,4.4,26.7,4.2,26.4,4C26.1,3.9,25.7,3.8,25.3,3.8z M12,9.8c-0.9,0-1.8-0.3-2.4-1C9,8.1,8.7,7.3,8.7,6.4c0-0.8,0.2-1.6,0.7-2.2
	C10,3.4,10.9,3,11.9,3c1,0,2,0.4,2.6,1.3c0.5,0.6,0.7,1.4,0.7,2.2H9.5c0,0.7,0.2,1.3,0.7,1.8c0.4,0.5,1,0.7,1.7,0.7
	c0.3,0,0.6-0.1,0.9-0.2c0.3-0.1,0.5-0.3,0.8-0.5c0.3-0.3,0.5-0.6,0.7-0.9L15,7.9c-0.2,0.4-0.5,0.8-0.8,1.1c-0.3,0.3-0.6,0.5-1,0.6
	C12.8,9.7,12.4,9.8,12,9.8z M11.9,3.8c-0.6,0-1.2,0.2-1.6,0.6C10,4.8,9.7,5.2,9.6,5.8h4.7c-0.1-0.4-0.2-0.7-0.5-1.1
	C13.6,4.4,13.3,4.2,13,4C12.7,3.9,12.3,3.8,11.9,3.8z M53.2,9.6h-0.2l-2.9-6.5H51l2.1,4.7l2.1-4.7h0.9L53.2,9.6L53.2,9.6z M47.4,9.6
	h-0.8V3.2h0.8L47.4,9.6L47.4,9.6z M42.6,9.6h-0.8V3.9h-1.1V3.2h1.1V0.8h0.8v2.4h1.3v0.7h-1.3L42.6,9.6L42.6,9.6z M19,9.6h-0.8v-9H19
	V9.6L19,9.6z M47,1.9c-0.2,0-0.3-0.1-0.5-0.2c-0.1-0.1-0.2-0.3-0.2-0.5c0-0.2,0.1-0.4,0.2-0.5c0.1-0.1,0.3-0.2,0.5-0.2
	c0.2,0,0.4,0.1,0.5,0.2c0.1,0.1,0.2,0.3,0.2,0.5c0,0.2-0.1,0.4-0.2,0.5C47.4,1.8,47.2,1.9,47,1.9z"/>
</svg>
