<svg id="Logo_BIG_activations_blc" data-name="Logo BIG activations blc" xmlns="http://www.w3.org/2000/svg" xmlns:xlink="http://www.w3.org/1999/xlink" width="235.4" height="235.4" viewBox="0 0 235.4 235.4">
  <defs>
    <linearGradient id="linear-gradient" x1="-1.9" y1="2.705" x2="3.307" y2="-2.239" gradientUnits="objectBoundingBox">
      <stop offset="0" stop-color="#82368c"/>
      <stop offset="1" stop-color="#27348b"/>
    </linearGradient>
    <linearGradient id="linear-gradient-2" x1="-4.205" y1="2.862" x2="6.054" y2="-2.341" xlink:href="#linear-gradient"/>
    <linearGradient id="linear-gradient-3" x1="-0.903" y1="3.711" x2="2.351" y2="-2.96" xlink:href="#linear-gradient"/>
    <linearGradient id="linear-gradient-4" x1="-4.065" y1="3.028" x2="5.898" y2="-2.49" xlink:href="#linear-gradient"/>
    <linearGradient id="linear-gradient-5" x1="-1.813" y1="3.038" x2="3.655" y2="-2.456" xlink:href="#linear-gradient"/>
    <linearGradient id="linear-gradient-6" x1="-2.181" y1="2.959" x2="3.551" y2="-2.419" xlink:href="#linear-gradient"/>
    <linearGradient id="linear-gradient-7" x1="-1.114" y1="3.121" x2="2.452" y2="-2.587" xlink:href="#linear-gradient"/>
  </defs>
  <circle id="Ellipse_46" data-name="Ellipse 46" cx="117.7" cy="117.7" r="117.7" fill="#fff"/>
  <g id="Groupe_191" data-name="Groupe 191" transform="translate(-946.5 -90.4)">
    <path id="Tracé_251" data-name="Tracé 251" d="M1037.4,224.5l-6.4-2.9a5.226,5.226,0,0,1-4.9,3.6,6.108,6.108,0,0,1,0-12.2,5.226,5.226,0,0,1,4.9,3.6l6.4-3a11.442,11.442,0,0,0-9.9-7.1,13,13,0,0,0,9.4-12.8c0-6.5-4.1-11.4-9.5-12.2,4.9-1.1,8.6-5.3,8.6-11.5,0-5.9-4.5-12.8-14.9-12.8H990.7v50.1h4.9l-8.9,24h8l1-3.2h9.4l1,3.2h5.8v5.8h6.6v18h7.4v-18h6.5v-6.5h-.7A11.9,11.9,0,0,0,1037.4,224.5Zm-31.6-55.1h11.7a3.154,3.154,0,0,1,0,6.3h-11.7Zm0,18.6H1018a3.414,3.414,0,0,1,3.5,3.5,3.337,3.337,0,0,1-3.5,3.4h-12.2Zm-8.3,33.9,2.8-8.6,2.8,8.6Zm16.2,8.7-8.6-23.4h16.1a12.562,12.562,0,0,0-.6,23.4h-6.9Z" fill="url(#linear-gradient)"/>
    <path id="Tracé_252" data-name="Tracé 252" d="M1045,231.2h7.4v-18h6.5v-6.4h-.8V157.1H1043v49.7h-4.6v6.4h6.6Z" fill="url(#linear-gradient-2)"/>
    <path id="Tracé_253" data-name="Tracé 253" d="M995.6,230.6l-9,24.5h8l1-3.2h9.4l1,3.2h8l-9-24.5Zm1.9,15.2,2.8-8.6,2.8,8.6Z" fill="url(#linear-gradient-3)"/>
    <rect id="Rectangle_27" data-name="Rectangle 27" width="7.4" height="24.5" transform="translate(1034.9 230.6)" fill="url(#linear-gradient-4)"/>
    <path id="Tracé_254" data-name="Tracé 254" d="M1063.9,231.2h5.1V206.7h-7.4v23.8a16.551,16.551,0,0,0-3.2-.3c-7.6,0-13.4,5.1-13.4,12.7,0,7.5,5.8,12.7,13.4,12.7s13.4-5.1,13.4-12.7A12.39,12.39,0,0,0,1063.9,231.2Zm-5.6,17.8a6.1,6.1,0,1,1,5.9-6.1A5.777,5.777,0,0,1,1058.3,249Z" fill="url(#linear-gradient-5)"/>
    <path id="Tracé_255" data-name="Tracé 255" d="M1090.5,242.9l-8.1-11.7h6.2l8.8-23.7A29.859,29.859,0,0,0,1114,198V177.9h-24.4v12.5h9.7v2.2a14.708,14.708,0,0,1-8.2,2.3c-7.3,0-12.2-5.6-12.2-12.5,0-7,4.9-12.5,12.2-12.5a10.2,10.2,0,0,1,9.2,5.5l12.8-6.5c-3.5-6.5-10.4-12.3-22-12.3-15.2,0-27.6,9.8-27.6,25.9,0,15.2,11.2,24.9,25.3,25.8l-4.9,15.2-5.3-16.5h-8.4l8.8,23.8h-4.7v24.5h7.4V242.2l9,13.1h7.1V230.8h-7.4v12.1Z" fill="url(#linear-gradient-6)"/>
    <path id="Tracé_256" data-name="Tracé 256" d="M1111.9,239.5c-2.6-.4-3.6-.8-3.6-1.7,0-.6.4-1.3,2.2-1.3a12.225,12.225,0,0,1,6.8,2.4l4-5.2a16.062,16.062,0,0,0-10.4-3.4c-6.7,0-10.2,3.8-10.2,7.9,0,6.1,6.2,7.1,10.2,7.8,2.4.4,3.4.9,3.4,1.9s-1.3,1.4-2.7,1.4a11.231,11.231,0,0,1-7.9-3.2l-3.9,5.5c2.6,2.3,6.2,3.9,11.4,3.9,6.6,0,10.6-3.1,10.6-8.5C1121.9,241.4,1116,240.2,1111.9,239.5Z" fill="url(#linear-gradient-7)"/>
  </g>
</svg>
